if (_typeface_js && _typeface_js.loadFace) _typeface_js.loadFace({"glyphs":{"¦":{"x_min":304.515625,"x_max":433.390625,"ha":739,"o":"m 304 -347 l 304 308 l 433 308 l 433 -347 l 304 -347 m 304 417 l 304 1043 l 433 1043 l 433 417 l 304 417 "},"Ž":{"x_min":15.59375,"x_max":829.46875,"ha":753,"o":"m 287 90 l 421 87 q 510 92 469 87 q 565 118 550 97 q 549 127 558 118 q 540 160 540 136 q 565 221 540 201 q 626 241 590 241 q 678 215 662 241 q 694 162 694 189 q 644 51 694 103 q 516 0 594 0 l 15 0 l 501 966 l 376 969 q 248 938 248 969 q 263 929 255 938 q 271 895 271 919 q 246 834 271 853 q 185 815 221 815 q 134 841 149 815 q 119 895 119 867 q 164 997 119 953 q 290 1041 210 1041 l 766 1041 l 287 90 m 535 1126 l 505 1126 l 422 1389 l 466 1389 l 550 1277 l 768 1389 l 829 1389 l 535 1126 "},"Á":{"x_min":12.203125,"x_max":961.046875,"ha":928,"o":"m 297 47 q 283 -79 283 -26 q 302 -158 283 -131 q 187 -141 220 -158 q 116 -10 116 -105 q 237 393 116 132 q 320 554 275 474 q 213 534 255 550 q 158 482 172 518 q 170 468 164 482 q 176 434 176 454 q 153 399 176 413 q 105 384 130 384 q 36 405 60 384 q 12 463 12 427 q 92 585 12 535 q 295 636 174 636 q 368 632 323 636 q 607 925 480 809 q 851 1041 733 1041 q 961 1022 921 1041 l 743 0 l 543 0 l 649 503 q 463 554 557 545 q 297 47 339 278 m 493 613 q 662 565 590 594 l 743 943 q 493 613 623 878 m 675 1126 l 801 1389 l 947 1389 l 779 1126 l 675 1126 "},"е":{"x_min":-18.3125,"x_max":580.5625,"ha":533,"o":"m 580 248 q 198 -8 424 -8 q 40 43 99 -8 q -18 212 -18 94 q 62 519 -18 370 q 230 680 124 632 q 344 706 285 706 q 475 670 440 706 q 510 573 510 634 q 414 372 510 455 q 190 280 318 288 q 187 225 187 241 q 212 131 187 153 q 282 108 237 108 q 417 144 362 108 q 533 248 472 179 l 580 248 m 402 583 q 368 633 402 633 q 269 543 317 632 q 201 347 222 455 q 342 421 281 352 q 402 583 402 491 "},"Î":{"x_min":8.140625,"x_max":616.5,"ha":521,"o":"m 331 943 q 137 640 137 862 q 153 555 137 583 q 156 545 156 550 q 17 617 45 545 q 8 680 8 642 q 51 815 8 750 q 164 930 95 880 q 495 1041 322 1041 q 551 1039 524 1041 l 330 0 l 130 0 l 331 943 m 572 1126 l 489 1237 l 270 1126 l 209 1126 l 503 1389 l 533 1389 l 616 1126 l 572 1126 "},"e":{"x_min":-18.3125,"x_max":580.5625,"ha":533,"o":"m 580 248 q 198 -8 424 -8 q 40 43 99 -8 q -18 212 -18 94 q 62 519 -18 370 q 230 680 124 632 q 344 706 285 706 q 475 670 440 706 q 510 573 510 634 q 414 372 510 455 q 190 280 318 288 q 187 225 187 241 q 212 131 187 153 q 282 108 237 108 q 417 144 362 108 q 533 248 472 179 l 580 248 m 402 583 q 368 633 402 633 q 269 543 317 632 q 201 347 222 455 q 342 421 281 352 q 402 583 402 491 "},"»":{"x_min":21.03125,"x_max":766.390625,"ha":814,"o":"m 21 140 l 40 219 l 373 352 l 104 519 l 116 596 l 458 387 l 442 312 l 21 140 m 328 140 l 348 219 l 682 352 l 412 519 l 425 596 l 766 387 l 751 312 l 328 140 "},"Ѓ":{"x_min":16.953125,"x_max":872.1875,"ha":595,"o":"m 520 902 l 326 0 l 126 0 l 326 927 q 191 862 236 925 q 145 640 145 798 q 162 555 145 585 q 165 545 165 550 q 26 617 52 545 q 16 685 16 642 q 27 771 16 727 q 61 856 37 816 q 219 992 112 942 q 498 1041 326 1041 q 608 1033 546 1041 q 744 1024 670 1024 q 872 1041 817 1024 q 862 1008 866 1026 q 852 972 858 990 q 838 936 847 954 q 815 905 829 918 q 782 883 802 891 q 709 874 762 874 q 520 902 656 874 m 511 1126 l 637 1389 l 783 1389 l 615 1126 l 511 1126 "},"ў":{"x_min":-10.859375,"x_max":733.15625,"ha":675,"o":"m 190 187 q 231 126 190 126 q 324 194 290 126 q 340 240 334 215 l 437 694 l 637 694 l 499 50 q 603 114 562 71 q 674 248 644 157 l 733 248 q 554 12 680 69 q 487 -10 519 -2 l 466 -111 q 360 -303 440 -244 q 227 -347 302 -347 q 106 -314 151 -347 q 61 -207 61 -280 q 287 -5 61 -80 l 304 69 q 137 -8 232 -8 q 31 31 75 -8 q -10 158 -10 70 q 0 248 -10 197 l 94 694 l 294 694 l 194 222 q 190 187 190 204 m 272 983 q 359 904 359 983 q 326 841 359 863 q 381 836 347 836 q 596 999 533 836 l 654 999 q 453 773 589 808 q 342 762 409 762 q 227 794 275 762 q 180 876 180 826 q 205 954 180 926 q 272 983 230 983 m 273 -75 q 137 -193 137 -124 q 164 -234 137 -221 q 189 -238 172 -238 q 229 -208 206 -238 q 265 -115 251 -178 l 273 -75 "},"ò":{"x_min":-27.125,"x_max":773.171875,"ha":602,"o":"m 773 527 q 526 412 689 439 q 417 108 510 222 q 195 -5 324 -5 q -10 112 35 -5 q -27 204 -27 153 q -18 306 -27 254 q 8 413 -10 358 q 128 614 49 537 q 353 706 221 706 q 531 484 531 706 l 531 483 q 554 482 538 482 q 650 505 592 482 q 760 565 709 529 l 773 527 m 411 408 q 374 470 374 417 q 417 541 374 522 q 403 604 415 585 q 360 622 392 622 q 238 481 296 622 q 179 231 179 341 q 191 146 179 164 q 217 124 204 128 q 253 119 231 119 q 348 202 301 119 q 411 408 395 286 m 330 779 l 248 1041 l 394 1041 l 434 779 l 330 779 "},"ﬄ":{"x_min":-290.28125,"x_max":1141.453125,"ha":1083,"o":"m 1141 248 q 842 -8 1051 -8 q 744 31 787 -8 q 701 158 701 70 q 712 248 701 194 l 857 930 q 743 952 801 952 q 648 843 672 952 l 617 694 l 747 694 l 735 638 l 607 638 l 446 -111 q 342 -301 419 -241 q 202 -347 282 -347 q 51 -271 93 -347 q -126 -347 -16 -347 q -240 -304 -190 -347 q -290 -206 -290 -262 q -271 -116 -290 -149 q -211 -54 -252 -84 q -50 10 -170 -25 l 116 804 q 223 996 145 939 q 378 1040 284 1040 q 529 982 472 1040 q 690 1040 594 1040 q 853 1018 787 1040 l 966 980 q 1060 944 1012 963 l 906 222 q 901 172 901 197 q 958 126 901 126 q 1033 160 999 126 q 1083 248 1067 196 l 1141 248 m 404 638 l 286 638 l 161 50 l 283 70 l 404 638 m 276 35 l 152 10 l 126 -111 q 98 -197 117 -155 q 149 -242 102 -242 q 244 -115 217 -242 l 276 35 m 438 804 q 483 925 451 870 q 436 938 464 938 q 357 901 386 938 q 319 808 328 864 l 297 694 l 415 694 l 438 804 m -51 -34 q -153 -83 -126 -61 q -205 -177 -205 -124 q -172 -219 -205 -204 q -145 -223 -162 -223 q -104 -200 -128 -223 q -67 -115 -81 -177 l -51 -34 "},"^":{"x_min":69.171875,"x_max":476.109375,"ha":585,"o":"m 432 779 l 348 890 l 130 779 l 69 779 l 364 1041 l 393 1041 l 476 779 l 432 779 "},"«":{"x_min":27.8125,"x_max":758.25,"ha":818,"o":"m 27 330 l 40 387 l 466 596 l 453 519 l 118 352 l 387 219 l 370 140 l 27 330 m 319 330 l 331 387 l 758 596 l 744 519 l 409 352 l 678 219 l 662 140 l 319 330 "},"к":{"x_min":-52.90625,"x_max":754.1875,"ha":696,"o":"m 351 437 q 409 442 382 442 q 513 409 484 442 q 541 314 541 375 q 539 281 541 297 l 533 248 q 524 177 524 200 q 580 126 524 126 q 645 155 622 126 q 695 248 668 184 l 754 248 q 501 -8 666 -8 q 375 33 416 -8 q 333 145 333 75 q 341 217 333 180 q 349 278 349 254 q 297 344 349 344 q 248 325 272 344 l 208 293 l 147 0 l -52 0 l 95 694 l 295 694 l 236 419 l 322 508 l 389 581 q 493 679 455 651 q 582 706 532 706 q 655 680 632 706 q 678 614 678 654 q 656 549 678 573 q 591 524 634 524 q 531 548 548 524 q 515 582 515 571 l 515 596 q 444 538 476 572 l 393 481 q 351 437 373 459 "},"í":{"x_min":-10.859375,"x_max":440.171875,"ha":371,"o":"m 429 248 q 130 -8 339 -8 q 31 31 75 -8 q -10 158 -10 70 q 0 248 -10 197 l 94 694 l 294 694 l 194 222 q 189 172 189 197 q 245 126 189 126 q 321 161 286 126 q 370 248 356 196 l 429 248 m 168 779 l 294 1041 l 440 1041 l 271 779 l 168 779 "},"ˆ":{"x_min":0,"x_max":406.9375,"ha":407,"o":"m 362 779 l 279 890 l 61 779 l 0 779 l 294 1041 l 323 1041 l 406 779 l 362 779 "},"µ":{"x_min":-101.734375,"x_max":759.609375,"ha":701,"o":"m 190 187 q 231 126 190 126 q 343 248 305 126 l 437 694 l 637 694 l 537 222 q 531 173 531 198 q 588 126 531 126 q 701 248 666 126 l 759 248 q 480 0 672 0 q 344 124 358 0 q 145 0 267 0 l 108 -180 l -101 -230 l 94 694 l 294 694 l 194 222 q 190 187 190 204 "},"č":{"x_min":-18.3125,"x_max":693.140625,"ha":533,"o":"m 343 706 q 510 580 510 706 q 488 502 510 527 q 439 478 466 478 q 387 494 412 478 q 404 576 404 539 q 364 633 404 633 q 280 561 324 633 q 193 308 217 459 q 187 208 187 263 q 282 108 187 108 q 417 144 362 108 q 533 248 472 179 l 580 248 q 198 -8 424 -8 q 40 43 99 -8 q -18 212 -18 94 q 62 520 -18 371 q 229 680 123 632 q 343 706 284 706 m 398 779 l 369 779 l 286 1041 l 330 1041 l 413 930 l 632 1041 l 693 1041 l 398 779 "},"’":{"x_min":116.65625,"x_max":307.234375,"ha":424,"o":"m 194 830 q 177 854 194 843 q 116 935 116 889 q 145 1010 116 982 q 218 1039 174 1039 q 284 1013 261 1039 q 307 940 307 988 q 263 829 307 892 q 139 714 219 765 q 126 733 126 720 l 194 830 "},"-":{"x_min":26.453125,"x_max":328.9375,"ha":403,"o":"m 26 308 l 51 417 l 328 417 l 305 308 l 26 308 "},"ѕ":{"x_min":-44.765625,"x_max":588.703125,"ha":530,"o":"m 588 248 q 376 75 502 148 q 158 -8 297 -8 q 7 45 60 -8 q -44 158 -44 98 q -21 251 -44 218 q 29 298 1 284 q 200 710 126 473 l 405 737 q 416 519 411 607 l 433 299 q 436 234 436 266 q 430 179 436 202 q 530 248 491 214 l 588 248 m 101 101 q 234 230 234 101 q 229 315 234 266 l 221 394 q 208 559 213 470 q 95 297 172 445 q 127 252 127 282 q 110 201 127 223 q 66 180 94 180 q 29 198 37 180 q 101 101 29 101 "},"Q":{"x_min":22.375,"x_max":910.859375,"ha":924,"o":"m 581 1041 q 910 686 910 1041 q 844 345 910 523 q 645 71 777 168 q 709 -2 682 18 q 819 -40 758 -40 q 849 -37 833 -40 q 786 -133 822 -109 q 705 -156 750 -156 q 580 -103 623 -156 q 527 10 554 -71 q 405 -8 467 -8 q 216 58 283 -8 q 149 269 149 125 q 203 575 149 413 q 438 903 288 835 q 523 922 479 922 q 598 910 568 922 q 479 756 538 874 q 364 382 394 588 q 355 265 355 318 l 355 233 q 358 205 355 219 q 456 218 406 218 q 555 180 505 218 q 676 427 627 269 q 726 727 726 585 l 726 734 q 689 921 726 864 q 548 978 653 978 q 265 879 381 978 q 148 620 148 780 q 155 566 148 579 q 162 545 162 553 q 58 572 94 545 q 22 666 22 598 q 68 803 22 734 q 371 1010 166 946 q 581 1041 473 1041 m 489 119 q 409 166 459 166 q 369 161 391 166 q 436 104 388 104 q 489 119 465 104 "},"Ш":{"x_min":16.953125,"x_max":1298.796875,"ha":1258,"o":"m 139 0 l 340 944 q 197 828 248 905 q 145 640 145 752 q 162 555 145 585 q 165 545 165 550 q 26 617 52 545 q 16 680 16 642 q 61 815 16 750 q 329 1011 149 947 q 503 1041 415 1041 q 559 1039 532 1041 l 359 103 l 522 103 l 722 1039 l 922 1039 l 722 103 l 898 103 l 1098 1039 l 1298 1039 l 1077 0 l 139 0 "},"M":{"x_min":92.921875,"x_max":1117.03125,"ha":1093,"o":"m 244 545 q 95 672 95 545 q 237 923 95 803 q 378 1009 299 976 q 524 1041 458 1041 q 642 1022 590 1041 l 611 290 l 916 1022 l 1117 1022 l 971 0 l 771 0 l 859 623 l 598 0 l 408 0 l 436 626 l 204 0 l 92 0 l 445 954 q 283 840 341 919 q 225 641 225 760 q 241 554 225 581 q 244 545 244 550 "},"ј":{"x_min":-280.78125,"x_max":392.015625,"ha":334,"o":"m 124 -111 q 18 -303 98 -244 q -114 -347 -39 -347 q -235 -313 -189 -347 q -280 -212 -280 -280 q -132 -35 -280 -99 q -52 -5 -92 -18 l 95 694 l 295 694 l 158 50 q 263 114 222 71 q 333 248 303 157 l 392 248 q 212 13 337 70 q 145 -10 178 -2 l 124 -111 m 331 880 q 298 802 331 834 q 220 771 265 771 q 143 803 174 771 q 111 880 111 834 q 142 958 111 925 q 220 991 174 991 q 299 959 266 991 q 331 880 331 926 m -67 -75 q -204 -193 -204 -122 q -177 -234 -204 -221 q -151 -238 -168 -238 q -112 -208 -134 -238 q -76 -115 -90 -178 l -67 -75 "},"œ":{"x_min":-9.5,"x_max":1003.09375,"ha":921,"o":"m 733 706 q 910 562 910 706 q 803 362 910 443 q 597 279 708 290 q 592 217 592 249 q 626 127 592 155 q 695 99 659 99 q 833 153 760 99 q 940 283 906 207 l 1003 283 q 736 24 896 90 q 609 0 678 0 q 607 0 608 0 q 492 33 539 0 q 423 120 445 67 q 202 -8 332 -8 q 40 43 91 -8 q -9 221 -9 95 q 100 591 -9 460 q 355 708 199 708 q 461 674 425 708 q 511 590 496 641 q 733 706 596 706 m 419 554 q 360 626 413 626 q 276 580 312 626 q 185 339 211 495 q 174 221 174 273 q 201 147 174 168 q 264 126 228 126 q 367 210 328 126 q 416 394 400 278 q 372 413 385 394 q 358 451 358 432 q 375 515 358 488 q 419 554 392 543 m 608 345 q 763 412 698 345 q 828 555 828 478 q 803 625 828 604 q 772 633 794 633 q 724 607 750 633 q 608 345 649 531 "},"{":{"x_min":41.375,"x_max":531.734375,"ha":489,"o":"m 133 -172 q 251 -283 133 -283 l 238 -345 l 226 -345 q 125 -336 156 -345 q 67 -287 94 -326 q 41 -197 41 -248 q 61 -93 41 -145 q 109 13 82 -41 l 163 126 q 208 273 208 221 q 151 316 208 316 q 107 312 133 316 l 123 392 q 173 387 147 387 q 246 439 224 387 q 259 541 259 472 l 250 762 q 299 941 250 858 q 472 1041 358 1041 l 531 1041 l 519 972 q 425 960 446 972 q 393 935 404 948 q 342 848 355 894 q 328 744 330 801 l 337 507 q 282 352 333 395 q 298 295 298 333 q 279 211 298 257 l 210 62 q 133 -172 133 -96 "},"¼":{"x_min":96.984375,"x_max":912.890625,"ha":957,"o":"m 193 -229 l 559 1041 l 659 1041 l 293 -229 l 193 -229 m 668 1 l 715 208 l 519 208 q 549 275 529 238 q 636 518 636 438 q 630 563 636 541 q 693 546 666 563 q 720 493 720 529 q 638 314 720 419 q 602 262 617 288 l 727 262 l 792 548 l 912 563 l 843 262 l 895 262 l 878 208 l 830 208 l 783 1 l 668 1 m 96 312 l 204 780 l 127 780 l 137 815 q 257 834 210 815 q 341 873 304 853 l 213 312 l 96 312 "},"#":{"x_min":62.390625,"x_max":788.765625,"ha":916,"o":"m 547 153 l 505 -37 l 426 -37 l 461 153 l 297 153 l 255 -37 l 176 -37 l 210 153 l 62 153 l 91 295 l 236 295 l 265 453 l 123 453 l 152 594 l 290 594 l 362 996 l 484 996 l 394 594 l 540 594 l 612 996 l 734 996 l 644 594 l 788 594 l 760 453 l 613 453 l 579 295 l 727 295 l 699 153 l 547 153 m 515 453 l 364 453 l 328 295 l 486 295 l 515 453 "},"Ĳ":{"x_min":8.140625,"x_max":934.59375,"ha":921,"o":"m 379 -287 q 155 -89 155 -287 q 177 0 155 -41 l 130 0 l 331 943 q 137 640 137 862 q 153 555 137 583 q 156 545 156 550 q 17 617 45 545 q 8 680 8 642 q 51 815 8 750 q 164 930 95 880 q 495 1041 322 1041 q 551 1039 524 1041 l 347 80 q 412 53 383 75 q 440 -8 440 32 q 430 -54 440 -27 q 361 -22 398 -22 q 298 -52 324 -22 q 271 -112 271 -82 q 298 -191 271 -164 q 370 -218 325 -218 q 446 -181 415 -218 q 498 -47 478 -144 l 726 995 l 934 1041 l 726 55 q 379 -287 655 -287 "},"Ê":{"x_min":9.5,"x_max":687.71875,"ha":638,"o":"m 266 579 q 181 749 181 640 q 269 951 181 857 q 486 1044 358 1044 q 628 999 572 1044 q 685 881 685 954 q 654 767 685 808 q 583 726 623 726 q 516 763 543 726 q 559 809 541 773 q 577 886 577 846 q 553 944 577 927 q 499 962 528 962 q 400 902 440 962 q 359 766 359 842 q 435 609 359 661 q 499 580 462 590 q 322 453 394 557 q 251 248 251 349 q 282 149 251 190 q 382 108 312 108 q 527 145 452 108 q 640 250 602 183 l 672 236 q 504 45 617 115 q 265 -25 392 -25 q 73 45 138 -25 q 9 225 9 115 q 80 442 9 335 q 266 579 151 550 m 643 1126 l 560 1237 l 341 1126 l 280 1126 l 575 1389 l 604 1389 l 687 1126 l 643 1126 "},"Џ":{"x_min":16.953125,"x_max":963.75,"ha":924,"o":"m 278 -287 l 340 0 l 139 0 l 340 944 q 197 828 248 905 q 145 640 145 752 q 162 555 145 585 q 165 545 165 550 q 26 617 52 545 q 16 680 16 642 q 61 815 16 750 q 329 1011 149 947 q 503 1041 415 1041 q 559 1039 532 1041 l 359 103 l 563 103 l 763 1039 l 963 1039 l 743 0 l 540 0 l 479 -287 l 278 -287 "},")":{"x_min":-40.015625,"x_max":430.671875,"ha":574,"o":"m 328 592 q 227 1001 328 849 l 273 1041 q 392 824 354 952 q 430 558 430 697 q 307 16 430 271 q 164 -202 248 -106 q -22 -347 80 -297 l -40 -291 q 104 -160 37 -252 q 300 316 241 22 q 328 592 328 457 "},"э":{"x_min":-51.546875,"x_max":539.1875,"ha":595,"o":"m 330 416 q 333 469 333 451 q 306 565 333 540 q 227 590 278 590 q 147 567 177 590 q 92 499 118 544 l 22 499 q 129 654 64 602 q 304 706 195 706 q 476 652 413 706 q 539 479 539 597 q 446 177 539 328 q 126 -8 333 -8 q -5 31 41 -8 q -51 147 -51 70 q -1 248 -51 224 q 35 255 12 255 q 80 236 59 255 q 62 141 62 185 q 139 65 62 65 q 245 144 196 65 q 318 333 295 223 l 145 333 l 164 416 l 330 416 "},"Å":{"x_min":12.203125,"x_max":961.046875,"ha":928,"o":"m 297 47 q 283 -79 283 -26 q 302 -158 283 -131 q 187 -141 220 -158 q 116 -10 116 -105 q 237 393 116 132 q 320 554 275 474 q 213 534 255 550 q 158 482 172 518 q 170 468 164 482 q 176 434 176 454 q 153 399 176 413 q 105 384 130 384 q 36 405 60 384 q 12 463 12 427 q 92 585 12 535 q 295 636 174 636 q 368 632 323 636 q 607 925 480 809 q 851 1041 733 1041 q 961 1022 921 1041 l 743 0 l 543 0 l 649 503 q 463 554 557 545 q 297 47 339 278 m 493 613 q 662 565 590 594 l 743 943 q 493 613 623 878 m 673 1200 q 737 1324 673 1287 q 801 1337 759 1337 q 867 1305 843 1337 q 891 1229 891 1274 q 864 1149 891 1184 q 781 1113 836 1113 q 699 1142 726 1113 q 673 1200 673 1170 m 776 1162 q 840 1226 840 1162 q 819 1285 840 1271 q 794 1292 810 1292 q 744 1266 758 1292 q 729 1214 729 1240 q 776 1162 729 1162 "},"ш":{"x_min":-10.859375,"x_max":1102.796875,"ha":1044,"o":"m 533 183 q 575 126 533 126 q 686 248 648 126 l 780 694 l 980 694 l 880 222 q 874 172 874 197 q 931 126 874 126 q 1044 248 1009 126 l 1102 248 q 823 -8 1013 -8 q 686 123 699 -8 q 480 -8 604 -8 q 343 123 356 -8 q 137 -8 261 -8 q 31 31 75 -8 q -10 158 -10 70 q 0 248 -10 197 l 94 694 l 294 694 l 194 222 q 190 183 190 200 q 231 126 190 126 q 343 248 305 126 l 437 694 l 637 694 l 537 222 q 533 183 533 202 "},"Я":{"x_min":-63.75,"x_max":961.046875,"ha":875,"o":"m 262 514 q 153 712 153 573 q 277 946 153 851 q 615 1041 400 1041 q 862 980 763 1041 q 961 816 961 918 q 876 691 961 714 q 815 685 849 685 l 825 714 q 833 784 833 735 q 779 927 833 881 q 630 972 725 972 q 382 898 464 972 q 299 722 299 824 q 347 572 299 621 q 454 523 394 523 l 455 523 l 533 883 l 739 910 l 544 0 l 344 0 l 442 463 q 358 447 386 460 q 309 413 330 434 q 273 356 287 392 q 249 277 259 320 q 231 189 239 233 q 216 113 223 145 q 174 11 202 46 q 75 -23 146 -23 q -63 0 5 -23 q 8 60 -13 26 q 44 153 31 94 l 76 307 q 140 453 96 407 q 262 514 183 499 "},"¸":{"x_min":0,"x_max":315.375,"ha":315,"o":"m 0 -263 q 51 -219 25 -219 q 113 -238 87 -219 q 158 -257 139 -257 q 188 -239 176 -257 q 200 -200 200 -221 q 187 -163 200 -179 q 141 -148 174 -148 q 73 -165 107 -148 l 147 40 l 196 8 l 155 -91 q 229 -80 198 -80 q 315 -150 315 -80 q 264 -261 315 -220 q 155 -302 214 -302 q 71 -294 96 -302 q 31 -278 46 -285 l 0 -263 "},"a":{"x_min":-18.3125,"x_max":788.765625,"ha":730,"o":"m 788 248 q 510 -8 700 -8 q 373 119 387 -8 q 161 -8 282 -8 q -2 110 40 -8 q -18 207 -18 153 q -8 317 -18 262 q 20 425 0 371 q 144 623 63 545 q 339 701 225 701 q 425 681 398 701 q 451 630 451 661 l 451 620 l 466 694 l 666 694 l 567 222 q 560 177 560 198 q 617 118 560 118 q 730 248 691 118 l 788 248 m 438 562 q 426 595 438 575 q 376 615 415 615 q 301 573 337 615 q 190 287 212 474 q 187 227 187 259 q 212 141 187 165 q 250 126 227 126 q 325 159 291 126 q 372 248 359 191 l 438 562 "},"Ę":{"x_min":15.59375,"x_max":693.140625,"ha":638,"o":"m 693 855 q 596 727 693 727 q 516 763 547 727 q 558 810 539 771 q 577 868 577 849 q 486 980 577 980 q 364 930 412 980 q 316 814 316 880 q 358 687 316 749 q 499 580 401 625 q 316 454 375 528 q 258 303 258 381 q 306 170 258 225 q 427 116 354 116 q 552 150 501 116 q 640 250 602 183 l 672 236 q 578 94 644 153 q 522 49 550 69 q 472 6 495 29 q 422 -116 422 -44 q 434 -163 422 -140 q 474 -185 446 -185 q 525 -168 501 -185 l 571 -139 q 568 -181 568 -163 l 540 -208 q 422 -267 480 -267 q 335 -234 363 -267 q 307 -161 307 -201 q 406 1 307 -77 q 295 -8 360 -8 q 91 73 166 -8 q 15 267 15 155 q 81 466 15 378 q 266 579 147 554 q 128 790 128 653 q 212 966 128 890 q 437 1041 297 1041 q 618 995 543 1041 q 693 855 693 948 "},"=":{"x_min":44.765625,"x_max":649.734375,"ha":716,"o":"m 105 438 l 139 594 l 649 594 l 617 438 l 105 438 m 44 140 l 78 295 l 588 295 l 556 140 l 44 140 "},"Ћ":{"x_min":16.953125,"x_max":1007.15625,"ha":1035,"o":"m 714 425 q 636 522 714 522 q 530 484 583 522 l 426 0 l 226 0 l 423 919 l 406 919 q 221 862 284 919 q 145 638 145 794 q 162 554 145 583 q 165 544 165 548 q 26 615 52 544 q 16 695 16 641 q 42 813 16 748 q 124 929 68 878 q 490 1040 249 1040 q 646 1030 588 1040 q 747 1014 704 1020 q 863 1008 790 1008 q 1007 1037 935 1008 q 961 903 1004 945 q 844 861 917 861 q 617 891 770 861 l 550 577 q 744 630 632 630 q 895 520 856 630 q 909 420 909 483 q 882 246 909 356 q 854 97 854 137 q 908 0 854 21 q 762 -23 821 -23 q 654 69 654 -23 q 694 287 654 121 q 701 321 697 303 l 707 360 q 714 425 714 402 "},"˚":{"x_min":0,"x_max":218.390625,"ha":216,"o":"m 0 853 q 63 977 0 940 q 127 990 86 990 q 193 958 169 990 q 218 882 218 927 q 190 802 218 837 q 108 766 163 766 q 26 794 52 766 q 0 853 0 823 m 103 815 q 166 878 166 815 q 146 938 166 924 q 120 944 137 944 q 70 918 85 944 q 55 866 55 893 q 103 815 55 815 "},"ú":{"x_min":-10.859375,"x_max":759.609375,"ha":701,"o":"m 759 248 q 480 -8 671 -8 q 343 123 356 -8 q 137 -8 261 -8 q 31 31 75 -8 q -10 158 -10 70 q 0 248 -10 197 l 94 694 l 294 694 l 194 222 q 190 183 190 200 q 231 126 190 126 q 343 248 305 126 l 437 694 l 637 694 l 537 222 q 531 173 531 198 q 588 126 531 126 q 701 248 666 126 l 759 248 m 332 779 l 458 1041 l 604 1041 l 436 779 l 332 779 "},"д":{"x_min":-18.3125,"x_max":762.328125,"ha":704,"o":"m 333 67 q 166 -8 261 -8 q -2 110 40 -8 q -18 207 -18 153 q -8 317 -18 262 q 20 425 0 371 q 144 623 63 545 q 339 701 225 701 q 425 681 398 701 q 451 630 451 661 l 451 622 l 466 694 l 666 694 l 529 50 q 633 114 592 71 q 704 248 674 157 l 762 248 q 583 12 709 69 q 516 -10 548 -2 l 495 -111 q 389 -303 469 -244 q 256 -347 331 -347 q 135 -314 181 -347 q 90 -207 90 -280 q 316 -5 90 -80 l 333 67 m 438 563 q 409 609 438 594 q 381 615 398 615 q 301 573 337 615 q 190 287 212 474 q 187 227 187 259 q 212 141 187 165 q 249 126 227 126 q 321 155 288 126 q 368 234 354 185 l 438 563 m 302 -75 q 166 -193 166 -124 q 193 -234 166 -221 q 219 -238 202 -238 q 258 -208 236 -238 q 294 -115 280 -178 l 302 -75 "},"Z":{"x_min":15.59375,"x_max":766.390625,"ha":753,"o":"m 287 90 l 421 87 q 510 92 469 87 q 565 118 550 97 q 549 127 558 118 q 540 160 540 136 q 565 221 540 201 q 626 241 590 241 q 678 215 662 241 q 694 162 694 189 q 644 51 694 103 q 516 0 594 0 l 15 0 l 501 966 l 376 969 q 248 938 248 969 q 263 929 255 938 q 271 895 271 919 q 246 834 271 853 q 185 815 221 815 q 134 841 149 815 q 119 895 119 867 q 164 997 119 953 q 290 1041 210 1041 l 766 1041 l 287 90 "},"u":{"x_min":-10.859375,"x_max":759.609375,"ha":701,"o":"m 759 248 q 480 -8 671 -8 q 343 123 356 -8 q 137 -8 261 -8 q 31 31 75 -8 q -10 158 -10 70 q 0 248 -10 197 l 94 694 l 294 694 l 194 222 q 190 183 190 200 q 231 126 190 126 q 343 248 305 126 l 437 694 l 637 694 l 537 222 q 531 173 531 198 q 588 126 531 126 q 701 248 666 126 l 759 248 "},"k":{"x_min":-52.90625,"x_max":777.921875,"ha":720,"o":"m 777 248 q 522 -8 691 -8 q 391 32 435 -8 q 347 149 347 73 q 355 222 347 181 l 366 276 q 372 327 372 305 q 322 394 372 394 q 219 343 282 394 l 147 0 l -52 0 l 148 944 l 354 972 l 250 483 l 518 694 l 655 694 l 377 501 q 423 507 402 507 q 538 459 500 507 q 576 344 576 411 q 571 291 576 320 l 555 222 q 548 177 548 193 q 604 126 548 126 q 697 199 661 126 q 719 248 708 221 l 777 248 "},"Ù":{"x_min":0,"x_max":1057.34375,"ha":999,"o":"m 861 1039 l 1057 1039 l 965 605 q 856 225 912 347 q 678 27 790 79 q 503 -9 598 -9 q 357 5 408 -9 q 274 47 305 19 q 215 208 215 101 q 249 457 215 315 l 375 961 q 194 849 260 930 q 128 641 128 769 q 145 554 128 582 q 148 545 148 550 q 10 613 38 545 q 0 673 0 638 q 44 813 0 747 q 328 1011 137 951 q 524 1041 424 1041 q 591 1034 555 1041 l 449 507 q 404 261 404 331 q 425 159 404 191 q 507 126 446 126 q 594 146 567 126 q 680 281 644 183 q 768 609 717 379 l 861 1039 m 651 1126 l 569 1389 l 715 1389 l 756 1126 l 651 1126 "},"З":{"x_min":-13.5625,"x_max":687.71875,"ha":729,"o":"m 124 153 q 245 59 124 59 q 320 84 283 59 q 381 150 356 109 q 432 348 432 233 q 340 512 432 483 q 271 522 310 522 l 213 522 l 236 625 l 286 625 q 426 695 373 626 q 479 828 479 765 q 370 948 479 948 q 158 788 240 948 l 126 803 q 241 979 156 918 q 445 1040 325 1040 q 627 980 566 1040 q 687 820 687 920 q 567 619 687 694 q 479 579 528 595 q 658 361 658 526 q 545 85 658 196 q 245 -25 432 -25 q 57 22 128 -25 q -13 165 -13 69 q 18 256 -13 222 q 91 290 51 290 q 148 280 130 290 q 176 254 165 270 q 124 153 124 223 "},"¢":{"x_min":42.734375,"x_max":530.375,"ha":560,"o":"m 287 297 q 308 295 294 295 q 396 317 364 295 q 491 389 455 357 q 422 253 476 302 q 266 201 369 205 l 213 -37 l 176 -37 l 219 202 q 92 275 142 214 q 42 438 42 336 q 119 696 42 586 q 331 826 196 807 l 362 996 l 442 996 l 405 828 q 519 775 491 823 q 530 734 530 758 q 523 687 530 710 l 444 687 q 451 726 451 714 q 400 773 451 773 l 393 773 l 287 297 m 316 741 q 198 529 229 672 q 189 455 189 485 q 240 318 189 355 l 316 741 "},"é":{"x_min":-18.3125,"x_max":580.5625,"ha":533,"o":"m 580 248 q 198 -8 424 -8 q 40 43 99 -8 q -18 212 -18 94 q 62 519 -18 370 q 230 680 124 632 q 344 706 285 706 q 475 670 440 706 q 510 573 510 634 q 414 372 510 455 q 190 280 318 288 q 187 225 187 241 q 212 131 187 153 q 282 108 237 108 q 417 144 362 108 q 533 248 472 179 l 580 248 m 402 583 q 368 633 402 633 q 269 543 317 632 q 201 347 222 455 q 342 421 281 352 q 402 583 402 491 m 269 779 l 396 1041 l 541 1041 l 373 779 l 269 779 "},"B":{"x_min":16.953125,"x_max":841.671875,"ha":891,"o":"m 648 359 q 516 536 648 536 q 453 531 486 536 l 339 0 l 139 0 l 327 883 l 533 910 l 467 602 l 476 602 q 616 674 556 602 q 676 828 676 746 q 577 965 676 929 q 497 978 542 978 q 410 968 452 978 q 330 941 368 959 q 196 823 246 900 q 145 640 145 747 q 162 555 145 585 q 165 545 165 550 q 27 613 55 545 q 16 673 16 638 q 58 812 16 746 q 169 929 99 877 q 520 1041 324 1041 q 741 977 666 1041 q 816 820 816 913 q 781 698 816 758 q 677 600 746 638 q 801 522 761 583 q 841 376 841 461 q 827 257 841 326 q 683 19 794 104 q 536 -23 626 -23 q 413 27 446 -23 q 400 80 400 47 q 417 160 400 113 q 507 109 464 109 q 617 195 580 109 q 648 359 648 264 "},"…":{"x_min":42.734375,"x_max":930.515625,"ha":975,"o":"m 231 182 q 263 103 263 149 q 230 26 263 57 q 152 -5 198 -5 q 74 26 107 -5 q 42 103 42 58 q 74 182 42 149 q 152 215 107 215 q 231 182 198 215 m 557 182 q 590 103 590 149 q 557 26 590 57 q 478 -5 524 -5 q 401 26 433 -5 q 369 103 369 58 q 401 182 369 149 q 478 215 432 215 q 557 182 524 215 m 897 182 q 930 103 930 149 q 897 26 930 57 q 819 -5 864 -5 q 741 26 773 -5 q 710 103 710 58 q 741 182 710 149 q 819 215 773 215 q 897 182 865 215 "},"В":{"x_min":16.953125,"x_max":841.671875,"ha":891,"o":"m 648 359 q 516 536 648 536 q 453 531 486 536 l 339 0 l 139 0 l 327 883 l 533 910 l 467 602 l 476 602 q 616 674 556 602 q 676 828 676 746 q 577 965 676 929 q 497 978 542 978 q 410 968 452 978 q 330 941 368 959 q 196 823 246 900 q 145 640 145 747 q 162 555 145 585 q 165 545 165 550 q 27 613 55 545 q 16 673 16 638 q 58 812 16 746 q 169 929 99 877 q 520 1041 324 1041 q 741 977 666 1041 q 816 820 816 913 q 781 698 816 758 q 677 600 746 638 q 801 522 761 583 q 841 376 841 461 q 827 257 841 326 q 683 19 794 104 q 536 -23 626 -23 q 413 27 446 -23 q 400 80 400 47 q 417 160 400 113 q 507 109 464 109 q 617 195 580 109 q 648 359 648 264 "},"І":{"x_min":16.953125,"x_max":559.53125,"ha":520,"o":"m 139 0 l 340 943 q 197 829 248 905 q 145 640 145 752 q 162 555 145 585 q 165 545 165 550 q 26 617 52 545 q 16 680 16 642 q 61 815 16 750 q 329 1011 149 947 q 503 1041 415 1041 q 559 1039 532 1041 l 339 0 l 139 0 "},"H":{"x_min":16.953125,"x_max":963.75,"ha":924,"o":"m 543 0 l 654 522 l 450 522 l 339 0 l 139 0 l 340 944 q 197 828 248 905 q 145 640 145 752 q 162 555 145 585 q 165 545 165 550 q 26 617 52 545 q 16 680 16 642 q 61 815 16 750 q 329 1011 149 947 q 503 1041 415 1041 q 559 1039 532 1041 l 470 625 l 674 625 l 763 1039 l 963 1039 l 743 0 l 543 0 "},"î":{"x_min":-10.859375,"x_max":429.3125,"ha":371,"o":"m 429 248 q 130 -8 339 -8 q 31 31 75 -8 q -10 158 -10 70 q 0 248 -10 197 l 94 694 l 294 694 l 194 222 q 189 172 189 197 q 245 126 189 126 q 321 161 286 126 q 370 248 356 196 l 429 248 m 370 779 l 287 890 l 69 779 l 8 779 l 302 1041 l 331 1041 l 415 779 l 370 779 "},"":{"x_min":507.3125,"x_max":980.703125,"ha":979,"o":"m 600 1332 q 686 1252 686 1332 q 653 1190 686 1212 q 704 1184 674 1184 q 823 1219 770 1184 q 922 1347 889 1260 l 980 1347 q 776 1121 915 1158 q 687 1110 733 1110 q 554 1143 600 1110 q 507 1225 507 1175 q 532 1303 507 1275 q 600 1332 556 1332 "},"−":{"x_min":26.453125,"x_max":537.828125,"ha":617,"o":"m 26 308 l 51 417 l 537 417 l 514 308 l 26 308 "},"¥":{"x_min":26.453125,"x_max":708.0625,"ha":659,"o":"m 385 197 l 344 0 l 122 0 l 164 197 l 26 197 l 46 266 l 179 266 l 198 356 l 61 356 l 80 426 l 213 426 l 213 427 l 58 1041 l 286 1041 l 408 540 l 616 1041 l 708 1041 l 436 427 l 436 426 l 617 426 l 598 356 l 421 356 l 401 266 l 583 266 l 563 197 l 385 197 "},"U":{"x_min":0,"x_max":1057.34375,"ha":994,"o":"m 861 1039 l 1057 1039 l 965 605 q 856 225 912 347 q 678 27 790 79 q 503 -9 598 -9 q 357 5 408 -9 q 274 47 305 19 q 215 208 215 101 q 249 457 215 315 l 375 961 q 194 849 260 930 q 128 641 128 769 q 145 554 128 582 q 148 545 148 550 q 10 613 38 545 q 0 673 0 638 q 44 813 0 747 q 328 1011 137 951 q 524 1041 424 1041 q 591 1034 555 1041 l 449 507 q 404 261 404 331 q 425 159 404 191 q 507 126 446 126 q 594 146 567 126 q 680 281 644 183 q 768 609 717 379 l 861 1039 "},"Ñ":{"x_min":8.140625,"x_max":991.5625,"ha":953,"o":"m 602 0 l 484 726 l 330 0 l 130 0 l 330 943 q 187 828 238 904 q 137 640 137 752 q 153 555 137 583 q 156 545 156 550 q 17 617 45 545 q 8 681 8 642 q 20 763 8 720 q 56 845 33 805 q 198 987 108 932 q 401 1041 287 1041 q 466 1039 434 1041 q 530 1022 499 1037 l 640 286 l 791 1039 l 991 1039 l 771 0 l 602 0 m 976 1277 l 984 1276 q 905 1181 973 1226 q 760 1137 836 1137 q 662 1155 714 1137 q 583 1180 611 1172 q 527 1188 556 1188 q 436 1152 475 1188 l 427 1155 q 659 1292 495 1292 q 760 1276 713 1292 q 833 1253 807 1260 q 901 1245 859 1245 q 976 1277 943 1245 "},"F":{"x_min":12.203125,"x_max":841.671875,"ha":638,"o":"m 710 874 q 515 901 634 874 l 457 625 l 659 625 l 637 522 l 434 522 l 322 0 l 122 0 l 322 927 q 187 861 233 925 q 141 640 141 798 q 158 555 141 585 q 161 545 161 550 q 21 617 49 545 q 12 696 12 642 q 37 815 12 750 q 120 930 63 880 q 486 1041 246 1041 q 590 1033 531 1041 q 719 1024 649 1024 q 841 1041 789 1024 l 828 994 q 710 874 803 895 "},"*":{"x_min":119.375,"x_max":588.703125,"ha":716,"o":"m 398 710 l 398 522 l 309 522 l 309 710 l 161 623 l 119 695 l 270 783 l 119 870 l 161 943 l 309 857 l 309 1044 l 398 1044 l 398 857 l 547 943 l 588 870 l 437 783 l 588 695 l 547 623 l 398 710 "},"†":{"x_min":94.265625,"x_max":638.890625,"ha":688,"o":"m 130 -347 l 297 438 l 94 438 l 127 594 l 328 594 l 425 1041 l 524 1041 l 429 594 l 638 594 l 607 438 l 397 438 l 230 -347 l 130 -347 "},"Ќ":{"x_min":16.953125,"x_max":946.125,"ha":882,"o":"m 622 -23 q 505 65 505 -23 q 542 248 505 120 q 579 434 578 376 q 495 529 579 529 q 450 523 477 529 l 339 0 l 139 0 l 340 944 q 197 828 248 905 q 145 640 145 752 q 162 555 145 585 q 165 545 165 550 q 26 617 52 545 q 16 680 16 642 q 61 815 16 750 q 329 1011 149 947 q 503 1041 415 1041 q 559 1039 532 1041 l 470 623 q 593 862 514 748 q 732 1008 672 975 q 839 1041 792 1041 q 908 1024 886 1041 q 946 957 946 993 q 919 874 946 898 q 855 851 892 851 q 773 906 796 851 q 534 590 642 828 q 565 591 551 591 l 592 591 q 756 501 731 591 q 765 437 765 474 q 731 257 765 381 q 697 96 697 134 q 751 0 697 20 q 622 -23 664 -23 m 585 1126 l 712 1389 l 857 1389 l 689 1126 l 585 1126 "},"°":{"x_min":51.546875,"x_max":389.984375,"ha":436,"o":"m 180 519 q 79 558 107 519 q 51 667 51 596 q 112 889 51 804 q 276 975 173 975 q 363 934 337 975 q 389 806 389 894 q 334 618 389 717 q 180 519 278 519 m 202 873 q 168 799 185 847 q 151 689 151 752 q 158 598 151 626 q 190 571 164 571 q 274 650 241 571 q 307 838 307 730 q 300 901 307 876 q 271 926 294 926 q 202 873 238 926 "},"å":{"x_min":-18.3125,"x_max":788.765625,"ha":730,"o":"m 788 248 q 510 -8 700 -8 q 373 119 387 -8 q 161 -8 282 -8 q -2 110 40 -8 q -18 207 -18 153 q -8 317 -18 262 q 20 425 0 371 q 144 623 63 545 q 339 701 225 701 q 425 681 398 701 q 451 630 451 661 l 451 620 l 466 694 l 666 694 l 567 222 q 560 177 560 198 q 617 118 560 118 q 730 248 691 118 l 788 248 m 438 562 q 426 595 438 575 q 376 615 415 615 q 301 573 337 615 q 190 287 212 474 q 187 227 187 259 q 212 141 187 165 q 250 126 227 126 q 325 159 291 126 q 372 248 359 191 l 438 562 m 324 853 q 388 977 324 940 q 452 990 411 990 q 518 958 494 990 q 543 882 543 927 q 515 802 543 837 q 433 766 488 766 q 351 794 377 766 q 324 853 324 823 m 427 815 q 491 878 491 815 q 471 938 491 924 q 445 944 461 944 q 395 918 410 944 q 380 866 380 893 q 427 815 380 815 "},"0":{"x_min":41.375,"x_max":771.140625,"ha":758,"o":"m 523 1041 q 771 688 771 1041 q 656 229 771 444 q 320 -12 527 -12 q 94 83 160 -12 q 41 329 41 163 q 240 923 41 728 q 523 1041 360 1041 m 254 314 q 336 104 254 104 q 442 162 396 104 q 571 528 533 276 q 588 729 588 647 q 576 911 588 868 q 515 969 559 969 q 416 904 470 969 q 282 598 325 794 q 254 314 254 476 "},"”":{"x_min":105.796875,"x_max":601.578125,"ha":707,"o":"m 183 830 q 166 854 183 843 q 105 935 105 889 q 134 1010 105 982 q 207 1039 164 1039 q 272 1013 250 1039 q 295 940 295 988 q 251 829 295 892 q 127 714 207 765 q 115 733 115 720 l 183 830 m 489 830 q 472 854 489 843 q 411 935 411 889 q 440 1010 411 982 q 512 1039 469 1039 q 578 1013 555 1039 q 601 940 601 988 q 557 829 601 892 q 433 714 513 765 q 421 733 421 720 l 489 830 "},"ö":{"x_min":-27.125,"x_max":773.171875,"ha":602,"o":"m 773 527 q 526 412 689 439 q 417 108 510 222 q 195 -5 324 -5 q -10 112 35 -5 q -27 204 -27 153 q -18 306 -27 254 q 8 413 -10 358 q 128 614 49 537 q 353 706 221 706 q 531 484 531 706 l 531 483 q 554 482 538 482 q 650 505 592 482 q 760 565 709 529 l 773 527 m 411 408 q 374 470 374 417 q 417 541 374 522 q 403 604 415 585 q 360 622 392 622 q 238 481 296 622 q 179 231 179 341 q 191 146 179 164 q 217 124 204 128 q 253 119 231 119 q 348 202 301 119 q 411 408 395 286 m 290 819 q 238 796 264 796 q 169 820 193 796 q 145 879 145 844 q 169 940 145 914 q 229 965 193 965 q 290 940 265 965 q 315 879 315 915 q 290 819 315 844 m 539 819 q 488 796 514 796 q 419 819 444 796 q 395 879 395 843 q 419 940 395 915 q 479 965 444 965 q 539 940 514 965 q 564 879 564 915 q 539 819 564 844 "},"Õ":{"x_min":22.375,"x_max":937.296875,"ha":914,"o":"m 581 1041 q 910 686 910 1041 q 790 238 910 446 q 562 24 705 88 q 416 -8 489 -8 q 298 6 343 -8 q 149 270 149 56 q 203 575 149 413 q 438 903 288 835 q 523 922 479 922 q 598 910 568 922 q 479 756 538 874 q 364 382 394 588 q 355 265 355 318 q 436 104 355 104 q 437 104 436 104 q 571 202 504 104 q 682 448 638 299 q 726 730 726 597 q 689 921 726 864 q 548 978 653 978 q 265 879 381 978 q 148 620 148 780 q 155 566 148 579 q 162 545 162 553 q 58 572 94 545 q 22 666 22 598 q 68 803 22 734 q 371 1010 166 946 q 581 1041 473 1041 m 929 1277 l 937 1276 q 857 1181 925 1226 q 713 1137 789 1137 q 615 1155 666 1137 q 536 1180 563 1172 q 480 1188 509 1188 q 388 1152 427 1188 l 380 1155 q 612 1292 447 1292 q 713 1276 666 1292 q 786 1253 760 1260 q 853 1245 811 1245 q 929 1277 895 1245 "},"№":{"x_min":16.953125,"x_max":1355.765625,"ha":1384,"o":"m 611 0 l 493 726 l 339 0 l 139 0 l 339 943 q 196 828 246 904 q 145 640 145 752 q 162 555 145 585 q 165 545 165 550 q 26 617 52 545 q 16 681 16 642 q 29 763 16 720 q 65 845 42 805 q 206 987 117 932 q 409 1041 295 1041 q 475 1039 442 1041 q 539 1022 508 1037 l 648 286 l 800 1039 l 1000 1039 l 779 0 l 611 0 m 1132 476 q 1042 507 1081 476 q 1004 612 1004 538 q 1015 701 1004 648 q 1127 883 1042 819 q 1239 916 1173 916 q 1355 781 1355 916 q 1293 560 1355 645 q 1132 476 1230 476 m 937 308 l 962 417 l 1323 417 l 1300 308 l 937 308 m 1173 552 q 1247 625 1215 552 q 1279 794 1279 698 q 1272 846 1279 829 q 1247 864 1265 864 q 1216 852 1230 864 q 1189 820 1201 840 q 1148 725 1165 783 q 1131 626 1131 668 q 1141 569 1131 585 q 1173 552 1151 552 "},"ć":{"x_min":-18.3125,"x_max":611.078125,"ha":533,"o":"m 343 706 q 510 580 510 706 q 488 502 510 527 q 439 478 466 478 q 387 494 412 478 q 404 576 404 539 q 364 633 404 633 q 280 561 324 633 q 193 308 217 459 q 187 208 187 263 q 282 108 187 108 q 417 144 362 108 q 533 248 472 179 l 580 248 q 198 -8 424 -8 q 40 43 99 -8 q -18 212 -18 94 q 62 520 -18 371 q 229 680 123 632 q 343 706 284 706 m 339 779 l 465 1041 l 611 1041 l 442 779 l 339 779 "},"þ":{"x_min":-127.5,"x_max":615.140625,"ha":657,"o":"m 153 42 l 82 -297 l -127 -347 l 88 673 q 105 803 105 747 q 46 972 105 893 l 108 972 q 223 885 194 921 q 283 705 283 811 q 278 637 283 676 q 445 701 346 701 q 602 585 565 701 q 615 489 615 543 q 608 380 615 434 q 586 270 602 325 q 545 166 571 216 q 482 76 520 115 q 392 14 444 37 q 261 -8 340 -8 q 153 42 183 -8 m 425 486 q 355 601 425 601 q 304 583 331 601 q 258 529 278 565 l 176 147 q 236 112 187 112 q 321 151 284 112 q 415 373 394 229 q 425 486 425 436 "},"]":{"x_min":-33.234375,"x_max":529.015625,"ha":555,"o":"m -33 -347 l -15 -261 l 152 -261 l 411 955 l 242 955 l 261 1041 l 529 1041 l 234 -347 l -33 -347 "},"А":{"x_min":-13.5625,"x_max":934.59375,"ha":895,"o":"m 270 47 q 257 -79 257 -26 q 276 -158 257 -132 q 160 -141 193 -158 q 90 -10 90 -105 q 211 393 90 132 q 294 554 248 474 q 187 534 229 550 q 132 482 145 518 q 143 468 137 482 q 149 434 149 454 q 127 399 149 413 q 70 384 104 384 q 11 404 35 384 q -13 462 -13 425 q 66 585 -13 535 q 269 636 147 636 q 341 632 297 636 q 701 1009 521 916 q 828 1041 764 1041 q 934 1022 891 1041 l 716 0 l 516 0 l 623 503 q 437 554 530 545 q 270 47 312 278 m 466 613 q 636 565 560 596 l 716 943 q 466 613 597 878 "},"Ы":{"x_min":16.953125,"x_max":1302.859375,"ha":1263,"o":"m 647 352 q 515 523 647 523 q 446 508 478 523 l 339 0 l 139 0 l 340 944 q 197 828 248 905 q 145 640 145 752 q 162 555 145 585 q 165 545 165 550 q 26 617 52 545 q 16 680 16 642 q 61 815 16 750 q 329 1011 149 947 q 503 1041 415 1041 q 559 1039 532 1041 l 462 580 q 606 605 545 605 q 780 535 720 605 q 840 348 840 465 q 823 231 840 295 q 770 110 807 168 q 678 14 734 53 q 558 -23 621 -23 q 417 31 451 -23 q 401 90 401 58 q 416 160 401 122 q 501 109 455 109 q 574 132 548 109 q 623 207 600 155 q 647 352 647 258 m 881 0 l 1102 1039 l 1302 1039 l 1081 0 l 881 0 "},"8":{"x_min":-10.859375,"x_max":693.140625,"ha":693,"o":"m 360 531 q 200 305 236 446 q 190 230 190 263 q 216 129 190 166 q 282 92 241 92 q 402 163 356 92 q 448 326 448 233 q 360 531 448 455 m 238 579 q 120 768 120 647 q 209 956 120 872 q 426 1040 297 1040 q 624 982 555 1040 q 693 846 693 925 q 644 697 693 768 q 498 579 596 627 q 626 492 586 552 q 666 376 666 432 q 653 276 666 320 q 617 191 640 232 q 477 48 564 103 q 282 -6 389 -6 q 67 75 145 -6 q -10 266 -10 158 q 53 459 -10 374 q 238 579 118 543 m 376 626 q 507 812 474 690 q 516 882 516 846 q 499 946 516 918 q 447 973 482 973 q 342 919 382 973 q 302 805 302 864 q 376 626 302 691 "},"R":{"x_min":8.140625,"x_max":811.15625,"ha":835,"o":"m 661 581 q 756 445 756 554 q 722 257 756 381 q 689 96 689 134 q 743 0 689 20 q 605 -23 656 -23 q 497 69 497 -23 q 534 247 497 118 q 571 434 570 376 q 487 529 571 529 q 441 523 470 529 l 330 0 l 130 0 l 319 883 l 524 910 l 457 590 l 467 590 q 608 668 550 590 q 665 839 665 746 q 581 965 665 931 q 491 978 553 978 q 359 954 428 978 q 241 888 290 931 q 137 640 137 796 q 153 555 137 583 q 156 545 156 550 q 17 617 45 545 q 8 680 8 642 q 51 815 8 750 q 164 930 95 880 q 486 1041 322 1041 q 730 977 650 1041 q 811 819 811 913 q 772 690 811 754 q 661 581 733 625 "},"Ż":{"x_min":15.59375,"x_max":766.390625,"ha":736,"o":"m 507 1143 q 421 1193 442 1143 q 415 1236 415 1209 q 439 1287 415 1262 q 499 1312 463 1312 q 559 1287 534 1312 q 584 1227 584 1262 q 559 1167 584 1191 q 507 1143 533 1143 m 287 90 l 421 87 q 510 92 469 87 q 565 118 550 97 q 549 127 558 118 q 540 160 540 136 q 565 221 540 201 q 626 241 590 241 q 678 215 662 241 q 694 162 694 189 q 644 51 694 103 q 516 0 594 0 l 15 0 l 501 966 l 376 969 q 248 938 248 969 q 263 929 255 938 q 271 895 271 919 q 246 834 271 853 q 185 815 221 815 q 134 841 149 815 q 119 895 119 867 q 164 997 119 953 q 290 1041 210 1041 l 766 1041 l 287 90 "},"o":{"x_min":-19.671875,"x_max":780.640625,"ha":610,"o":"m 780 527 q 534 412 696 439 q 425 108 518 222 q 202 -5 332 -5 q -3 112 42 -5 q -19 204 -19 153 q -11 306 -19 254 q 15 413 -2 358 q 135 614 56 537 q 360 706 229 706 q 539 484 539 706 l 539 483 q 562 482 545 482 q 658 505 599 482 q 768 565 716 529 l 780 527 m 419 408 q 381 470 381 417 q 425 541 381 522 q 411 604 422 585 q 367 622 400 622 q 245 481 303 622 q 187 231 187 341 q 199 146 187 164 q 225 124 211 128 q 261 119 238 119 q 356 202 309 119 q 419 408 402 286 "},"5":{"x_min":21.03125,"x_max":697.21875,"ha":718,"o":"m 265 -6 q 21 193 21 -6 q 74 341 21 293 q 207 389 128 389 q 299 319 286 389 q 210 280 245 311 q 174 190 174 249 q 212 105 174 130 q 286 86 241 86 q 417 164 369 86 q 465 342 465 242 q 424 492 465 442 q 319 543 383 543 q 214 523 255 543 q 105 465 137 486 l 219 1019 q 288 1011 256 1015 l 352 1003 q 469 995 415 995 q 694 1040 580 995 q 697 990 697 1018 q 659 878 697 923 q 537 833 621 833 q 404 849 483 833 q 305 868 326 865 l 250 616 q 413 659 339 659 q 605 577 543 659 q 668 372 668 495 q 573 110 668 213 q 265 -6 464 -6 "},"Ѕ":{"x_min":0,"x_max":718.234375,"ha":754,"o":"m 540 763 q 598 848 583 788 q 602 892 602 866 q 580 948 602 919 q 499 976 558 976 q 406 945 440 976 q 372 862 372 913 q 385 781 372 811 q 470 671 409 726 l 529 619 q 631 507 604 552 q 685 324 685 417 q 570 61 685 151 q 294 -29 456 -29 q 23 100 92 -29 q 0 206 0 145 q 62 376 0 314 q 201 437 124 437 q 311 390 278 437 q 326 345 324 373 q 179 276 219 345 q 164 219 164 250 q 198 121 164 160 q 300 82 233 82 q 413 130 368 82 q 458 252 458 178 q 437 374 458 326 q 384 463 416 421 q 316 542 352 504 q 247 618 279 579 q 173 792 173 708 q 266 970 173 900 q 494 1041 358 1041 q 706 940 661 1041 q 718 863 718 912 q 687 773 718 813 q 611 734 657 734 q 540 763 565 734 "},"õ":{"x_min":-27.125,"x_max":773.171875,"ha":602,"o":"m 773 527 q 526 412 689 439 q 417 108 510 222 q 195 -5 324 -5 q -10 112 35 -5 q -27 204 -27 153 q -18 306 -27 254 q 8 413 -10 358 q 128 614 49 537 q 353 706 221 706 q 531 484 531 706 l 531 483 q 554 482 538 482 q 650 505 592 482 q 760 565 709 529 l 773 527 m 411 408 q 374 470 374 417 q 417 541 374 522 q 403 604 415 585 q 360 622 392 622 q 238 481 296 622 q 179 231 179 341 q 191 146 179 164 q 217 124 204 128 q 253 119 231 119 q 348 202 301 119 q 411 408 395 286 m 604 930 l 612 929 q 532 834 600 878 q 388 790 464 790 q 290 807 341 790 q 211 833 238 825 q 155 841 184 841 q 63 805 103 841 l 55 808 q 287 944 122 944 q 388 928 341 944 q 461 905 435 912 q 529 898 486 898 q 604 930 571 898 "},",":{"x_min":33.234375,"x_max":237.375,"ha":300,"o":"m 56 -174 q 44 -149 44 -166 q 80 -89 44 -127 q 116 -30 116 -51 q 93 5 116 -9 q 33 96 33 44 q 64 182 33 149 q 143 215 96 215 q 231 151 210 215 q 237 105 237 132 q 188 -37 237 44 q 56 -174 139 -119 "},"d":{"x_min":-18.3125,"x_max":787.421875,"ha":729,"o":"m 372 119 q 164 -8 288 -8 q -2 110 40 -8 q -18 207 -18 153 q -8 317 -18 262 q 20 425 0 371 q 144 623 63 545 q 339 701 225 701 q 425 681 398 701 q 451 630 451 661 l 451 625 l 519 944 l 725 972 l 565 222 q 559 173 559 198 q 616 126 559 126 q 729 248 694 126 l 787 248 q 508 0 700 0 q 372 119 388 0 m 187 227 q 256 126 187 126 q 321 154 285 126 q 370 241 356 182 l 370 248 l 438 567 q 381 615 425 615 q 301 573 337 615 q 190 287 212 474 q 187 227 187 259 "},"\"":{"x_min":86.140625,"x_max":534.4375,"ha":583,"o":"m 86 779 l 170 1041 l 316 1041 l 190 779 l 86 779 m 304 779 l 388 1041 l 534 1041 l 408 779 l 304 779 "},"ê":{"x_min":-18.3125,"x_max":580.5625,"ha":533,"o":"m 580 248 q 198 -8 424 -8 q 40 43 99 -8 q -18 212 -18 94 q 62 519 -18 370 q 230 680 124 632 q 344 706 285 706 q 475 670 440 706 q 510 573 510 634 q 414 372 510 455 q 190 280 318 288 q 187 225 187 241 q 212 131 187 153 q 282 108 237 108 q 417 144 362 108 q 533 248 472 179 l 580 248 m 402 583 q 368 633 402 633 q 269 543 317 632 q 201 347 222 455 q 342 421 281 352 q 402 583 402 491 m 508 779 l 425 890 l 206 779 l 145 779 l 440 1041 l 469 1041 l 552 779 l 508 779 "},"„":{"x_min":105.796875,"x_max":601.578125,"ha":707,"o":"m 183 -5 q 166 18 183 6 q 105 99 105 52 q 134 174 105 145 q 207 202 164 202 q 272 177 250 202 q 295 104 295 151 q 252 -6 295 56 q 127 -122 208 -69 q 115 -103 115 -115 l 183 -5 m 489 -5 q 472 18 489 7 q 411 99 411 52 q 440 174 411 145 q 512 202 469 202 q 578 177 555 202 q 601 104 601 151 q 558 -6 601 56 q 433 -122 514 -69 q 421 -103 421 -115 l 489 -5 "},"ч":{"x_min":34.59375,"x_max":759.609375,"ha":701,"o":"m 236 397 q 277 340 236 340 q 347 375 318 340 q 388 462 377 409 l 437 694 l 637 694 l 537 222 q 531 173 531 198 q 588 126 531 126 q 701 248 666 126 l 759 248 q 618 35 708 99 q 487 -8 557 -8 q 374 31 417 -8 q 331 158 331 70 q 343 248 331 194 l 349 283 q 183 205 279 205 q 77 244 120 205 q 34 372 34 284 q 46 462 34 408 l 94 694 l 294 694 l 240 436 q 236 397 236 414 "},"Â":{"x_min":12.203125,"x_max":972.578125,"ha":928,"o":"m 297 47 q 283 -79 283 -26 q 302 -158 283 -131 q 187 -141 220 -158 q 116 -10 116 -105 q 237 393 116 132 q 320 554 275 474 q 213 534 255 550 q 158 482 172 518 q 170 468 164 482 q 176 434 176 454 q 153 399 176 413 q 105 384 130 384 q 36 405 60 384 q 12 463 12 427 q 92 585 12 535 q 295 636 174 636 q 368 632 323 636 q 607 925 480 809 q 851 1041 733 1041 q 961 1022 921 1041 l 743 0 l 543 0 l 649 503 q 463 554 557 545 q 297 47 339 278 m 493 613 q 662 565 590 594 l 743 943 q 493 613 623 878 m 928 1126 l 845 1237 l 626 1126 l 565 1126 l 859 1389 l 889 1389 l 972 1126 l 928 1126 "},"Í":{"x_min":8.140625,"x_max":645.671875,"ha":521,"o":"m 331 943 q 137 640 137 862 q 153 555 137 583 q 156 545 156 550 q 17 617 45 545 q 8 680 8 642 q 51 815 8 750 q 164 930 95 880 q 495 1041 322 1041 q 551 1039 524 1041 l 330 0 l 130 0 l 331 943 m 373 1126 l 499 1389 l 645 1389 l 477 1126 l 373 1126 "},"´":{"x_min":166.84375,"x_max":438.8125,"ha":439,"o":"m 166 779 l 293 1041 l 438 1041 l 270 779 l 166 779 "},"Ú":{"x_min":0,"x_max":1057.34375,"ha":999,"o":"m 861 1039 l 1057 1039 l 965 605 q 856 225 912 347 q 678 27 790 79 q 503 -9 598 -9 q 357 5 408 -9 q 274 47 305 19 q 215 208 215 101 q 249 457 215 315 l 375 961 q 194 849 260 930 q 128 641 128 769 q 145 554 128 582 q 148 545 148 550 q 10 613 38 545 q 0 673 0 638 q 44 813 0 747 q 328 1011 137 951 q 524 1041 424 1041 q 591 1034 555 1041 l 449 507 q 404 261 404 331 q 425 159 404 191 q 507 126 446 126 q 594 146 567 126 q 680 281 644 183 q 768 609 717 379 l 861 1039 m 626 1126 l 752 1389 l 898 1389 l 730 1126 l 626 1126 "},"Ý":{"x_min":8.140625,"x_max":969.859375,"ha":861,"o":"m 385 0 l 478 427 l 344 948 q 192 834 246 912 q 137 640 137 756 q 153 555 137 583 q 156 545 156 550 q 17 617 45 545 q 8 680 8 642 q 51 815 8 750 q 164 930 95 880 q 495 1041 322 1041 q 551 1039 524 1041 l 672 541 l 877 1034 l 969 1034 l 699 427 l 608 0 l 385 0 m 629 1126 l 755 1389 l 901 1389 l 733 1126 l 629 1126 "},"Ĉ":{"x_min":26.453125,"x_max":743.328125,"ha":690,"o":"m 743 855 q 645 727 743 727 q 567 763 596 727 q 611 814 592 777 q 630 888 630 851 q 611 951 630 925 q 549 976 592 976 q 471 948 507 976 q 402 870 434 919 q 297 621 338 773 q 257 345 257 469 q 293 166 257 221 q 417 111 329 111 q 694 250 591 111 l 726 236 q 473 2 659 67 q 329 -23 400 -23 q 325 -23 327 -23 q 99 56 171 -21 q 26 309 26 135 q 84 657 26 484 q 282 964 151 862 q 511 1041 382 1041 q 725 940 672 1041 q 743 855 743 905 m 643 1126 l 560 1237 l 341 1126 l 280 1126 l 575 1389 l 604 1389 l 687 1126 l 643 1126 "},"И":{"x_min":16.953125,"x_max":1019.375,"ha":979,"o":"m 598 0 l 750 714 l 339 0 l 139 0 l 340 944 q 197 828 248 905 q 145 640 145 752 q 162 555 145 585 q 165 545 165 550 q 26 617 52 545 q 16 680 16 642 q 61 815 16 750 q 329 1011 149 947 q 503 1041 415 1041 q 559 1039 532 1041 l 402 299 l 819 1039 l 1019 1039 l 798 0 l 598 0 "},"ą":{"x_min":-18.3125,"x_max":788.765625,"ha":730,"o":"m 617 118 q 730 248 691 118 l 788 248 q 600 9 724 67 q 542 -41 567 -5 q 516 -109 516 -77 q 571 -185 516 -185 q 619 -168 596 -185 l 665 -139 q 662 -181 662 -163 l 634 -208 q 516 -267 575 -267 q 429 -234 457 -267 q 401 -160 401 -201 q 490 -6 401 -84 q 373 119 384 4 q 161 -8 282 -8 q -2 110 40 -8 q -18 207 -18 153 q -8 317 -18 262 q 20 425 0 371 q 144 623 63 545 q 339 701 225 701 q 425 681 398 701 q 451 630 451 661 l 451 620 l 466 694 l 666 694 l 567 222 q 560 177 560 198 q 617 118 560 118 m 438 562 q 426 595 438 575 q 376 615 415 615 q 301 573 337 615 q 190 287 212 474 q 187 227 187 259 q 212 141 187 165 q 250 126 227 126 q 325 159 291 126 q 372 248 359 191 l 438 562 "},"Љ":{"x_min":-41.375,"x_max":1086.515625,"ha":1135,"o":"m 893 352 q 760 523 893 523 q 693 508 724 523 l 584 0 l 384 0 l 584 943 q 322 588 464 878 q 174 203 225 390 q 124 -57 124 15 q 144 -158 124 -130 q 29 -141 62 -158 q -41 -10 -41 -105 q 67 370 -41 134 q 309 774 177 607 q 693 1041 520 1041 q 803 1022 763 1041 l 708 580 q 845 605 779 605 q 1026 535 967 605 q 1086 344 1086 464 q 1016 111 1086 223 q 924 15 981 54 q 783 -23 868 -23 q 663 31 697 -23 q 647 90 647 56 q 662 160 647 123 q 747 109 701 109 q 819 132 793 109 q 893 352 893 198 "},"р":{"x_min":-126.15625,"x_max":615.140625,"ha":671,"o":"m 155 41 l 83 -297 l -126 -347 l 105 746 l 305 746 l 283 641 q 445 701 352 701 q 602 585 565 701 q 615 489 615 543 q 608 380 615 434 q 586 270 602 325 q 545 166 571 216 q 482 76 520 115 q 392 14 444 37 q 262 -8 340 -8 q 155 41 185 -8 m 425 486 q 355 601 425 601 q 305 584 331 601 q 259 533 279 567 l 177 144 q 237 112 189 112 q 321 151 284 112 q 415 373 394 229 q 425 486 425 436 "},"т":{"x_min":-52.90625,"x_max":1102.796875,"ha":1044,"o":"m 858 -8 q 680 148 680 -8 q 712 330 680 205 q 743 502 743 455 q 693 573 743 573 q 603 494 642 573 q 584 445 592 472 l 490 0 l 290 0 l 392 479 q 396 514 396 495 q 355 575 396 575 q 285 536 314 575 q 241 445 256 498 l 147 0 l -52 0 l 94 694 l 294 694 l 279 622 q 448 701 348 701 q 591 581 571 701 q 784 699 668 699 q 894 663 850 699 q 938 556 938 626 q 915 393 938 485 l 883 257 q 872 185 872 213 q 923 126 872 126 q 994 155 969 126 q 1044 248 1020 185 l 1102 248 q 972 33 1051 95 q 858 -8 918 -8 "},"П":{"x_min":16.953125,"x_max":1094.65625,"ha":956,"o":"m 1094 1036 q 927 859 1090 863 l 743 0 l 543 0 l 731 876 l 533 908 l 339 0 l 139 0 l 335 914 q 145 638 145 881 q 162 554 145 583 q 165 544 165 548 q 26 615 52 544 q 16 695 16 641 q 42 813 16 748 q 124 929 68 878 q 490 1040 249 1040 q 661 1028 571 1040 q 808 1012 752 1017 q 943 1007 864 1007 q 1094 1036 1022 1007 "},"Ö":{"x_min":22.375,"x_max":910.859375,"ha":914,"o":"m 581 1041 q 910 686 910 1041 q 790 238 910 446 q 562 24 705 88 q 416 -8 489 -8 q 298 6 343 -8 q 149 270 149 56 q 203 575 149 413 q 438 903 288 835 q 523 922 479 922 q 598 910 568 922 q 479 756 538 874 q 364 382 394 588 q 355 265 355 318 q 436 104 355 104 q 437 104 436 104 q 571 202 504 104 q 682 448 638 299 q 726 730 726 597 q 689 921 726 864 q 548 978 653 978 q 265 879 381 978 q 148 620 148 780 q 155 566 148 579 q 162 545 162 553 q 58 572 94 545 q 22 666 22 598 q 68 803 22 734 q 371 1010 166 946 q 581 1041 473 1041 m 544 1167 q 492 1143 518 1143 q 423 1167 447 1143 q 400 1226 400 1191 q 423 1287 400 1262 q 483 1312 448 1312 q 544 1287 519 1312 q 569 1227 569 1262 q 544 1167 569 1191 m 794 1167 q 741 1143 768 1143 q 674 1167 698 1143 q 649 1226 649 1190 q 674 1287 649 1262 q 733 1312 698 1312 q 794 1287 769 1312 q 819 1227 819 1262 q 794 1167 819 1191 "},"z":{"x_min":0,"x_max":594.796875,"ha":595,"o":"m 476 215 q 537 148 537 215 q 490 47 537 94 q 368 0 442 0 l 0 0 l 354 619 l 276 619 q 222 615 244 619 q 200 597 200 612 q 202 593 200 594 q 209 589 204 592 q 215 556 215 585 q 191 510 215 527 q 147 493 168 493 q 95 509 114 493 q 76 550 76 525 q 122 649 76 604 q 237 694 168 694 l 594 694 l 254 107 q 275 105 263 106 l 301 101 q 358 98 333 98 q 425 126 420 98 q 398 155 398 128 q 417 195 398 175 q 476 215 436 215 "},"™":{"x_min":-31.875,"x_max":515.453125,"ha":526,"o":"m 402 601 l 440 817 l 352 601 l 295 601 l 295 783 l 240 601 l 206 601 l 301 893 l 358 901 l 358 666 l 450 908 l 515 908 l 462 601 l 402 601 m 265 914 q 230 859 254 859 q 192 864 213 859 q 148 872 172 869 l 90 601 l 30 601 l 90 877 q 6 792 6 876 q 12 765 6 778 q -31 805 -31 765 q 43 904 -31 879 q 109 914 70 914 l 213 906 q 265 914 250 906 "},"ã":{"x_min":-18.3125,"x_max":788.765625,"ha":730,"o":"m 788 248 q 510 -8 700 -8 q 373 119 387 -8 q 161 -8 282 -8 q -2 110 40 -8 q -18 207 -18 153 q -8 317 -18 262 q 20 425 0 371 q 144 623 63 545 q 339 701 225 701 q 425 681 398 701 q 451 630 451 661 l 451 620 l 466 694 l 666 694 l 567 222 q 560 177 560 198 q 617 118 560 118 q 730 248 691 118 l 788 248 m 438 562 q 426 595 438 575 q 376 615 415 615 q 301 573 337 615 q 190 287 212 474 q 187 227 187 259 q 212 141 187 165 q 250 126 227 126 q 325 159 291 126 q 372 248 359 191 l 438 562 m 690 930 l 698 929 q 618 834 687 878 q 474 790 550 790 q 376 807 427 790 q 297 833 324 825 q 241 841 270 841 q 149 805 189 841 l 141 808 q 373 944 208 944 q 474 928 427 944 q 547 905 521 912 q 615 898 573 898 q 690 930 657 898 "},"æ":{"x_min":-10.859375,"x_max":950.1875,"ha":903,"o":"m 540 645 q 736 706 620 706 q 872 622 851 706 q 878 554 878 597 q 852 460 878 511 q 781 370 826 409 q 559 280 688 288 q 556 236 556 257 q 579 133 556 158 q 647 108 602 108 q 783 140 732 108 q 902 248 834 172 l 950 248 q 567 -5 795 -5 q 362 124 398 -5 q 298 37 328 62 q 165 -8 240 -8 q 5 82 46 -8 q -10 177 -10 117 q 72 348 -10 293 q 297 402 155 402 q 369 397 343 402 q 398 523 398 459 q 352 610 398 587 q 293 617 336 617 q 145 552 218 617 l 107 592 q 301 699 204 692 q 359 701 330 701 q 540 645 470 701 m 739 633 q 641 547 688 633 q 569 347 594 461 q 710 420 649 352 q 772 561 772 489 q 739 633 772 633 m 359 316 q 347 318 352 318 l 336 318 q 225 284 267 318 q 184 203 184 251 q 205 140 184 155 q 246 126 227 126 q 312 167 286 126 q 359 316 339 208 "},"É":{"x_min":9.5,"x_max":730.453125,"ha":638,"o":"m 266 579 q 181 749 181 640 q 269 951 181 857 q 486 1044 358 1044 q 628 999 572 1044 q 685 881 685 954 q 654 767 685 808 q 583 726 623 726 q 516 763 543 726 q 559 809 541 773 q 577 886 577 846 q 553 944 577 927 q 499 962 528 962 q 400 902 440 962 q 359 766 359 842 q 435 609 359 661 q 499 580 462 590 q 322 453 394 557 q 251 248 251 349 q 282 149 251 190 q 382 108 312 108 q 527 145 452 108 q 640 250 602 183 l 672 236 q 504 45 617 115 q 265 -25 392 -25 q 73 45 138 -25 q 9 225 9 115 q 80 442 9 335 q 266 579 151 550 m 458 1126 l 584 1389 l 730 1389 l 562 1126 l 458 1126 "},"и":{"x_min":-10.859375,"x_max":759.609375,"ha":701,"o":"m 759 248 q 480 -8 671 -8 q 343 123 356 -8 q 137 -8 261 -8 q 31 31 75 -8 q -10 158 -10 70 q 0 248 -10 197 l 94 694 l 294 694 l 194 222 q 190 183 190 200 q 231 126 190 126 q 343 248 305 126 l 437 694 l 637 694 l 537 222 q 531 173 531 198 q 588 126 531 126 q 701 248 666 126 l 759 248 "},"~":{"x_min":67.828125,"x_max":625.328125,"ha":599,"o":"m 529 898 q 616 930 584 898 l 625 929 q 545 834 612 877 q 416 790 477 790 q 303 807 354 790 q 224 833 251 825 q 168 841 197 841 q 76 805 115 841 l 67 808 q 299 944 138 944 q 401 928 355 944 q 473 905 448 912 q 529 898 499 898 "},"³":{"x_min":18.3125,"x_max":413.71875,"ha":439,"o":"m 108 581 q 172 522 108 522 q 249 561 221 522 q 278 647 278 600 q 253 735 278 695 q 173 792 228 775 q 274 853 237 809 q 311 931 311 897 q 259 1000 311 1000 q 187 940 187 1000 q 198 902 187 912 q 218 889 210 891 q 159 862 186 862 q 115 879 132 862 q 98 923 98 897 q 143 1006 98 973 q 265 1040 187 1040 q 378 1007 342 1040 q 413 934 413 975 q 304 791 413 843 q 380 743 357 776 q 404 672 404 710 q 343 537 404 599 q 197 474 282 474 q 36 531 80 474 q 18 602 18 555 q 42 679 18 649 q 118 710 66 710 q 179 672 169 710 q 109 613 115 665 q 108 581 108 598 "},"¡":{"x_min":-84.78125,"x_max":302.484375,"ha":305,"o":"m -84 -344 l 95 307 l 213 307 l 115 -344 l -84 -344 m 113 438 q 82 516 82 470 q 113 594 82 561 q 191 628 145 628 q 269 595 237 628 q 302 516 302 562 q 269 438 302 470 q 191 406 236 406 q 113 438 145 406 "},"[":{"x_min":-33.234375,"x_max":529.015625,"ha":555,"o":"m -33 -347 l 261 1041 l 529 1041 l 511 955 l 343 955 l 84 -261 l 252 -261 l 234 -347 l -33 -347 "},"К":{"x_min":16.953125,"x_max":946.125,"ha":882,"o":"m 622 -23 q 505 65 505 -23 q 542 248 505 120 q 579 434 578 376 q 495 529 579 529 q 450 523 477 529 l 339 0 l 139 0 l 340 944 q 197 828 248 905 q 145 640 145 752 q 162 555 145 585 q 165 545 165 550 q 26 617 52 545 q 16 680 16 642 q 61 815 16 750 q 329 1011 149 947 q 503 1041 415 1041 q 559 1039 532 1041 l 470 623 q 593 862 514 748 q 732 1008 672 975 q 839 1041 792 1041 q 908 1024 886 1041 q 946 957 946 993 q 919 874 946 898 q 855 851 892 851 q 773 906 796 851 q 534 590 642 828 q 565 591 551 591 l 592 591 q 756 501 731 591 q 765 437 765 474 q 731 257 765 381 q 697 96 697 134 q 751 0 697 20 q 622 -23 664 -23 "},"%":{"x_min":148.53125,"x_max":845.75,"ha":895,"o":"m 168 0 l 704 1041 l 804 1041 l 267 0 l 168 0 m 278 519 q 176 558 204 519 q 148 668 148 598 q 209 889 148 804 q 373 975 270 975 q 461 934 434 975 q 487 806 487 894 q 431 619 487 718 q 278 519 375 519 m 299 873 q 248 689 248 796 q 255 598 248 626 q 287 571 262 571 q 371 650 339 571 q 404 838 404 730 q 398 900 404 874 q 369 926 392 926 q 299 873 335 926 m 626 0 q 520 38 548 0 q 493 147 493 77 q 554 370 493 284 q 718 455 615 455 q 812 415 779 455 q 845 283 845 375 q 796 105 845 191 q 626 0 737 0 m 698 404 q 633 352 665 404 q 585 141 585 278 q 592 79 585 107 q 625 51 599 51 q 706 125 675 51 q 737 301 737 199 q 698 404 737 404 "},"P":{"x_min":8.140625,"x_max":823.359375,"ha":796,"o":"m 130 0 l 319 883 l 524 910 l 426 446 q 598 563 528 456 q 669 795 669 670 q 575 963 669 920 q 497 978 542 978 q 232 889 327 978 q 137 640 137 800 q 153 555 137 583 q 156 545 156 550 q 17 617 45 545 q 8 680 8 642 q 51 815 8 750 q 164 930 95 880 q 489 1041 322 1041 q 739 963 656 1041 q 823 768 823 884 q 795 635 823 701 q 716 515 768 569 q 422 396 599 396 l 415 396 l 330 0 l 130 0 "},"_":{"x_min":50.1875,"x_max":560.890625,"ha":617,"o":"m 50 0 l 75 109 l 560 109 l 537 0 l 50 0 "},"ñ":{"x_min":-52.90625,"x_max":759.609375,"ha":701,"o":"m 529 185 q 579 126 529 126 q 651 155 626 126 q 701 248 676 185 l 759 248 q 541 -5 678 14 q 487 -8 519 -8 q 424 5 455 -8 q 337 148 337 42 q 368 330 337 205 q 400 502 400 455 q 349 573 400 573 q 260 494 299 573 q 241 445 248 472 l 147 0 l -52 0 l 94 694 l 294 694 l 279 622 q 441 699 347 699 q 552 663 507 699 q 596 554 596 626 q 573 392 596 482 l 539 257 q 529 185 529 213 m 670 930 l 678 929 q 599 834 667 878 q 455 790 531 790 q 356 807 408 790 q 278 833 305 825 q 221 841 250 841 q 130 805 169 841 l 122 808 q 354 944 189 944 q 454 928 407 944 q 527 905 501 912 q 595 898 553 898 q 670 930 637 898 "},"‚":{"x_min":105.796875,"x_max":295.703125,"ha":393,"o":"m 183 -5 q 166 18 183 6 q 105 99 105 52 q 134 174 105 145 q 207 202 164 202 q 272 177 250 202 q 295 104 295 151 q 252 -6 295 56 q 127 -122 208 -69 q 115 -103 115 -115 l 183 -5 "},"Æ":{"x_min":12.203125,"x_max":1262.84375,"ha":1061,"o":"m 649 503 q 462 554 549 548 q 297 49 340 286 q 283 -65 283 -24 q 286 -119 283 -105 q 292 -140 289 -133 q 299 -149 296 -147 q 302 -156 302 -152 q 178 -135 208 -153 q 116 -1 116 -99 q 237 394 116 137 q 320 554 275 474 q 216 534 258 550 q 158 482 173 519 q 170 468 164 482 q 176 435 176 454 q 156 400 176 416 q 98 384 136 384 q 36 404 61 384 q 12 464 12 425 q 94 583 12 535 q 283 632 176 632 q 365 628 319 632 q 725 1009 540 913 q 849 1043 788 1043 q 907 1039 878 1043 l 967 1029 q 1100 1015 1051 1015 q 1262 1041 1183 1015 l 1247 991 q 1113 889 1216 889 q 1021 903 1060 889 l 942 933 l 866 581 l 1081 581 l 1053 479 l 844 479 l 773 147 l 1084 147 l 1055 0 l 543 0 l 649 503 m 490 612 q 662 565 579 596 l 743 943 q 490 612 618 874 "},"ѓ":{"x_min":-29.15625,"x_max":568.34375,"ha":521,"o":"m 568 248 q 197 -8 403 -8 q -29 148 -29 -8 q 47 301 -29 236 q 118 351 80 328 q 188 397 155 373 q 265 516 265 451 q 201 580 265 580 q 51 436 111 580 l -15 436 q 101 636 30 566 q 294 706 172 706 q 459 621 416 706 q 474 549 474 592 q 462 474 474 507 q 430 415 450 440 q 328 329 396 373 l 274 295 q 198 232 215 259 q 181 181 181 206 q 277 108 181 108 q 457 182 373 108 q 520 248 487 209 l 568 248 m 271 779 l 397 1041 l 543 1041 l 375 779 l 271 779 "},"ы":{"x_min":-8.140625,"x_max":967.828125,"ha":910,"o":"m 967 248 q 711 -8 880 -8 q 589 34 631 -8 q 547 134 547 77 q 579 337 547 190 l 623 534 l 467 444 q 501 295 501 392 q 427 104 501 199 q 190 -8 340 -8 q 43 38 94 -8 q -8 169 -8 85 q 1 248 -8 206 l 92 694 l 284 694 l 181 205 q 177 166 177 193 q 238 109 177 109 q 343 177 298 109 q 388 340 388 246 q 368 393 388 375 q 329 380 352 380 q 286 394 307 380 q 266 440 266 408 q 291 488 266 472 q 346 503 316 503 q 401 495 375 503 q 496 542 453 518 l 666 642 q 758 694 708 668 l 844 694 l 771 349 l 746 242 q 737 184 737 202 q 792 126 737 126 q 859 158 834 126 q 909 248 885 190 l 967 248 "},"ª":{"x_min":59.6875,"x_max":444.234375,"ha":480,"o":"m 324 1007 l 328 1028 l 444 1028 l 385 772 q 383 759 384 765 q 381 747 381 754 q 411 719 381 719 l 420 719 q 432 722 426 719 q 392 662 414 672 q 348 653 369 653 q 267 708 284 653 q 150 648 219 648 q 59 759 59 648 q 69 841 59 791 q 104 932 80 891 q 169 1000 128 973 q 255 1026 210 1026 q 324 1007 299 1026 m 316 971 q 277 984 301 984 q 200 914 231 984 q 168 763 168 845 q 184 720 168 730 q 215 711 200 711 q 265 747 240 711 l 316 971 "},"ї":{"x_min":-10.859375,"x_max":441.515625,"ha":371,"o":"m 429 248 q 130 -8 339 -8 q 31 31 75 -8 q -10 158 -10 70 q 0 248 -10 197 l 94 694 l 294 694 l 194 222 q 189 172 189 197 q 245 126 189 126 q 321 161 286 126 q 370 248 356 196 l 429 248 m 166 819 q 115 796 141 796 q 46 820 70 796 q 22 879 22 844 q 46 940 22 914 q 106 965 70 965 q 166 940 141 965 q 191 879 191 915 q 166 819 191 844 m 364 796 q 278 846 299 796 q 271 888 271 862 q 296 940 271 915 q 356 965 320 965 q 416 940 392 965 q 441 879 441 915 q 416 820 441 844 q 364 796 391 796 "},"Œ":{"x_min":22.375,"x_max":1269.640625,"ha":1175,"o":"m 849 925 q 910 686 910 838 q 904 581 910 636 l 1089 581 l 1061 479 l 885 479 q 790 238 855 351 q 726 147 762 188 l 1064 147 l 1034 0 l 497 0 q 397 -8 451 -8 q 216 58 283 -8 q 149 269 149 125 q 203 575 149 413 q 438 903 288 835 q 523 922 479 922 q 598 910 568 922 q 479 756 538 874 q 364 382 394 588 q 355 265 355 318 q 436 104 355 104 q 437 104 436 104 q 571 202 504 104 q 682 448 638 299 q 726 730 726 597 q 689 921 726 864 q 548 978 653 978 q 265 879 381 978 q 148 620 148 780 q 155 566 148 579 q 162 545 162 553 q 58 572 94 545 q 22 666 22 598 q 68 803 22 734 q 371 1010 166 946 q 572 1041 473 1041 q 734 1015 672 1041 q 887 1041 814 1041 q 1018 1033 959 1041 q 1147 1024 1077 1024 q 1269 1041 1217 1024 l 1256 994 q 1137 874 1230 895 q 980 897 1070 874 q 849 925 889 921 "},"ﬀ":{"x_min":-290.28125,"x_max":872.1875,"ha":705,"o":"m 803 833 q 805 874 805 855 q 789 906 805 894 q 757 918 773 918 q 658 808 683 918 l 633 694 l 772 694 l 759 638 l 622 638 l 465 -111 q 358 -303 438 -244 q 212 -347 299 -347 q 62 -259 99 -347 q -126 -347 -3 -347 q -240 -304 -190 -347 q -290 -206 -290 -262 q -271 -116 -290 -149 q -211 -54 -252 -84 q -50 10 -170 -25 l 116 804 q 369 1040 166 1040 q 457 1016 415 1040 q 518 952 498 993 q 708 1040 586 1040 q 822 998 773 1040 q 872 890 872 956 q 868 833 872 858 l 803 833 m 421 638 l 283 638 l 160 51 l 302 76 l 421 638 m 99 -196 q 180 -223 117 -223 q 225 -200 202 -223 q 262 -115 248 -177 l 295 42 l 152 16 l 126 -111 q 99 -196 114 -160 m 432 694 l 463 840 q 466 875 466 856 q 450 906 466 894 q 418 918 434 918 q 319 808 344 918 l 294 694 l 432 694 m -51 -34 q -153 -83 -126 -61 q -205 -177 -205 -124 q -172 -219 -205 -204 q -144 -223 -162 -223 q -104 -200 -127 -223 q -67 -115 -82 -177 l -51 -34 "},"Ą":{"x_min":12.203125,"x_max":961.046875,"ha":928,"o":"m 501 -160 q 599 0 501 -78 l 543 0 l 649 503 q 463 554 557 545 q 297 47 339 278 q 283 -79 283 -26 q 302 -158 283 -131 q 187 -141 220 -158 q 116 -10 116 -105 q 237 393 116 132 q 320 554 275 474 q 213 534 255 550 q 158 482 172 518 q 170 468 164 482 q 176 434 176 454 q 153 399 176 413 q 105 384 130 384 q 36 405 60 384 q 12 463 12 427 q 92 585 12 535 q 295 636 174 636 q 368 632 323 636 q 607 925 480 809 q 851 1041 733 1041 q 961 1022 921 1041 l 743 0 l 690 0 q 624 -76 647 -21 q 616 -118 616 -96 q 629 -163 616 -140 q 669 -185 641 -185 q 720 -168 696 -185 l 765 -139 q 762 -181 762 -163 l 735 -208 q 617 -267 675 -267 q 530 -234 558 -267 q 501 -160 501 -201 m 493 613 q 662 565 590 594 l 743 943 q 493 613 623 878 "},"T":{"x_min":8.140625,"x_max":999.015625,"ha":668,"o":"m 609 891 l 417 0 l 218 0 l 415 919 l 398 919 q 212 862 276 919 q 137 638 137 794 q 153 554 137 582 q 156 544 156 548 q 17 615 45 544 q 8 695 8 641 q 33 813 8 748 q 116 929 59 878 q 482 1040 242 1040 q 638 1030 580 1040 q 739 1014 696 1020 q 854 1008 782 1008 q 999 1037 927 1008 q 825 861 992 861 q 609 891 762 861 "},"Њ":{"x_min":16.953125,"x_max":1244.53125,"ha":1293,"o":"m 1051 352 q 919 523 1051 523 q 851 508 882 523 l 743 0 l 543 0 l 654 522 l 450 522 l 339 0 l 139 0 l 340 944 q 197 828 248 905 q 145 640 145 752 q 162 555 145 585 q 165 545 165 550 q 26 617 52 545 q 16 680 16 642 q 61 815 16 750 q 329 1011 149 947 q 503 1041 415 1041 q 559 1039 532 1041 l 470 625 l 674 625 l 763 1039 l 963 1039 l 866 580 q 1010 605 950 605 q 1184 535 1125 605 q 1244 348 1244 465 q 1227 231 1244 295 q 1175 110 1211 168 q 1082 14 1138 53 q 963 -23 1026 -23 q 822 31 855 -23 q 805 90 805 58 q 820 160 805 122 q 906 109 859 109 q 978 132 952 109 q 1027 207 1004 155 q 1051 352 1051 258 "},"š":{"x_min":-44.765625,"x_max":598.875,"ha":513,"o":"m 588 248 q 376 75 502 148 q 158 -8 297 -8 q 7 45 60 -8 q -44 158 -44 98 q -21 251 -44 218 q 29 298 1 284 q 200 710 126 473 l 405 737 q 416 519 411 607 l 433 299 q 436 234 436 266 q 430 179 436 202 q 530 248 491 214 l 588 248 m 101 101 q 234 230 234 101 q 229 315 234 266 l 221 394 q 208 559 213 470 q 95 297 172 445 q 127 252 127 282 q 110 201 127 223 q 66 180 94 180 q 29 198 37 180 q 101 101 29 101 m 304 779 l 275 779 l 191 1041 l 236 1041 l 319 930 l 537 1041 l 598 1041 l 304 779 "},"є":{"x_min":-18.3125,"x_max":580.5625,"ha":533,"o":"m 343 706 q 510 580 510 706 q 488 502 510 527 q 439 478 466 478 q 387 494 412 478 q 404 576 404 539 q 365 633 404 633 q 248 498 303 633 q 219 416 231 459 l 384 416 l 366 333 l 198 333 q 187 213 187 274 q 212 131 187 153 q 282 108 237 108 q 417 144 362 108 q 533 248 472 179 l 580 248 q 198 -8 424 -8 q 40 43 99 -8 q -18 212 -18 94 q 62 520 -18 371 q 229 680 123 632 q 343 706 284 706 "},"Þ":{"x_min":8.140625,"x_max":823.359375,"ha":810,"o":"m 297 780 q 137 487 137 697 q 153 402 137 431 q 156 393 156 397 q 17 464 45 393 q 8 534 8 490 q 32 628 8 578 q 99 720 56 677 q 312 855 185 809 l 347 1013 l 552 1041 l 519 889 q 746 804 670 881 q 823 615 823 727 q 712 358 823 474 q 422 242 600 242 l 381 242 l 330 0 l 130 0 l 297 780 m 412 294 q 543 349 481 294 q 660 558 631 426 q 669 636 669 598 q 629 769 669 716 q 507 825 588 821 l 393 294 l 412 294 "},"j":{"x_min":-280.78125,"x_max":392.015625,"ha":334,"o":"m 124 -111 q 18 -303 98 -244 q -114 -347 -39 -347 q -235 -313 -189 -347 q -280 -212 -280 -280 q -132 -35 -280 -99 q -52 -5 -92 -18 l 95 694 l 295 694 l 158 50 q 263 114 222 71 q 333 248 303 157 l 392 248 q 212 13 337 70 q 145 -10 178 -2 l 124 -111 m 331 880 q 298 802 331 834 q 220 771 265 771 q 143 803 174 771 q 111 880 111 834 q 142 958 111 925 q 220 991 174 991 q 299 959 266 991 q 331 880 331 926 m -67 -75 q -204 -193 -204 -122 q -177 -234 -204 -221 q -151 -238 -168 -238 q -112 -208 -134 -238 q -76 -115 -90 -178 l -67 -75 "},"1":{"x_min":29.15625,"x_max":450.34375,"ha":440,"o":"m 29 0 l 212 866 l 80 866 l 96 930 q 228 944 174 930 q 450 1039 341 973 l 229 0 l 29 0 "},"›":{"x_min":21.03125,"x_max":458.484375,"ha":478,"o":"m 21 112 l 40 191 l 373 352 l 104 547 l 116 623 l 458 387 l 442 312 l 21 112 "},"ћ":{"x_min":-52.90625,"x_max":759.609375,"ha":701,"o":"m 529 188 q 579 126 529 126 q 651 155 626 126 q 701 248 676 185 l 759 248 q 541 -5 678 14 q 487 -8 519 -8 q 424 5 455 -8 q 337 148 337 42 q 352 255 337 189 l 373 352 q 380 406 380 383 q 330 478 380 478 q 262 440 293 478 q 221 349 232 402 l 147 0 l -52 0 l 94 694 l 19 694 l 34 769 l 111 769 l 148 944 l 354 972 l 311 769 l 484 769 l 467 694 l 294 694 l 258 526 q 422 604 326 604 q 532 567 489 604 q 576 446 576 530 q 552 311 576 404 q 529 188 529 218 "},"<":{"x_min":27.8125,"x_max":466.625,"ha":499,"o":"m 27 330 l 40 387 l 466 596 l 453 519 l 118 352 l 387 219 l 370 140 l 27 330 "},"Ц":{"x_min":16.953125,"x_max":988.84375,"ha":961,"o":"m 373 101 q 554 58 448 101 l 763 1039 l 963 1039 l 735 -23 q 881 -56 817 -56 q 988 -33 945 -56 q 940 -183 980 -132 q 817 -233 901 -233 q 648 -172 733 -233 q 575 -116 612 -147 q 263 0 436 0 q 137 -8 178 0 l 137 -6 q 139 -4 137 -5 l 340 943 q 197 829 248 905 q 145 640 145 752 q 162 555 145 585 q 165 545 165 550 q 26 617 52 545 q 16 680 16 642 q 61 815 16 750 q 329 1011 149 947 q 503 1041 415 1041 q 559 1039 532 1041 l 360 101 l 373 101 "},"t":{"x_min":-10.859375,"x_max":429.3125,"ha":371,"o":"m 429 248 q 130 -8 339 -8 q 31 31 75 -8 q -10 158 -10 70 q 0 248 -10 197 l 83 638 l 37 638 l 48 694 l 94 694 l 136 886 l 341 914 l 294 694 l 377 694 l 366 638 l 283 638 l 194 222 q 189 172 189 197 q 245 126 189 126 q 321 161 286 126 q 370 248 356 196 l 429 248 "},"¬":{"x_min":26.453125,"x_max":554.109375,"ha":617,"o":"m 326 70 l 375 308 l 26 308 l 51 417 l 554 417 l 483 70 l 326 70 "},"ù":{"x_min":-10.859375,"x_max":759.609375,"ha":701,"o":"m 759 248 q 480 -8 671 -8 q 343 123 356 -8 q 137 -8 261 -8 q 31 31 75 -8 q -10 158 -10 70 q 0 248 -10 197 l 94 694 l 294 694 l 194 222 q 190 183 190 200 q 231 126 190 126 q 343 248 305 126 l 437 694 l 637 694 l 537 222 q 531 173 531 198 q 588 126 531 126 q 701 248 666 126 l 759 248 m 339 779 l 257 1041 l 402 1041 l 443 779 l 339 779 "},"Ф":{"x_min":26.453125,"x_max":1049.890625,"ha":1092,"o":"m 328 0 l 359 143 q 108 231 191 145 q 26 431 26 317 q 65 619 26 545 q 512 858 173 824 l 556 1066 q 311 986 355 1052 q 295 932 295 963 q 307 870 295 902 q 280 869 293 869 q 177 915 206 869 q 167 950 167 933 l 167 969 q 200 1033 168 1003 q 284 1083 232 1064 q 524 1123 388 1123 q 763 1102 660 1123 l 711 859 q 963 761 876 843 q 1049 560 1049 679 q 923 265 1049 387 q 592 143 796 143 l 559 143 l 529 0 l 328 0 m 581 208 q 699 240 647 208 q 789 325 752 273 q 866 571 866 434 q 697 790 866 757 l 573 208 l 581 208 m 497 790 q 288 678 358 766 q 218 425 218 591 q 260 276 218 339 q 373 208 303 213 l 497 790 "},"ĉ":{"x_min":-18.3125,"x_max":580.5625,"ha":533,"o":"m 343 706 q 510 580 510 706 q 488 502 510 527 q 439 478 466 478 q 387 494 412 478 q 404 576 404 539 q 364 633 404 633 q 280 561 324 633 q 193 308 217 459 q 187 208 187 263 q 282 108 187 108 q 417 144 362 108 q 533 248 472 179 l 580 248 q 198 -8 424 -8 q 40 43 99 -8 q -18 212 -18 94 q 62 520 -18 371 q 229 680 123 632 q 343 706 284 706 m 511 779 l 427 890 l 209 779 l 148 779 l 442 1041 l 472 1041 l 555 779 l 511 779 "},"ï":{"x_min":-10.859375,"x_max":443.5625,"ha":371,"o":"m 429 248 q 130 -8 339 -8 q 31 31 75 -8 q -10 158 -10 70 q 0 248 -10 197 l 94 694 l 294 694 l 194 222 q 189 172 189 197 q 245 126 189 126 q 321 161 286 126 q 370 248 356 196 l 429 248 m 168 819 q 116 796 143 796 q 48 820 71 796 q 24 879 24 844 q 48 940 24 914 q 108 965 72 965 q 168 940 143 965 q 193 879 193 915 q 168 819 193 844 m 418 819 q 366 796 392 796 q 298 819 322 796 q 274 879 274 843 q 298 940 274 915 q 358 965 322 965 q 418 940 393 965 q 443 879 443 915 q 418 819 443 844 "},"Ò":{"x_min":22.375,"x_max":910.859375,"ha":914,"o":"m 581 1041 q 910 686 910 1041 q 790 238 910 446 q 562 24 705 88 q 416 -8 489 -8 q 298 6 343 -8 q 149 270 149 56 q 203 575 149 413 q 438 903 288 835 q 523 922 479 922 q 598 910 568 922 q 479 756 538 874 q 364 382 394 588 q 355 265 355 318 q 436 104 355 104 q 437 104 436 104 q 571 202 504 104 q 682 448 638 299 q 726 730 726 597 q 689 921 726 864 q 548 978 653 978 q 265 879 381 978 q 148 620 148 780 q 155 566 148 579 q 162 545 162 553 q 58 572 94 545 q 22 666 22 598 q 68 803 22 734 q 371 1010 166 946 q 581 1041 473 1041 m 487 1126 l 405 1389 l 551 1389 l 592 1126 l 487 1126 "},"О":{"x_min":22.375,"x_max":910.859375,"ha":924,"o":"m 581 1041 q 910 686 910 1041 q 790 238 910 446 q 562 24 705 88 q 416 -8 489 -8 q 298 6 343 -8 q 149 270 149 56 q 203 575 149 413 q 438 903 288 835 q 523 922 479 922 q 598 910 568 922 q 479 756 538 874 q 364 382 394 588 q 355 265 355 318 q 436 104 355 104 q 437 104 436 104 q 571 202 504 104 q 682 448 638 299 q 726 730 726 597 q 689 921 726 864 q 548 978 653 978 q 265 879 381 978 q 148 620 148 780 q 155 566 148 579 q 162 545 162 553 q 58 572 94 545 q 22 666 22 598 q 68 803 22 734 q 371 1010 166 946 q 581 1041 473 1041 "},"&":{"x_min":15.59375,"x_max":947.484375,"ha":947,"o":"m 701 520 l 807 514 q 882 528 844 514 q 938 573 921 541 l 947 573 q 883 453 947 513 q 735 380 819 393 q 472 12 652 80 q 323 -8 415 -8 q 177 15 230 -8 q 87 78 123 39 q 15 267 15 155 q 81 466 15 378 q 266 579 147 554 q 128 790 128 653 q 212 966 128 890 q 437 1041 297 1041 q 618 995 543 1041 q 693 855 693 948 q 596 727 693 727 q 516 763 547 727 q 558 810 539 771 q 577 868 577 849 q 486 980 577 980 q 364 930 412 980 q 316 814 316 880 q 358 687 316 749 q 499 580 401 625 q 316 454 375 528 q 258 303 258 381 q 306 170 258 225 q 421 116 354 116 q 628 251 553 116 q 672 377 655 301 l 621 383 q 573 385 597 385 q 442 323 482 385 l 433 324 q 523 465 454 411 q 701 520 592 520 "},"I":{"x_min":8.140625,"x_max":551.390625,"ha":521,"o":"m 331 943 q 137 640 137 862 q 153 555 137 583 q 156 545 156 550 q 17 617 45 545 q 8 680 8 642 q 51 815 8 750 q 164 930 95 880 q 495 1041 322 1041 q 551 1039 524 1041 l 330 0 l 130 0 l 331 943 "},"G":{"x_min":26.453125,"x_max":776.5625,"ha":803,"o":"m 644 867 q 548 976 644 976 q 435 932 492 976 q 336 819 379 888 q 266 665 293 751 q 240 514 240 579 q 280 331 240 396 q 400 266 320 266 q 519 318 480 266 l 579 581 l 758 580 l 644 58 q 529 -200 609 -113 q 288 -287 450 -287 q 146 -231 196 -287 q 95 -97 95 -174 q 141 36 95 -20 q 256 94 187 94 q 349 82 324 94 q 401 1 401 59 q 393 -54 401 -23 q 305 -18 350 -18 q 236 -51 261 -18 q 212 -122 212 -85 q 233 -188 212 -159 q 289 -218 255 -218 q 344 -211 324 -218 q 438 -47 406 -191 l 494 201 q 320 151 402 151 q 90 257 165 151 q 26 507 26 347 q 59 704 26 607 q 230 945 110 848 q 520 1041 349 1041 q 754 940 691 1041 q 776 855 776 905 q 678 727 776 727 q 583 763 614 727 q 625 810 606 772 q 644 867 644 848 "},"`":{"x_min":33.234375,"x_max":219.75,"ha":279,"o":"m 115 779 l 33 1041 l 179 1041 l 219 779 l 115 779 "},"·":{"x_min":166.84375,"x_max":434.734375,"ha":603,"o":"m 434 370 q 394 276 434 315 q 299 237 354 237 q 205 276 244 237 q 166 370 166 315 q 205 465 166 425 q 299 505 244 505 q 394 465 355 505 q 434 370 434 425 "},"¿":{"x_min":16.953125,"x_max":541.90625,"ha":610,"o":"m 324 -61 q 426 -2 361 -2 q 499 -32 467 -2 q 531 -108 531 -61 q 465 -266 531 -202 q 240 -343 384 -343 q 27 -239 62 -343 q 16 -161 16 -209 q 35 -67 16 -113 q 150 82 67 13 l 225 145 q 351 307 316 224 l 442 307 q 377 142 442 225 q 316 72 349 106 q 256 2 284 38 q 190 -163 190 -83 q 268 -267 190 -267 q 343 -235 309 -267 q 377 -153 377 -202 q 349 -75 377 -105 q 324 -61 339 -65 m 541 516 q 508 438 541 470 q 429 406 475 406 q 352 438 384 406 q 320 516 320 470 l 320 518 q 352 596 320 562 q 429 629 383 629 q 509 596 476 629 q 541 518 541 563 l 541 516 "},"ý":{"x_min":-10.859375,"x_max":733.15625,"ha":701,"o":"m 190 187 q 230 126 190 126 q 297 158 269 126 q 340 240 324 191 l 437 694 l 637 694 l 499 50 q 603 114 562 71 q 674 248 644 157 l 733 248 q 554 12 680 69 q 487 -10 519 -2 l 466 -111 q 360 -303 440 -244 q 227 -347 302 -347 q 106 -314 151 -347 q 61 -207 61 -280 q 287 -5 61 -80 l 304 69 q 137 -8 232 -8 q 31 31 75 -8 q -10 158 -10 70 q 0 248 -10 197 l 94 694 l 294 694 l 194 222 q 190 187 190 204 m 273 -75 q 137 -193 137 -124 q 164 -234 137 -221 q 189 -238 172 -238 q 229 -208 206 -238 q 265 -115 251 -178 l 273 -75 m 330 779 l 457 1041 l 602 1041 l 434 779 l 330 779 "},"Ђ":{"x_min":16.953125,"x_max":1007.15625,"ha":1007,"o":"m 385 -123 q 458 -153 414 -153 q 583 -69 531 -153 q 690 248 644 31 q 714 422 714 362 q 691 502 714 482 q 626 522 669 522 q 530 484 583 522 l 426 0 l 226 0 l 423 919 l 406 919 q 221 862 284 919 q 145 638 145 794 q 162 554 145 583 q 165 544 165 548 q 26 615 52 544 q 16 695 16 641 q 42 813 16 748 q 124 929 68 878 q 490 1040 249 1040 q 646 1030 588 1040 q 747 1014 704 1020 q 863 1008 790 1008 q 1007 1037 935 1008 q 961 903 1004 945 q 844 861 917 861 q 617 891 770 861 l 550 577 q 744 630 634 630 q 895 520 855 630 q 909 414 909 483 q 880 223 909 345 q 569 -276 777 -209 q 497 -287 537 -287 q 387 -234 419 -287 q 371 -181 371 -209 q 385 -123 371 -153 "},"º":{"x_min":58.328125,"x_max":417.78125,"ha":457,"o":"m 165 777 q 222 720 165 720 q 304 870 284 720 q 283 898 283 875 q 300 940 283 921 q 335 958 317 958 q 358 952 352 958 q 364 931 364 947 q 397 962 383 944 l 409 976 l 417 961 q 364 881 396 900 q 302 710 358 773 q 183 647 247 647 q 88 675 119 647 q 58 771 58 704 q 118 967 58 900 q 269 1034 179 1034 q 321 1025 297 1034 q 345 1000 345 1015 q 334 977 345 984 q 309 965 322 969 q 276 991 298 991 q 238 980 253 991 q 210 949 222 968 q 176 864 187 912 q 165 777 165 815 "},"ź":{"x_min":0,"x_max":595.484375,"ha":595,"o":"m 476 215 q 537 148 537 215 q 490 47 537 94 q 368 0 442 0 l 0 0 l 354 619 l 276 619 q 222 615 244 619 q 200 597 200 612 q 202 593 200 594 q 209 589 204 592 q 215 556 215 585 q 191 510 215 527 q 147 493 168 493 q 95 509 114 493 q 76 550 76 525 q 122 649 76 604 q 237 694 168 694 l 594 694 l 254 107 q 275 105 263 106 l 301 101 q 358 98 333 98 q 425 126 420 98 q 398 155 398 128 q 417 195 398 175 q 476 215 436 215 m 323 779 l 449 1041 l 595 1041 l 427 779 l 323 779 "},"я":{"x_min":-52.90625,"x_max":790.125,"ha":732,"o":"m 222 293 q 90 454 90 323 q 282 675 90 622 q 455 694 352 694 l 666 694 q 572 260 585 318 q 559 184 559 202 q 615 126 559 126 q 682 158 657 126 q 731 248 707 190 l 790 248 q 531 -8 702 -8 q 409 34 451 -8 q 368 131 368 76 q 393 294 368 186 q 315 286 355 286 q 247 77 276 124 q 185 11 218 30 q 107 -8 151 -8 q -12 36 27 -8 q -52 153 -52 82 q -2 251 -52 225 q 39 259 12 259 q 85 239 65 259 q 105 186 105 219 q 88 136 105 152 q 50 123 71 120 q 103 79 54 79 q 176 138 153 79 q 222 293 200 197 m 463 619 l 430 619 q 306 574 347 619 q 265 463 265 529 q 294 374 265 397 q 365 351 323 351 l 387 351 q 405 354 397 351 l 463 619 "},"Ё":{"x_min":9.5,"x_max":750.109375,"ha":638,"o":"m 266 579 q 181 749 181 640 q 269 951 181 857 q 486 1044 358 1044 q 628 999 572 1044 q 685 881 685 954 q 654 767 685 808 q 583 726 623 726 q 516 763 543 726 q 559 809 541 773 q 577 886 577 846 q 553 944 577 927 q 499 962 528 962 q 400 902 440 962 q 359 766 359 842 q 435 609 359 661 q 499 580 462 590 q 322 453 394 557 q 251 248 251 349 q 282 149 251 190 q 382 108 312 108 q 527 145 452 108 q 640 250 602 183 l 672 236 q 504 45 617 115 q 265 -25 392 -25 q 73 45 138 -25 q 9 225 9 115 q 80 442 9 335 q 266 579 151 550 m 423 1143 q 336 1193 358 1143 q 330 1236 330 1209 q 354 1287 330 1262 q 414 1312 379 1312 q 475 1287 450 1312 q 499 1227 499 1262 q 474 1167 499 1191 q 423 1143 449 1143 m 725 1167 q 672 1143 699 1143 q 604 1167 629 1143 q 580 1226 580 1190 q 604 1287 580 1262 q 664 1312 629 1312 q 725 1287 699 1312 q 750 1227 750 1262 q 725 1167 750 1191 "},"ń":{"x_min":-52.90625,"x_max":759.609375,"ha":701,"o":"m 529 185 q 579 126 529 126 q 651 155 626 126 q 701 248 676 185 l 759 248 q 541 -5 678 14 q 487 -8 519 -8 q 424 5 455 -8 q 337 148 337 42 q 368 330 337 205 q 400 502 400 455 q 349 573 400 573 q 260 494 299 573 q 241 445 248 472 l 147 0 l -52 0 l 94 694 l 294 694 l 279 622 q 441 699 347 699 q 552 663 507 699 q 596 554 596 626 q 573 392 596 482 l 539 257 q 529 185 529 213 m 366 779 l 493 1041 l 638 1041 l 470 779 l 366 779 "},";":{"x_min":63.75,"x_max":351.3125,"ha":383,"o":"m 240 571 q 318 538 286 571 q 351 459 351 505 q 318 381 351 413 q 240 349 285 349 q 162 381 194 349 q 130 459 130 413 q 162 537 130 504 q 240 571 193 571 m 87 -152 q 75 -127 75 -144 q 111 -67 75 -105 q 147 -8 147 -29 q 128 25 147 11 q 63 119 63 67 q 95 204 63 171 q 173 237 126 237 q 261 173 241 237 q 267 127 267 154 q 218 -16 267 65 q 87 -152 168 -98 "},"Г":{"x_min":16.953125,"x_max":872.1875,"ha":595,"o":"m 520 902 l 326 0 l 126 0 l 326 927 q 191 862 236 925 q 145 640 145 798 q 162 555 145 585 q 165 545 165 550 q 26 617 52 545 q 16 685 16 642 q 27 771 16 727 q 61 856 37 816 q 219 992 112 942 q 498 1041 326 1041 q 608 1033 546 1041 q 744 1024 670 1024 q 872 1041 817 1024 q 862 1008 866 1026 q 852 972 858 990 q 838 936 847 954 q 815 905 829 918 q 782 883 802 891 q 709 874 762 874 q 520 902 656 874 "},"6":{"x_min":22.375,"x_max":678.90625,"ha":690,"o":"m 312 423 q 284 499 284 463 q 342 603 284 564 q 465 642 400 642 q 565 622 530 642 q 623 569 601 601 q 668 415 668 506 q 556 114 668 235 q 293 -6 444 -6 q 33 162 71 -6 q 22 267 22 212 l 22 293 q 44 499 22 385 q 94 693 65 612 q 263 949 155 857 q 519 1041 370 1041 q 635 1007 592 1041 q 678 932 678 972 q 649 864 678 891 q 555 833 619 836 q 577 882 577 854 q 558 934 577 910 q 508 958 538 958 q 371 875 440 958 q 255 603 302 793 q 218 394 229 502 q 206 244 206 286 q 233 130 206 158 q 306 101 261 101 q 446 192 386 101 q 508 383 508 284 q 436 529 508 529 q 312 423 363 529 "},"Ь":{"x_min":16.953125,"x_max":840.3125,"ha":889,"o":"m 647 352 q 515 523 647 523 q 446 508 478 523 l 339 0 l 139 0 l 340 944 q 197 828 248 905 q 145 640 145 752 q 162 555 145 585 q 165 545 165 550 q 26 617 52 545 q 16 680 16 642 q 61 815 16 750 q 329 1011 149 947 q 503 1041 415 1041 q 559 1039 532 1041 l 462 580 q 606 605 545 605 q 780 535 720 605 q 840 348 840 465 q 823 231 840 295 q 770 110 807 168 q 678 14 734 53 q 558 -23 621 -23 q 417 31 451 -23 q 401 90 401 58 q 416 160 401 122 q 501 109 455 109 q 574 132 548 109 q 623 207 600 155 q 647 352 647 258 "},"n":{"x_min":-52.90625,"x_max":759.609375,"ha":701,"o":"m 529 185 q 579 126 529 126 q 651 155 626 126 q 701 248 676 185 l 759 248 q 541 -5 678 14 q 487 -8 519 -8 q 424 5 455 -8 q 337 148 337 42 q 368 330 337 205 q 400 502 400 455 q 349 573 400 573 q 260 494 299 573 q 241 445 248 472 l 147 0 l -52 0 l 94 694 l 294 694 l 279 622 q 441 699 347 699 q 552 663 507 699 q 596 554 596 626 q 573 392 596 482 l 539 257 q 529 185 529 213 "},"¤":{"x_min":94.265625,"x_max":602.9375,"ha":695,"o":"m 225 655 q 350 697 281 697 q 474 657 420 697 l 552 734 l 602 685 l 526 608 q 568 481 568 550 q 526 354 568 411 l 602 278 l 552 227 l 476 304 q 352 263 423 263 q 223 305 281 263 l 145 227 l 95 278 l 173 355 q 133 479 133 408 q 173 604 133 550 l 94 683 l 147 733 l 225 655 m 490 480 q 450 579 490 539 q 351 619 409 619 q 252 579 293 619 q 212 481 212 539 q 252 381 212 423 q 351 341 293 341 q 450 382 409 341 q 490 480 490 422 "},"p":{"x_min":-126.15625,"x_max":615.140625,"ha":650,"o":"m 155 41 l 83 -297 l -126 -347 l 105 746 l 305 746 l 283 641 q 445 701 352 701 q 602 585 565 701 q 615 489 615 543 q 608 380 615 434 q 586 270 602 325 q 545 166 571 216 q 482 76 520 115 q 392 14 444 37 q 262 -8 340 -8 q 155 41 185 -8 m 425 486 q 355 601 425 601 q 305 584 331 601 q 259 533 279 567 l 177 144 q 237 112 189 112 q 321 151 284 112 q 415 373 394 229 q 425 486 425 436 "},"‡":{"x_min":33.234375,"x_max":638.890625,"ha":688,"o":"m 130 -347 l 233 140 l 33 140 l 66 295 l 266 295 l 297 438 l 94 438 l 127 594 l 328 594 l 425 1041 l 524 1041 l 429 594 l 638 594 l 607 438 l 397 438 l 366 295 l 577 295 l 545 140 l 333 140 l 230 -347 l 130 -347 "},"Ю":{"x_min":16.953125,"x_max":1301.515625,"ha":1314,"o":"m 576 522 l 450 522 l 339 0 l 139 0 l 340 944 q 197 828 248 905 q 145 640 145 752 q 162 555 145 585 q 165 545 165 550 q 26 617 52 545 q 16 680 16 642 q 61 815 16 750 q 329 1011 149 947 q 503 1041 415 1041 q 559 1039 532 1041 l 470 625 l 611 625 q 813 885 688 822 q 905 908 858 908 q 983 897 952 908 q 865 747 923 861 q 755 381 785 588 q 746 265 746 318 q 826 104 746 104 q 931 161 878 104 q 1091 505 1038 279 q 1117 696 1117 616 q 1106 820 1117 775 q 925 963 1076 963 q 805 939 855 963 q 730 874 755 915 q 725 904 725 890 q 787 996 725 951 q 958 1041 849 1041 q 1218 952 1136 1041 q 1301 686 1301 864 q 1181 238 1301 448 q 952 24 1095 88 q 806 -8 879 -8 q 688 7 733 -8 q 610 55 642 22 q 558 141 577 88 q 540 291 540 194 q 576 522 540 389 "},"ę":{"x_min":-18.3125,"x_max":580.5625,"ha":533,"o":"m 427 -139 q 425 -181 425 -163 l 397 -208 q 279 -267 337 -267 q 192 -234 220 -267 q 164 -162 164 -201 q 257 -4 164 -80 q 198 -8 229 -8 q 40 43 99 -8 q -18 212 -18 94 q 62 519 -18 370 q 230 680 124 632 q 344 706 285 706 q 475 670 440 706 q 510 573 510 634 q 414 372 510 455 q 190 280 318 288 q 187 225 187 241 q 212 131 187 153 q 282 108 237 108 q 417 144 362 108 q 533 248 472 179 l 580 248 q 420 66 516 135 l 375 33 q 309 -23 324 -2 q 279 -116 279 -63 q 291 -163 279 -140 q 331 -185 304 -185 q 382 -168 358 -185 l 427 -139 m 402 583 q 368 633 402 633 q 269 543 317 632 q 201 347 222 455 q 342 421 281 352 q 402 583 402 491 "},"S":{"x_min":37.296875,"x_max":755.546875,"ha":791,"o":"m 577 763 q 640 892 640 799 q 618 948 640 919 q 537 976 596 976 q 444 945 478 976 q 409 862 409 913 q 423 781 409 811 q 508 671 447 725 l 565 619 q 668 507 641 552 q 722 324 722 417 q 602 56 722 151 q 331 -29 495 -29 q 61 100 129 -29 q 37 206 37 145 q 99 376 37 315 q 239 437 162 437 q 349 390 316 437 q 364 345 362 373 q 216 276 257 345 q 201 219 201 250 q 236 121 201 160 q 338 82 271 82 q 450 130 405 82 q 495 252 495 178 q 474 374 495 326 q 421 463 453 421 q 353 542 389 504 q 284 618 316 579 q 210 792 210 708 q 303 970 210 900 q 531 1041 396 1041 q 743 940 699 1041 q 755 863 755 912 q 725 773 755 813 q 648 734 694 734 q 577 763 602 734 "},"/":{"x_min":15.59375,"x_max":409.640625,"ha":432,"o":"m 15 -347 l 309 1041 l 409 1041 l 115 -347 l 15 -347 "},"ђ":{"x_min":-52.90625,"x_max":740.625,"ha":682,"o":"m 258 526 q 422 604 326 604 q 532 567 489 604 q 576 446 576 530 q 567 372 576 418 l 495 50 q 607 114 560 71 q 682 248 652 158 l 740 248 q 552 13 686 71 q 480 -10 514 -2 l 458 -111 q 293 -337 414 -305 q 208 -347 258 -347 q 113 -313 159 -347 q 67 -205 67 -280 q 143 -73 67 -130 q 295 -1 202 -27 l 366 326 q 374 362 371 347 l 378 383 q 380 406 380 398 q 330 478 380 478 q 262 440 293 478 q 221 349 232 402 l 147 0 l -52 0 l 94 694 l 19 694 l 34 769 l 111 769 l 148 944 l 354 972 l 311 769 l 484 769 l 467 694 l 294 694 l 258 526 m 282 -70 q 155 -152 183 -108 q 144 -185 144 -170 q 157 -224 144 -209 q 191 -238 170 -238 q 236 -208 213 -238 q 267 -133 258 -178 q 282 -70 276 -88 "},"y":{"x_min":-10.859375,"x_max":733.15625,"ha":675,"o":"m 190 187 q 230 126 190 126 q 297 158 269 126 q 340 240 324 191 l 437 694 l 637 694 l 499 50 q 603 114 562 71 q 674 248 644 157 l 733 248 q 554 12 680 69 q 487 -10 519 -2 l 466 -111 q 360 -303 440 -244 q 227 -347 302 -347 q 106 -314 151 -347 q 61 -207 61 -280 q 287 -5 61 -80 l 304 69 q 137 -8 232 -8 q 31 31 75 -8 q -10 158 -10 70 q 0 248 -10 197 l 94 694 l 294 694 l 194 222 q 190 187 190 204 m 273 -75 q 137 -193 137 -124 q 164 -234 137 -221 q 189 -238 172 -238 q 229 -208 206 -238 q 265 -115 251 -178 l 273 -75 "},"g":{"x_min":-18.3125,"x_max":762.328125,"ha":704,"o":"m 333 67 q 166 -8 261 -8 q -2 110 40 -8 q -18 207 -18 153 q -8 317 -18 262 q 20 425 0 371 q 144 623 63 545 q 339 701 225 701 q 425 681 398 701 q 451 630 451 661 l 451 622 l 466 694 l 666 694 l 529 50 q 633 114 592 71 q 704 248 674 157 l 762 248 q 583 12 709 69 q 516 -10 548 -2 l 495 -111 q 389 -303 469 -244 q 256 -347 331 -347 q 135 -314 181 -347 q 90 -207 90 -280 q 316 -5 90 -80 l 333 67 m 438 563 q 409 609 438 594 q 381 615 398 615 q 301 573 337 615 q 190 287 212 474 q 187 227 187 259 q 212 141 187 165 q 249 126 227 126 q 321 155 288 126 q 368 234 354 185 l 438 563 m 302 -75 q 166 -193 166 -124 q 193 -234 166 -221 q 219 -238 202 -238 q 258 -208 236 -238 q 294 -115 280 -178 l 302 -75 "},"²":{"x_min":4.0625,"x_max":385.90625,"ha":416,"o":"m 155 952 q 185 889 155 896 q 127 862 155 862 q 83 879 99 862 q 66 923 66 897 q 107 1007 66 973 q 233 1040 147 1040 q 385 921 385 1040 q 351 811 385 858 q 267 724 316 765 l 171 649 q 98 577 123 615 l 104 577 q 182 570 143 577 q 260 563 221 563 q 313 573 299 563 q 365 616 343 596 q 354 511 365 533 q 269 470 334 470 q 168 484 225 470 q 86 498 110 498 q 54 495 63 498 q 36 489 45 493 q 20 482 28 486 q 6 476 12 478 q 4 515 4 489 q 23 576 4 541 q 72 642 43 610 q 136 706 102 674 q 200 773 170 737 q 269 938 269 854 q 238 995 269 980 q 215 1000 229 1000 q 168 985 182 1000 q 155 952 155 970 "},"–":{"x_min":26.453125,"x_max":412.359375,"ha":489,"o":"m 26 308 l 51 417 l 412 417 l 388 308 l 26 308 "},"ë":{"x_min":-18.3125,"x_max":584.625,"ha":533,"o":"m 580 248 q 198 -8 424 -8 q 40 43 99 -8 q -18 212 -18 94 q 62 519 -18 370 q 230 680 124 632 q 344 706 285 706 q 475 670 440 706 q 510 573 510 634 q 414 372 510 455 q 190 280 318 288 q 187 225 187 241 q 212 131 187 153 q 282 108 237 108 q 417 144 362 108 q 533 248 472 179 l 580 248 m 402 583 q 368 633 402 633 q 269 543 317 632 q 201 347 222 455 q 342 421 281 352 q 402 583 402 491 m 309 819 q 257 796 284 796 q 189 820 212 796 q 165 879 165 844 q 189 940 165 914 q 249 965 213 965 q 309 940 284 965 q 335 879 335 915 q 309 819 335 844 m 559 819 q 507 796 533 796 q 439 819 463 796 q 415 879 415 843 q 439 940 415 915 q 499 965 463 965 q 559 940 534 965 q 584 879 584 915 q 559 819 584 844 "},"б":{"x_min":-18.3125,"x_max":777.921875,"ha":598,"o":"m 409 808 q 392 791 392 808 q 415 756 392 783 q 539 446 539 611 q 451 147 539 282 q 345 37 408 81 q 217 -5 283 -5 q 39 52 96 -5 q -18 229 -18 109 q 79 521 -18 396 q 360 657 187 657 q 373 656 368 657 q 384 655 379 655 q 326 717 356 689 q 271 773 297 746 q 215 890 215 835 q 251 969 215 944 q 365 994 287 994 l 638 994 q 701 1020 686 994 q 716 1061 710 1033 l 777 1061 q 698 854 744 903 q 634 817 672 827 q 543 808 597 808 l 409 808 m 201 140 q 253 119 218 119 q 313 141 288 119 q 356 198 337 163 q 407 348 390 261 q 423 486 423 436 q 410 554 423 536 q 367 572 396 572 q 310 551 337 572 q 263 497 284 530 q 205 354 225 438 q 184 216 184 270 q 201 140 184 161 "},"ƒ":{"x_min":-280.78125,"x_max":543.25,"ha":376,"o":"m 473 833 q 476 874 476 855 q 460 906 476 894 q 428 918 444 918 q 367 892 394 918 q 326 804 339 866 l 302 694 l 405 694 l 394 638 l 290 638 l 132 -111 q -116 -347 82 -347 q -230 -304 -181 -347 q -280 -206 -280 -262 q -261 -116 -280 -149 q -201 -54 -242 -84 q -41 10 -160 -25 l 91 638 l 8 638 l 19 694 l 103 694 l 126 804 q 379 1040 175 1040 q 493 998 443 1040 q 543 890 543 955 q 539 833 543 858 l 473 833 m -51 -34 q -153 -83 -126 -61 q -204 -177 -204 -124 q -170 -219 -204 -204 q -149 -223 -160 -223 q -69 -115 -94 -223 l -51 -34 "},"у":{"x_min":-10.859375,"x_max":733.15625,"ha":675,"o":"m 190 187 q 230 126 190 126 q 297 158 269 126 q 340 240 324 191 l 437 694 l 637 694 l 499 50 q 603 114 562 71 q 674 248 644 157 l 733 248 q 554 12 680 69 q 487 -10 519 -2 l 466 -111 q 360 -303 440 -244 q 227 -347 302 -347 q 106 -314 151 -347 q 61 -207 61 -280 q 287 -5 61 -80 l 304 69 q 137 -8 232 -8 q 31 31 75 -8 q -10 158 -10 70 q 0 248 -10 197 l 94 694 l 294 694 l 194 222 q 190 187 190 204 m 273 -75 q 137 -193 137 -124 q 164 -234 137 -221 q 189 -238 172 -238 q 229 -208 206 -238 q 265 -115 251 -178 l 273 -75 "},"J":{"x_min":23.734375,"x_max":803.015625,"ha":745,"o":"m 584 944 q 440 829 493 906 q 388 640 388 752 q 405 555 388 585 q 408 545 408 550 q 269 617 297 545 q 259 680 259 642 q 303 815 259 750 q 416 930 347 880 q 747 1041 574 1041 l 803 1041 l 594 55 q 475 -200 558 -113 q 229 -287 392 -287 q 75 -233 128 -287 q 23 -98 23 -179 q 69 38 23 -16 q 183 94 114 94 q 276 82 252 94 q 328 1 328 59 q 320 -54 328 -23 q 264 -20 282 -23 q 237 -18 247 -18 q 164 -50 189 -18 q 140 -115 140 -82 q 169 -194 140 -170 q 227 -218 198 -218 q 313 -184 284 -218 q 366 -47 342 -151 l 584 944 "},"Ã":{"x_min":12.203125,"x_max":1125.171875,"ha":928,"o":"m 297 47 q 283 -79 283 -26 q 302 -158 283 -131 q 187 -141 220 -158 q 116 -10 116 -105 q 237 393 116 132 q 320 554 275 474 q 213 534 255 550 q 158 482 172 518 q 170 468 164 482 q 176 434 176 454 q 153 399 176 413 q 105 384 130 384 q 36 405 60 384 q 12 463 12 427 q 92 585 12 535 q 295 636 174 636 q 368 632 323 636 q 607 925 480 809 q 851 1041 733 1041 q 961 1022 921 1041 l 743 0 l 543 0 l 649 503 q 463 554 557 545 q 297 47 339 278 m 493 613 q 662 565 590 594 l 743 943 q 493 613 623 878 m 1117 1277 l 1125 1276 q 1045 1181 1113 1226 q 901 1137 977 1137 q 803 1155 854 1137 q 724 1180 751 1172 q 668 1188 697 1188 q 576 1152 615 1188 l 568 1155 q 800 1292 635 1292 q 901 1276 853 1292 q 973 1253 948 1260 q 1041 1245 999 1245 q 1117 1277 1083 1245 "},"Ј":{"x_min":-111.234375,"x_max":668.046875,"ha":628,"o":"m 185 -54 q 99 -18 144 -18 q 29 -50 54 -18 q 5 -115 5 -82 q 34 -194 5 -170 q 93 -218 63 -218 q 179 -184 149 -218 q 231 -47 208 -149 l 450 944 q 306 829 358 906 q 254 640 254 752 q 269 555 254 583 q 273 545 273 550 q 134 617 162 545 q 124 680 124 642 q 168 815 124 750 q 281 930 212 880 q 612 1041 439 1041 l 668 1041 l 459 55 q 340 -200 423 -113 q 94 -287 257 -287 q -58 -233 -5 -287 q -111 -98 -111 -179 q -65 38 -111 -16 q 48 94 -20 94 q 142 82 118 94 q 194 1 194 59 q 185 -54 194 -25 "},"©":{"x_min":70.53125,"x_max":743.328125,"ha":815,"o":"m 584 347 q 510 277 555 302 q 418 252 465 252 q 270 316 330 252 q 210 467 210 379 q 270 613 210 554 q 416 672 330 672 q 529 632 482 668 q 588 540 575 595 l 523 515 l 514 542 q 419 600 493 600 q 326 569 366 600 q 287 473 287 537 q 326 367 287 409 q 419 324 364 324 q 480 341 451 324 q 523 387 508 358 l 584 347 m 70 459 q 169 712 70 609 q 406 815 268 815 q 644 711 545 815 q 743 461 743 608 q 644 209 743 314 q 406 105 545 105 q 169 208 267 105 q 70 459 70 311 m 683 459 q 603 670 683 584 q 408 755 522 755 q 214 669 294 755 q 134 459 134 583 q 214 249 134 335 q 408 164 294 164 q 603 249 523 164 q 683 459 683 335 "},"ґ":{"x_min":-52.90625,"x_max":527.65625,"ha":475,"o":"m 411 715 q 388 750 388 724 q 405 795 388 776 q 458 813 422 813 q 510 793 493 813 q 527 744 527 773 q 484 638 527 681 q 366 596 442 596 l 273 596 l 147 0 l -52 0 l 94 694 l 349 694 q 411 715 406 694 "},"D":{"x_min":8.140625,"x_max":895.9375,"ha":921,"o":"m 657 40 q 506 -18 586 -18 q 341 55 427 -18 l 330 0 l 130 0 l 319 883 l 524 910 l 358 132 q 437 104 396 104 q 549 160 499 104 q 685 501 644 267 q 704 715 704 608 q 501 978 704 978 q 240 886 342 978 q 137 640 137 794 q 153 555 137 583 q 156 545 156 550 q 18 614 46 545 q 8 680 8 639 q 26 768 8 722 q 79 854 45 813 q 267 989 148 937 q 524 1041 387 1041 q 859 839 775 1041 q 895 637 895 753 q 864 402 895 520 q 657 40 798 156 "},"ÿ":{"x_min":-10.859375,"x_max":733.15625,"ha":701,"o":"m 190 187 q 230 126 190 126 q 297 158 269 126 q 340 240 324 191 l 437 694 l 637 694 l 499 50 q 603 114 562 71 q 674 248 644 157 l 733 248 q 554 12 680 69 q 487 -10 519 -2 l 466 -111 q 360 -303 440 -244 q 227 -347 302 -347 q 106 -314 151 -347 q 61 -207 61 -280 q 287 -5 61 -80 l 304 69 q 137 -8 232 -8 q 31 31 75 -8 q -10 158 -10 70 q 0 248 -10 197 l 94 694 l 294 694 l 194 222 q 190 187 190 204 m 273 -75 q 137 -193 137 -124 q 164 -234 137 -221 q 189 -238 172 -238 q 229 -208 206 -238 q 265 -115 251 -178 l 273 -75 m 315 819 q 263 796 289 796 q 194 820 218 796 q 170 879 170 844 q 194 940 170 914 q 254 965 219 965 q 315 940 290 965 q 340 879 340 915 q 315 819 340 844 m 564 819 q 512 796 539 796 q 444 819 469 796 q 420 879 420 843 q 444 940 420 915 q 504 965 469 965 q 564 940 539 965 q 590 879 590 915 q 564 819 590 844 "},"ł":{"x_min":-47.46875,"x_max":448.984375,"ha":397,"o":"m 429 248 q 130 -8 339 -8 q 31 31 75 -8 q -10 160 -10 70 q 0 248 -10 197 l 31 397 l -47 345 l -47 426 l 51 486 l 148 944 l 354 972 l 284 642 l 448 741 l 442 657 l 263 548 l 194 222 q 189 172 189 197 q 245 126 189 126 q 321 161 286 126 q 370 248 356 196 l 429 248 "},"ц":{"x_min":-10.859375,"x_max":659.90625,"ha":743,"o":"m 190 183 q 231 126 190 126 q 343 248 305 126 l 437 694 l 637 694 l 537 222 q 531 173 531 198 q 588 126 531 126 l 659 126 q 547 -203 635 -118 q 467 -251 507 -242 q 394 -261 427 -261 l 236 -261 q 172 -286 188 -261 q 158 -327 164 -299 l 96 -327 q 177 -122 130 -170 q 240 -84 203 -94 q 331 -75 277 -75 l 440 -75 q 493 -73 469 -75 q 535 -60 516 -71 q 590 48 573 -36 q 497 -6 541 -1 q 466 -8 483 -8 q 383 24 417 -8 q 343 123 349 57 q 137 -8 261 -8 q 31 31 75 -8 q -10 158 -10 70 q 0 248 -10 197 l 94 694 l 294 694 l 194 222 q 190 183 190 200 "},"Ł":{"x_min":8.140625,"x_max":921.03125,"ha":545,"o":"m 222 409 l 132 355 l 134 429 l 240 497 l 331 929 q 188 815 239 891 q 137 626 137 739 q 153 541 137 570 q 156 531 156 536 q 17 602 45 531 q 8 666 8 628 q 164 916 8 802 q 495 1028 323 1028 q 551 1024 517 1028 l 474 659 l 636 755 l 630 670 l 454 562 l 337 27 q 457 -18 394 14 l 558 -73 q 804 -151 697 -151 q 921 -128 868 -151 q 871 -287 910 -227 q 776 -347 833 -347 q 564 -252 687 -347 q 405 -130 564 -252 q 156 -31 271 -31 l 141 -31 q 124 -33 133 -31 l 222 409 "},"Л":{"x_min":-41.375,"x_max":803.015625,"ha":762,"o":"m 124 -81 q 144 -158 124 -130 q 29 -141 62 -158 q -41 -10 -41 -105 q 67 370 -41 134 q 309 774 177 607 q 693 1041 520 1041 q 803 1022 763 1041 l 584 0 l 384 0 l 584 943 q 322 588 464 878 q 174 203 225 390 q 124 -81 124 15 "},"$":{"x_min":33.234375,"x_max":505.28125,"ha":560,"o":"m 384 657 q 417 729 417 676 q 407 762 417 744 q 373 790 397 780 l 323 567 l 377 527 q 480 357 480 456 q 412 204 480 257 q 230 148 343 151 l 190 -37 l 152 -37 l 185 149 q 77 190 122 154 q 33 308 33 226 q 62 395 33 362 q 127 427 92 427 q 178 417 162 427 q 193 393 193 406 q 137 290 137 381 q 154 238 137 259 q 196 205 172 216 l 245 478 l 193 518 q 116 599 134 563 q 98 670 98 634 q 164 794 98 741 q 312 849 231 847 l 339 996 l 419 996 l 384 845 q 461 817 438 836 q 505 732 505 784 q 438 625 505 625 q 384 657 411 625 m 242 200 q 314 242 292 206 q 335 329 335 278 q 294 430 335 381 l 242 200 m 302 797 q 246 756 261 788 q 230 687 230 725 q 269 609 230 649 l 302 797 "},"w":{"x_min":-10.859375,"x_max":897.28125,"ha":918,"o":"m 190 187 q 231 126 190 126 q 343 248 305 126 l 437 694 l 637 694 l 537 222 q 530 172 530 189 q 577 126 530 126 q 700 212 642 126 q 809 503 779 328 q 817 590 817 552 q 798 579 814 582 l 784 577 q 773 576 777 576 q 736 599 749 576 q 723 651 723 623 q 744 700 723 679 q 800 722 765 722 q 876 687 855 722 q 897 599 897 652 q 887 479 897 545 q 857 344 878 412 q 730 100 812 191 q 496 -8 632 -8 q 335 108 359 -8 q 137 -8 257 -8 q 31 31 75 -8 q -10 158 -10 70 q 0 248 -10 197 l 94 694 l 294 694 l 194 222 q 190 187 190 204 "},"\\":{"x_min":58.328125,"x_max":453.046875,"ha":503,"o":"m 352 -347 l 58 1041 l 158 1041 l 453 -347 l 352 -347 "},"о":{"x_min":-19.671875,"x_max":780.640625,"ha":610,"o":"m 780 527 q 534 412 696 439 q 425 108 518 222 q 202 -5 332 -5 q -3 112 42 -5 q -19 204 -19 153 q -11 306 -19 254 q 15 413 -2 358 q 135 614 56 537 q 360 706 229 706 q 539 484 539 706 l 539 483 q 562 482 545 482 q 658 505 599 482 q 768 565 716 529 l 780 527 m 419 408 q 381 470 381 417 q 425 541 381 522 q 411 604 422 585 q 367 622 400 622 q 245 481 303 622 q 187 231 187 341 q 199 146 187 164 q 225 124 211 128 q 261 119 238 119 q 356 202 309 119 q 419 408 402 286 "},"Д":{"x_min":-34.59375,"x_max":904.078125,"ha":929,"o":"m 331 69 q 128 -37 263 -37 q 14 5 63 -37 q -34 120 -34 47 q 18 243 -34 193 q 145 293 71 293 q 197 282 175 293 l 327 883 l 533 910 l 381 198 q 364 133 372 155 q 452 104 396 104 q 557 160 508 104 q 693 501 651 265 q 712 697 712 608 q 656 918 712 850 q 518 978 604 978 q 247 886 349 978 q 145 640 145 794 q 162 555 145 585 q 165 545 165 550 q 56 575 95 545 q 16 674 16 604 l 16 678 q 88 854 16 770 q 397 1028 198 985 q 548 1041 463 1041 q 704 1009 634 1041 q 904 641 904 916 q 872 402 904 520 q 666 40 806 155 q 519 -18 595 -18 q 331 69 414 -18 m 185 229 q 143 242 162 242 q 73 209 105 242 q 41 132 41 177 q 57 98 41 111 q 96 86 73 86 q 142 109 118 86 q 179 194 166 132 l 185 229 "},"Ì":{"x_min":8.140625,"x_max":551.390625,"ha":521,"o":"m 331 943 q 137 640 137 862 q 153 555 137 583 q 156 545 156 550 q 17 617 45 545 q 8 680 8 642 q 51 815 8 750 q 164 930 95 880 q 495 1041 322 1041 q 551 1039 524 1041 l 330 0 l 130 0 l 331 943 m 319 1126 l 237 1389 l 383 1389 l 423 1126 l 319 1126 "},"Ç":{"x_min":26.453125,"x_max":743.328125,"ha":690,"o":"m 743 855 q 645 727 743 727 q 567 763 596 727 q 611 814 592 777 q 630 888 630 851 q 611 951 630 925 q 549 976 592 976 q 471 948 507 976 q 402 870 434 919 q 297 621 338 773 q 257 345 257 469 q 293 166 257 221 q 417 111 329 111 q 694 250 591 111 l 726 236 q 473 2 659 67 q 370 -20 423 -14 l 342 -91 q 416 -80 385 -80 q 502 -150 502 -80 q 452 -261 502 -220 q 342 -302 401 -302 q 258 -294 283 -302 q 218 -278 233 -285 l 187 -263 q 238 -219 212 -219 q 300 -238 274 -219 q 345 -257 326 -257 q 375 -239 363 -257 q 387 -200 387 -221 q 374 -163 387 -179 q 328 -148 362 -148 q 261 -165 295 -148 l 311 -21 q 98 58 169 -18 q 26 309 26 135 q 84 657 26 484 q 282 964 151 862 q 511 1041 382 1041 q 725 940 672 1041 q 743 855 743 905 "},"ъ":{"x_min":-23.734375,"x_max":567,"ha":623,"o":"m 176 619 q 99 599 99 619 q 102 593 99 594 q 109 589 104 592 q 115 556 115 585 q 91 510 115 527 q 48 493 68 493 q -4 509 14 493 q -23 553 -23 525 q 20 651 -23 608 q 137 694 64 694 l 387 694 l 345 628 q 259 454 291 541 q 399 497 328 497 q 519 453 471 497 q 567 328 567 410 q 459 83 567 174 q 203 -8 352 -8 q 8 90 54 -8 q -8 167 -8 124 q 2 248 -8 209 q 32 327 13 288 q 75 405 50 366 q 185 552 120 474 l 244 619 l 176 619 m 316 394 q 234 370 271 394 q 193 233 197 269 q 189 180 189 198 q 244 109 189 109 q 343 179 302 109 q 384 321 384 248 q 316 394 384 394 "},"C":{"x_min":26.453125,"x_max":743.328125,"ha":690,"o":"m 743 855 q 645 727 743 727 q 567 763 596 727 q 611 814 592 777 q 630 888 630 851 q 611 951 630 925 q 549 976 592 976 q 471 948 507 976 q 402 870 434 919 q 297 621 338 773 q 257 345 257 469 q 293 166 257 221 q 417 111 329 111 q 694 250 591 111 l 726 236 q 473 2 659 67 q 329 -23 400 -23 q 325 -23 327 -23 q 99 56 171 -21 q 26 309 26 135 q 84 657 26 484 q 282 964 151 862 q 511 1041 382 1041 q 725 940 672 1041 q 743 855 743 905 "},"!":{"x_min":47.46875,"x_max":434.734375,"ha":357,"o":"m 136 320 l 234 972 l 434 972 l 254 320 l 136 320 m 267 111 q 236 32 267 65 q 158 0 204 0 q 80 32 112 0 q 47 110 47 65 q 80 188 47 156 q 158 221 112 221 q 236 188 204 221 q 267 111 267 156 "},"ç":{"x_min":-18.3125,"x_max":580.5625,"ha":533,"o":"m 343 706 q 510 580 510 706 q 488 502 510 527 q 439 478 466 478 q 387 494 412 478 q 404 576 404 539 q 364 633 404 633 q 280 561 324 633 q 193 308 217 459 q 187 208 187 263 q 282 108 187 108 q 417 144 362 108 q 533 248 472 179 l 580 248 q 324 13 472 71 q 303 6 314 9 l 263 -91 q 337 -80 307 -80 q 423 -150 423 -80 q 373 -261 423 -220 q 263 -302 322 -302 q 180 -294 204 -302 q 139 -278 155 -285 l 108 -263 q 160 -219 134 -219 q 222 -238 196 -219 q 266 -257 248 -257 q 296 -239 284 -257 q 308 -200 308 -221 q 296 -163 308 -179 q 249 -148 283 -148 q 182 -165 216 -148 l 239 -6 q 198 -8 219 -8 q 40 43 99 -8 q -18 212 -18 94 q 62 520 -18 371 q 229 680 123 632 q 343 706 284 706 "},"È":{"x_min":9.5,"x_max":685,"ha":638,"o":"m 266 579 q 181 749 181 640 q 269 951 181 857 q 486 1044 358 1044 q 628 999 572 1044 q 685 881 685 954 q 654 767 685 808 q 583 726 623 726 q 516 763 543 726 q 559 809 541 773 q 577 886 577 846 q 553 944 577 927 q 499 962 528 962 q 400 902 440 962 q 359 766 359 842 q 435 609 359 661 q 499 580 462 590 q 322 453 394 557 q 251 248 251 349 q 282 149 251 190 q 382 108 312 108 q 527 145 452 108 q 640 250 602 183 l 672 236 q 504 45 617 115 q 265 -25 392 -25 q 73 45 138 -25 q 9 225 9 115 q 80 442 9 335 q 266 579 151 550 m 432 1126 l 349 1389 l 495 1389 l 536 1126 l 432 1126 "},"Й":{"x_min":16.953125,"x_max":1019.375,"ha":979,"o":"m 598 0 l 750 714 l 339 0 l 139 0 l 340 944 q 197 828 248 905 q 145 640 145 752 q 162 555 145 585 q 165 545 165 550 q 26 617 52 545 q 16 680 16 642 q 61 815 16 750 q 329 1011 149 947 q 503 1041 415 1041 q 559 1039 532 1041 l 402 299 l 819 1039 l 1019 1039 l 798 0 l 598 0 m 600 1332 q 686 1252 686 1332 q 653 1190 686 1212 q 704 1184 674 1184 q 823 1219 770 1184 q 922 1347 889 1260 l 980 1347 q 776 1121 915 1158 q 687 1110 733 1110 q 554 1143 600 1110 q 507 1225 507 1175 q 532 1303 507 1275 q 600 1332 556 1332 "},"ﬁ":{"x_min":-287.5625,"x_max":800.296875,"ha":742,"o":"m 545 909 q 469 965 543 965 q 339 866 377 965 q 322 808 327 838 l 298 694 l 409 694 l 398 638 l 287 638 l 128 -111 q 24 -301 101 -241 q -113 -347 -35 -347 q -239 -305 -191 -347 q -287 -191 -287 -263 q -134 -18 -287 -75 q -47 10 -91 -2 l 107 741 q 432 1040 170 1040 q 670 938 626 1040 q 680 880 680 913 q 647 793 680 818 q 571 768 613 768 q 487 843 487 768 q 500 888 487 866 q 534 910 512 910 l 541 910 q 545 909 544 910 m 800 248 q 500 -8 710 -8 q 402 31 446 -8 q 360 158 360 70 q 370 248 360 197 l 465 694 l 665 694 l 565 222 q 560 172 560 197 q 616 126 560 126 q 692 161 657 126 q 741 248 727 196 l 800 248 m -56 -34 q -210 -168 -210 -84 q -191 -211 -210 -198 q -153 -223 -172 -223 q -109 -199 -133 -223 q -73 -115 -86 -174 l -56 -34 "},"X":{"x_min":8.140625,"x_max":869.484375,"ha":861,"o":"m 545 0 l 472 347 l 270 0 l 185 0 l 446 461 l 344 948 q 192 834 246 912 q 137 640 137 756 q 153 555 137 583 q 156 545 156 550 q 17 617 45 545 q 8 680 8 642 q 51 815 8 750 q 164 930 95 880 q 495 1041 322 1041 q 551 1039 524 1041 l 611 750 l 772 1034 l 869 1034 l 636 630 l 766 0 l 545 0 "},"ô":{"x_min":-27.125,"x_max":773.171875,"ha":602,"o":"m 773 527 q 526 412 689 439 q 417 108 510 222 q 195 -5 324 -5 q -10 112 35 -5 q -27 204 -27 153 q -18 306 -27 254 q 8 413 -10 358 q 128 614 49 537 q 353 706 221 706 q 531 484 531 706 l 531 483 q 554 482 538 482 q 650 505 592 482 q 760 565 709 529 l 773 527 m 411 408 q 374 470 374 417 q 417 541 374 522 q 403 604 415 585 q 360 622 392 622 q 238 481 296 622 q 179 231 179 341 q 191 146 179 164 q 217 124 204 128 q 253 119 231 119 q 348 202 301 119 q 411 408 395 286 m 495 779 l 411 890 l 193 779 l 132 779 l 426 1041 l 455 1041 l 539 779 l 495 779 "},"Б":{"x_min":16.953125,"x_max":887.796875,"ha":895,"o":"m 634 352 q 502 523 634 523 q 436 510 468 523 l 326 0 l 126 0 l 326 927 q 192 861 238 925 q 145 640 145 797 q 162 555 145 585 q 165 545 165 550 q 26 617 52 545 q 16 696 16 642 q 42 815 16 750 q 124 930 68 880 q 490 1041 249 1041 q 542 1039 511 1041 l 610 1033 q 773 1024 710 1024 q 887 1041 835 1024 l 877 991 q 821 892 864 925 q 755 874 796 874 q 520 902 663 874 l 451 580 q 594 605 535 605 q 768 535 709 605 q 828 344 828 464 q 758 111 828 223 q 666 15 722 54 q 524 -23 609 -23 q 404 31 438 -23 q 388 90 388 58 q 404 160 388 122 q 489 109 443 109 q 561 132 535 109 q 634 352 634 198 "},"г":{"x_min":-29.15625,"x_max":568.34375,"ha":521,"o":"m 568 248 q 197 -8 403 -8 q -29 148 -29 -8 q 47 301 -29 236 q 118 351 80 328 q 188 397 155 373 q 265 516 265 451 q 201 580 265 580 q 51 436 111 580 l -15 436 q 101 636 30 566 q 294 706 172 706 q 459 621 416 706 q 474 549 474 592 q 462 474 474 507 q 430 415 450 440 q 328 329 396 373 l 274 295 q 198 232 215 259 q 181 181 181 206 q 277 108 181 108 q 457 182 373 108 q 520 248 487 209 l 568 248 "},"х":{"x_min":0,"x_max":783.34375,"ha":725,"o":"m 587 628 q 522 705 522 628 q 550 757 522 741 q 607 773 579 773 q 673 735 652 773 q 694 656 694 697 q 682 583 694 614 q 585 439 659 523 l 501 344 l 514 247 q 537 159 522 181 q 567 132 553 138 q 600 126 581 126 q 674 160 640 126 q 725 248 709 195 l 783 248 q 644 39 731 103 q 505 -8 579 -8 q 499 -8 502 -8 q 330 233 368 -8 l 139 0 l 38 0 l 319 316 l 297 472 q 274 564 285 542 q 243 587 263 587 q 146 498 199 587 q 58 248 92 410 l 0 248 q 61 456 33 394 q 109 552 90 518 q 206 661 153 621 q 315 701 260 701 q 397 685 370 701 q 447 637 425 669 q 478 536 469 604 l 490 430 q 611 630 606 560 q 587 628 599 628 "},"}":{"x_min":41.375,"x_max":531.734375,"ha":489,"o":"m 314 153 l 323 -66 q 274 -245 323 -162 q 101 -345 215 -345 l 41 -345 l 54 -276 q 146 -264 124 -276 q 244 -48 240 -211 l 236 189 q 291 343 240 300 q 275 401 275 362 q 304 507 275 440 q 361 631 333 574 q 414 752 388 689 q 440 868 440 815 q 322 979 440 979 l 335 1041 l 347 1041 q 447 1032 415 1041 q 505 984 479 1023 q 531 901 531 945 q 522 823 531 857 q 463 682 505 761 l 427 607 q 365 422 365 477 q 422 379 365 379 q 466 383 438 379 l 450 304 q 398 308 424 308 q 326 256 349 308 q 314 153 314 223 "},"â":{"x_min":-18.3125,"x_max":788.765625,"ha":730,"o":"m 788 248 q 510 -8 700 -8 q 373 119 387 -8 q 161 -8 282 -8 q -2 110 40 -8 q -18 207 -18 153 q -8 317 -18 262 q 20 425 0 371 q 144 623 63 545 q 339 701 225 701 q 425 681 398 701 q 451 630 451 661 l 451 620 l 466 694 l 666 694 l 567 222 q 560 177 560 198 q 617 118 560 118 q 730 248 691 118 l 788 248 m 438 562 q 426 595 438 575 q 376 615 415 615 q 301 573 337 615 q 190 287 212 474 q 187 227 187 259 q 212 141 187 165 q 250 126 227 126 q 325 159 291 126 q 372 248 359 191 l 438 562 m 565 779 l 482 890 l 263 779 l 202 779 l 497 1041 l 526 1041 l 609 779 l 565 779 "},"ø":{"x_min":-19.671875,"x_max":784.703125,"ha":595,"o":"m 164 -143 l 193 -5 q -4 114 40 0 q -19 204 -19 155 q -11 304 -19 252 q 13 408 -4 355 q 135 616 54 532 q 344 705 217 700 l 372 840 l 444 840 l 415 698 q 534 495 530 668 q 740 579 631 500 l 784 579 q 683 490 756 535 q 531 425 610 444 q 448 143 520 255 q 266 2 377 31 l 236 -143 l 164 -143 m 416 412 q 377 479 377 423 q 421 550 377 535 q 405 606 417 590 q 361 622 393 622 q 297 580 330 622 q 201 350 233 497 q 187 240 187 283 q 202 142 187 164 q 250 119 217 119 q 354 202 309 119 q 416 412 400 286 "},"‰":{"x_min":124.796875,"x_max":1222.15625,"ha":1266,"o":"m 144 0 l 680 1041 l 780 1041 l 244 0 l 144 0 m 255 519 q 152 558 181 519 q 124 668 124 598 q 185 889 124 804 q 349 975 246 975 q 437 934 411 975 q 463 805 463 894 q 406 617 463 716 q 255 519 349 519 m 276 873 q 242 799 259 847 q 225 689 225 752 q 231 598 225 626 q 264 571 238 571 q 348 652 316 571 q 380 838 380 728 q 374 900 380 874 q 345 926 368 926 q 276 873 311 926 m 602 0 q 497 39 525 0 q 469 149 469 78 q 530 370 469 284 q 694 455 591 455 q 789 415 756 455 q 822 283 822 375 q 773 105 822 191 q 602 0 713 0 m 674 404 q 607 348 640 404 q 565 201 573 293 q 562 144 562 181 q 569 79 562 107 q 601 51 575 51 q 683 126 652 51 q 714 302 714 201 q 674 404 714 404 m 1002 0 q 896 38 924 0 q 869 147 869 77 q 930 370 869 284 q 1094 455 991 455 q 1189 415 1156 455 q 1222 283 1222 375 q 1173 105 1222 191 q 1002 0 1113 0 m 1074 404 q 1009 352 1041 404 q 962 141 962 275 q 969 79 962 107 q 1001 51 975 51 q 1083 125 1052 51 q 1113 301 1113 199 q 1074 404 1113 404 "},"Ä":{"x_min":12.203125,"x_max":1016.65625,"ha":928,"o":"m 297 47 q 283 -79 283 -26 q 302 -158 283 -131 q 187 -141 220 -158 q 116 -10 116 -105 q 237 393 116 132 q 320 554 275 474 q 213 534 255 550 q 158 482 172 518 q 170 468 164 482 q 176 434 176 454 q 153 399 176 413 q 105 384 130 384 q 36 405 60 384 q 12 463 12 427 q 92 585 12 535 q 295 636 174 636 q 368 632 323 636 q 607 925 480 809 q 851 1041 733 1041 q 961 1022 921 1041 l 743 0 l 543 0 l 649 503 q 463 554 557 545 q 297 47 339 278 m 493 613 q 662 565 590 594 l 743 943 q 493 613 623 878 m 741 1167 q 690 1143 716 1143 q 621 1167 645 1143 q 597 1226 597 1191 q 621 1287 597 1262 q 681 1312 645 1312 q 741 1287 716 1312 q 767 1227 767 1262 q 741 1167 767 1191 m 991 1167 q 940 1143 965 1143 q 871 1167 895 1143 q 847 1226 847 1190 q 871 1287 847 1262 q 931 1312 895 1312 q 991 1287 966 1312 q 1016 1227 1016 1262 q 991 1167 1016 1191 "},"Ч":{"x_min":16.953125,"x_max":1005.796875,"ha":965,"o":"m 683 462 q 478 408 592 408 q 297 516 341 408 q 282 618 282 554 q 297 751 282 682 l 340 944 q 197 828 248 905 q 145 640 145 752 q 162 555 145 585 q 165 545 165 550 q 26 617 52 545 q 16 680 16 642 q 61 815 16 750 q 329 1011 149 947 q 503 1041 415 1041 q 559 1039 532 1041 l 497 751 q 478 622 478 656 q 507 540 478 564 q 577 516 536 516 q 704 560 650 516 l 805 1039 l 1005 1039 l 784 0 l 584 0 l 683 462 "},"—":{"x_min":26.453125,"x_max":537.828125,"ha":617,"o":"m 26 308 l 51 417 l 537 417 l 514 308 l 26 308 "},"N":{"x_min":8.140625,"x_max":991.5625,"ha":928,"o":"m 602 0 l 484 726 l 330 0 l 130 0 l 330 943 q 187 828 238 904 q 137 640 137 752 q 153 555 137 583 q 156 545 156 550 q 17 617 45 545 q 8 681 8 642 q 20 763 8 720 q 56 845 33 805 q 198 987 108 932 q 401 1041 287 1041 q 466 1039 434 1041 q 530 1022 499 1037 l 640 286 l 791 1039 l 991 1039 l 771 0 l 602 0 "},"2":{"x_min":-15.59375,"x_max":641.59375,"ha":684,"o":"m 377 1040 q 641 816 641 1040 q 438 454 641 626 l 326 362 q 224 274 271 318 q 147 183 176 230 l 153 183 q 279 170 216 183 q 398 158 341 158 q 479 164 455 158 q 562 212 522 175 l 605 254 q 607 222 607 237 l 607 193 q 573 33 607 82 q 451 -15 539 -15 q 296 1 363 -15 q 189 26 228 18 q 118 34 150 34 q 40 18 75 34 l -12 -4 q -15 18 -15 6 l -15 41 q 17 179 -15 117 q 210 419 72 282 q 407 683 347 556 q 441 851 441 758 q 414 933 441 902 q 354 965 387 965 q 267 937 290 965 q 244 857 244 910 q 272 773 244 803 q 297 758 282 762 q 196 711 244 711 q 120 743 148 711 q 91 823 91 775 q 162 978 91 916 q 377 1040 232 1040 "},"ü":{"x_min":-10.859375,"x_max":759.609375,"ha":701,"o":"m 759 248 q 480 -8 671 -8 q 343 123 356 -8 q 137 -8 261 -8 q 31 31 75 -8 q -10 158 -10 70 q 0 248 -10 197 l 94 694 l 294 694 l 194 222 q 190 183 190 200 q 231 126 190 126 q 343 248 305 126 l 437 694 l 637 694 l 537 222 q 531 173 531 198 q 588 126 531 126 q 701 248 666 126 l 759 248 m 333 819 q 282 796 307 796 q 213 820 237 796 q 189 879 189 844 q 212 940 189 914 q 272 965 237 965 q 333 940 308 965 q 358 879 358 915 q 333 819 358 844 m 583 819 q 531 796 557 796 q 463 819 487 796 q 438 879 438 843 q 463 940 438 915 q 522 965 487 965 q 583 940 558 965 q 608 879 608 915 q 583 819 608 844 "},"М":{"x_min":92.921875,"x_max":1117.03125,"ha":1131,"o":"m 244 545 q 95 672 95 545 q 237 923 95 803 q 378 1009 299 976 q 524 1041 458 1041 q 642 1022 590 1041 l 611 290 l 916 1022 l 1117 1022 l 971 0 l 771 0 l 859 623 l 598 0 l 408 0 l 436 626 l 204 0 l 92 0 l 445 954 q 283 840 341 919 q 225 641 225 760 q 241 554 225 581 q 244 545 244 550 "},"ь":{"x_min":-8.140625,"x_max":567,"ha":623,"o":"m 248 469 q 371 497 315 497 q 518 448 470 497 q 567 318 567 399 q 518 155 567 237 q 368 25 470 74 q 201 -8 299 -8 q 47 39 103 -8 q -8 169 -8 86 q 1 248 -8 206 l 95 694 l 295 694 l 248 469 m 193 205 q 189 166 189 193 q 248 109 189 109 q 342 173 300 109 q 384 291 384 238 q 309 394 384 394 q 227 369 265 394 l 193 205 "},"Ó":{"x_min":22.375,"x_max":910.859375,"ha":914,"o":"m 581 1041 q 910 686 910 1041 q 790 238 910 446 q 562 24 705 88 q 416 -8 489 -8 q 298 6 343 -8 q 149 270 149 56 q 203 575 149 413 q 438 903 288 835 q 523 922 479 922 q 598 910 568 922 q 479 756 538 874 q 364 382 394 588 q 355 265 355 318 q 436 104 355 104 q 437 104 436 104 q 571 202 504 104 q 682 448 638 299 q 726 730 726 597 q 689 921 726 864 q 548 978 653 978 q 265 879 381 978 q 148 620 148 780 q 155 566 148 579 q 162 545 162 553 q 58 572 94 545 q 22 666 22 598 q 68 803 22 734 q 371 1010 166 946 q 581 1041 473 1041 m 551 1126 l 677 1389 l 823 1389 l 655 1126 l 551 1126 "},"˜":{"x_min":52.90625,"x_max":609.71875,"ha":560,"o":"m 601 930 l 609 929 q 530 834 598 878 q 385 790 461 790 q 287 807 339 790 q 208 833 236 825 q 152 841 181 841 q 61 805 100 841 l 52 808 q 284 944 120 944 q 385 928 338 944 q 458 905 432 912 q 526 898 484 898 q 601 930 568 898 "},"ˇ":{"x_min":139.03125,"x_max":545.96875,"ha":408,"o":"m 251 779 l 222 779 l 139 1041 l 183 1041 l 266 930 l 484 1041 l 545 1041 l 251 779 "},"Ÿ":{"x_min":8.140625,"x_max":969.859375,"ha":861,"o":"m 385 0 l 478 427 l 344 948 q 192 834 246 912 q 137 640 137 756 q 153 555 137 583 q 156 545 156 550 q 17 617 45 545 q 8 680 8 642 q 51 815 8 750 q 164 930 95 880 q 495 1041 322 1041 q 551 1039 524 1041 l 672 541 l 877 1034 l 969 1034 l 699 427 l 608 0 l 385 0 m 671 1167 q 619 1143 645 1143 q 551 1167 575 1143 q 526 1226 526 1191 q 550 1287 526 1262 q 610 1312 575 1312 q 671 1287 646 1312 q 696 1227 696 1262 q 671 1167 696 1191 m 921 1167 q 869 1143 895 1143 q 800 1167 825 1143 q 776 1226 776 1190 q 800 1287 776 1262 q 860 1312 825 1312 q 921 1287 895 1312 q 946 1227 946 1262 q 921 1167 946 1191 "},"Ў":{"x_min":16.953125,"x_max":991.5625,"ha":895,"o":"m 467 111 q 551 213 516 130 l 352 948 q 200 834 255 912 q 145 640 145 756 q 162 555 145 585 q 165 545 165 550 q 26 617 52 545 q 16 680 16 642 q 61 815 16 750 q 329 1011 149 947 q 503 1041 415 1041 q 559 1039 532 1041 l 680 518 l 900 1034 l 991 1034 l 644 213 q 569 79 603 120 q 407 -6 495 -6 q 293 54 318 -6 q 286 106 286 72 q 311 167 286 141 q 377 193 336 193 q 467 111 456 193 m 608 1332 q 694 1252 694 1332 q 661 1190 694 1212 q 712 1184 682 1184 q 831 1219 778 1184 q 930 1347 897 1260 l 988 1347 q 784 1121 923 1158 q 695 1110 741 1110 q 562 1143 609 1110 q 515 1225 515 1175 q 540 1303 515 1275 q 608 1332 564 1332 "},"€":{"x_min":-4.0625,"x_max":823.359375,"ha":796,"o":"m 823 855 q 726 727 823 727 q 647 763 677 727 q 703 847 684 777 q 708 875 708 864 q 693 935 708 911 q 619 976 670 976 q 464 875 529 976 q 362 623 398 775 l 642 623 l 623 554 l 347 554 q 341 508 343 530 q 336 463 339 486 l 608 463 l 588 394 l 331 394 l 331 376 q 368 174 331 233 q 519 116 406 116 q 687 145 632 116 q 729 172 708 155 l 731 132 q 593 21 670 50 q 405 -8 516 -8 q 213 62 293 -8 q 113 345 113 149 l 113 394 l -4 394 l 15 463 l 118 463 q 128 554 126 533 l 30 554 l 50 623 l 143 623 q 410 1007 211 914 q 581 1041 483 1041 q 804 940 748 1041 q 823 855 823 905 "},"в":{"x_min":-19.671875,"x_max":769.78125,"ha":624,"o":"m 534 415 q 541 334 541 391 q 519 214 541 278 q 454 102 497 151 q 210 -5 360 -5 q 38 62 96 -5 q -19 242 -19 130 q 36 540 -19 354 q 189 881 97 742 q 415 1043 296 1043 q 521 999 480 1043 q 563 847 563 955 q 488 591 563 739 l 450 519 q 502 478 480 504 q 704 534 594 478 q 756 565 734 550 l 769 527 q 534 415 688 442 m 187 240 q 271 119 187 119 q 375 179 336 119 q 415 302 415 240 q 402 389 415 365 q 350 381 381 381 q 300 399 320 381 q 280 444 280 417 q 306 510 280 491 q 377 533 331 529 q 466 775 441 648 q 474 860 474 819 q 463 917 474 901 q 430 934 453 934 q 340 846 387 934 q 208 411 263 699 q 187 240 187 300 "},"С":{"x_min":26.453125,"x_max":743.328125,"ha":690,"o":"m 743 855 q 645 727 743 727 q 567 763 596 727 q 611 814 592 777 q 630 888 630 851 q 611 951 630 925 q 549 976 592 976 q 471 948 507 976 q 402 870 434 919 q 297 621 338 773 q 257 345 257 469 q 293 166 257 221 q 417 111 329 111 q 694 250 591 111 l 726 236 q 473 2 659 67 q 329 -23 400 -23 q 325 -23 327 -23 q 99 56 171 -21 q 26 309 26 135 q 84 657 26 484 q 282 964 151 862 q 511 1041 382 1041 q 725 940 672 1041 q 743 855 743 905 "},"ß":{"x_min":-118.015625,"x_max":562.25,"ha":625,"o":"m -118 -347 l 112 735 q 219 928 139 869 q 368 972 280 972 q 506 921 457 972 q 555 802 555 869 q 522 678 555 735 q 427 592 489 621 q 531 513 501 568 q 562 391 562 458 q 549 267 562 324 q 516 166 537 210 q 417 44 478 86 q 298 0 356 1 q 252 2 274 0 l 270 84 q 404 261 363 84 q 422 424 422 336 q 400 500 422 470 q 322 545 379 530 l 347 626 q 426 681 390 644 q 462 769 462 718 q 450 835 462 820 q 417 849 437 849 q 353 824 381 849 q 312 735 324 798 l 91 -297 l -118 -347 "},"њ":{"x_min":-52.90625,"x_max":908.140625,"ha":964,"o":"m 590 469 q 734 497 656 497 q 860 448 813 497 q 908 318 908 400 q 815 95 908 199 q 713 25 781 59 q 549 -8 644 -8 q 399 39 454 -8 q 344 169 344 86 q 354 248 344 206 l 372 333 l 218 333 l 147 0 l -52 0 l 94 694 l 294 694 l 234 416 l 392 416 l 453 694 l 638 694 l 590 469 m 534 205 q 530 166 530 193 q 590 109 530 109 q 683 173 640 109 q 726 291 726 237 q 651 394 726 394 q 569 369 607 394 l 534 205 "},"s":{"x_min":-44.765625,"x_max":588.703125,"ha":530,"o":"m 588 248 q 376 75 502 148 q 158 -8 297 -8 q 7 45 60 -8 q -44 158 -44 98 q -21 251 -44 218 q 29 298 1 284 q 200 710 126 473 l 405 737 q 416 519 411 607 l 433 299 q 436 234 436 266 q 430 179 436 202 q 530 248 491 214 l 588 248 m 101 101 q 234 230 234 101 q 229 315 234 266 l 221 394 q 208 559 213 470 q 95 297 172 445 q 127 252 127 282 q 110 201 127 223 q 66 180 94 180 q 29 198 37 180 q 101 101 29 101 "},"?":{"x_min":66.46875,"x_max":590.734375,"ha":612,"o":"m 283 690 q 181 632 246 632 q 108 661 141 632 q 76 737 76 690 q 143 895 76 832 q 368 972 223 972 q 582 869 554 972 q 590 815 590 840 q 590 788 590 790 q 448 541 590 647 l 373 480 q 257 322 284 404 l 165 322 q 230 486 165 403 q 291 556 259 522 q 352 626 324 590 q 417 793 417 712 q 339 897 417 897 q 265 864 300 897 q 230 782 230 830 q 258 705 230 733 q 283 690 268 694 m 287 111 q 255 32 287 65 q 178 0 223 0 q 99 32 132 0 q 66 110 66 65 q 99 188 66 156 q 178 221 132 221 q 255 188 223 221 q 287 111 287 156 "},"c":{"x_min":-18.3125,"x_max":580.5625,"ha":533,"o":"m 343 706 q 510 580 510 706 q 488 502 510 527 q 439 478 466 478 q 387 494 412 478 q 404 576 404 539 q 364 633 404 633 q 280 561 324 633 q 193 308 217 459 q 187 208 187 263 q 282 108 187 108 q 417 144 362 108 q 533 248 472 179 l 580 248 q 198 -8 424 -8 q 40 43 99 -8 q -18 212 -18 94 q 62 520 -18 371 q 229 680 123 632 q 343 706 284 706 "},"¶":{"x_min":99.703125,"x_max":704,"ha":753,"o":"m 385 -112 l 498 415 q 438 400 474 406 l 331 -112 l 201 -112 l 308 400 q 153 499 207 418 q 99 682 99 579 q 191 930 99 821 q 454 1040 284 1040 q 683 916 624 1040 q 704 820 704 873 q 693 711 704 768 l 516 -112 l 385 -112 m 577 791 q 585 861 585 830 q 554 947 585 918 l 454 470 l 462 470 q 511 476 488 470 l 577 791 "},"•":{"x_min":166.84375,"x_max":434.734375,"ha":603,"o":"m 434 370 q 394 276 434 315 q 299 237 354 237 q 205 276 244 237 q 166 370 166 315 q 205 465 166 425 q 299 505 244 505 q 394 465 355 505 q 434 370 434 425 "},"н":{"x_min":-52.90625,"x_max":762.328125,"ha":704,"o":"m 340 139 q 372 333 340 186 l 218 333 l 147 0 l -52 0 l 94 694 l 294 694 l 234 416 l 389 416 l 453 694 l 638 694 l 565 349 l 541 242 q 531 184 531 202 q 587 126 531 126 q 654 158 629 126 q 704 248 679 190 l 762 248 q 503 -8 674 -8 q 382 33 423 -8 q 340 139 340 76 "},"":{"x_min":180.40625,"x_max":654.484375,"ha":700,"o":"m 272 983 q 359 904 359 983 q 326 841 359 863 q 378 836 347 836 q 497 870 444 836 q 596 999 562 912 l 654 999 q 450 773 589 809 q 360 762 406 762 q 227 794 275 762 q 180 876 180 826 q 205 954 180 926 q 272 983 230 983 "},"(":{"x_min":191.9375,"x_max":662.625,"ha":607,"o":"m 293 101 q 394 -307 293 -153 l 348 -347 q 191 139 191 -174 q 223 412 191 271 q 457 895 289 705 q 644 1041 543 992 l 662 986 q 400 640 510 910 q 306 285 333 477 q 293 101 293 191 "},"м":{"x_min":-52.90625,"x_max":1131.953125,"ha":1074,"o":"m 1131 248 q 873 -8 1044 -8 q 751 33 793 -8 q 710 136 710 76 q 739 323 710 196 l 760 422 l 555 0 l 360 0 l 336 423 l 318 336 q 285 188 301 252 q 246 81 269 124 q 99 -8 198 -8 q -13 40 26 -8 q -52 144 -52 88 q -30 227 -52 200 q 29 255 -7 255 q 85 235 65 255 q 105 182 105 215 q 88 132 105 148 q 50 119 71 116 q 59 85 48 103 q 106 66 70 66 q 164 90 141 66 q 201 154 187 115 q 226 245 216 194 q 247 349 236 296 l 320 694 l 515 694 l 544 161 l 803 694 l 1008 694 q 914 260 927 318 q 901 184 901 202 q 956 126 901 126 q 1024 158 999 126 q 1073 248 1049 190 l 1131 248 "},"­":{"x_min":26.453125,"x_max":328.9375,"ha":403,"o":"m 26 308 l 51 417 l 328 417 l 305 308 l 26 308 "},"з":{"x_min":0,"x_max":750.109375,"ha":692,"o":"m 78 -212 q 295 -8 78 -80 q 196 139 291 139 l 152 139 l 170 222 l 210 222 q 333 291 285 222 q 381 461 381 360 q 297 580 381 580 q 164 503 222 580 q 58 248 105 427 l 0 248 q 65 466 39 404 q 186 648 116 590 q 364 706 256 706 q 531 649 472 706 q 591 477 591 591 q 504 268 591 363 q 425 200 460 219 q 376 179 389 181 q 442 131 409 167 q 490 40 476 95 q 614 108 569 64 q 691 248 659 151 l 750 248 q 564 8 696 67 q 495 -15 528 -6 q 421 -259 493 -170 q 233 -347 350 -347 q 123 -314 168 -347 q 78 -212 78 -280 m 291 -75 q 153 -193 153 -123 q 165 -225 153 -212 q 196 -238 177 -238 q 257 -190 231 -238 q 291 -75 282 -143 "},":":{"x_min":56.96875,"x_max":347.25,"ha":371,"o":"m 278 187 q 244 109 278 141 q 166 78 211 78 q 88 109 120 78 q 56 187 56 141 q 88 265 56 232 q 166 298 120 298 q 245 265 212 298 q 278 187 278 233 m 314 599 q 347 520 347 567 q 314 442 347 474 q 236 411 281 411 q 158 442 191 411 q 126 520 126 474 q 158 599 126 566 q 236 632 190 632 q 314 599 282 632 "},"Ґ":{"x_min":16.953125,"x_max":897.28125,"ha":599,"o":"m 704 874 q 519 902 649 874 l 326 0 l 126 0 l 326 927 q 191 862 236 925 q 145 640 145 798 q 162 555 145 585 q 165 545 165 550 q 26 617 52 545 q 16 685 16 642 q 27 771 16 727 q 61 856 37 816 q 219 992 112 942 q 498 1041 326 1041 q 598 1033 533 1041 q 697 1026 663 1026 q 798 1079 765 1026 q 836 1208 818 1112 q 881 1144 865 1183 q 897 1064 897 1105 q 845 925 897 976 q 704 874 792 874 "},"і":{"x_min":-10.859375,"x_max":429.3125,"ha":371,"o":"m 343 878 q 310 801 343 832 q 231 769 277 769 q 153 801 185 769 q 122 878 122 833 q 153 957 122 924 q 231 990 185 990 q 310 957 278 990 q 343 878 343 925 m 429 248 q 130 -8 339 -8 q 31 31 75 -8 q -10 158 -10 70 q 0 248 -10 197 l 94 694 l 294 694 l 194 222 q 189 172 189 197 q 245 126 189 126 q 321 161 286 126 q 370 248 356 196 l 429 248 "},"Û":{"x_min":0,"x_max":1057.34375,"ha":999,"o":"m 861 1039 l 1057 1039 l 965 605 q 856 225 912 347 q 678 27 790 79 q 503 -9 598 -9 q 357 5 408 -9 q 274 47 305 19 q 215 208 215 101 q 249 457 215 315 l 375 961 q 194 849 260 930 q 128 641 128 769 q 145 554 128 582 q 148 545 148 550 q 10 613 38 545 q 0 673 0 638 q 44 813 0 747 q 328 1011 137 951 q 524 1041 424 1041 q 591 1034 555 1041 l 449 507 q 404 261 404 331 q 425 159 404 191 q 507 126 446 126 q 594 146 567 126 q 680 281 644 183 q 768 609 717 379 l 861 1039 m 866 1126 l 783 1237 l 564 1126 l 503 1126 l 798 1389 l 827 1389 l 910 1126 l 866 1126 "},"V":{"x_min":8.140625,"x_max":952.90625,"ha":855,"o":"m 366 0 l 344 948 q 192 834 246 912 q 137 640 137 756 q 153 555 137 583 q 156 545 156 550 q 17 617 45 545 q 8 680 8 642 q 51 815 8 750 q 164 930 95 880 q 495 1041 322 1041 q 551 1039 524 1041 l 563 184 l 855 1034 l 952 1034 l 567 0 l 366 0 "},"ś":{"x_min":-44.765625,"x_max":588.703125,"ha":530,"o":"m 588 248 q 376 75 502 148 q 158 -8 297 -8 q 7 45 60 -8 q -44 158 -44 98 q -21 251 -44 218 q 29 298 1 284 q 200 710 126 473 l 405 737 q 416 519 411 607 l 433 299 q 436 234 436 266 q 430 179 436 202 q 530 248 491 214 l 588 248 m 101 101 q 234 230 234 101 q 229 315 234 266 l 221 394 q 208 559 213 470 q 95 297 172 445 q 127 252 127 282 q 110 201 127 223 q 66 180 94 180 q 29 198 37 180 q 101 101 29 101 m 295 779 l 421 1041 l 567 1041 l 399 779 l 295 779 "},"У":{"x_min":16.953125,"x_max":991.5625,"ha":895,"o":"m 467 111 q 551 213 516 130 l 352 948 q 200 834 255 912 q 145 640 145 756 q 162 555 145 585 q 165 545 165 550 q 26 617 52 545 q 16 680 16 642 q 61 815 16 750 q 329 1011 149 947 q 503 1041 415 1041 q 559 1039 532 1041 l 680 518 l 900 1034 l 991 1034 l 644 213 q 569 79 603 120 q 406 -6 495 -6 q 293 54 318 -6 q 286 106 286 72 q 311 167 286 141 q 377 193 336 193 q 467 111 456 193 "},"@":{"x_min":-10.859375,"x_max":682.296875,"ha":781,"o":"m 343 581 q 399 599 368 599 l 400 600 q 450 575 430 600 l 455 597 l 531 588 l 469 322 q 463 284 463 304 q 483 263 463 263 q 579 493 537 263 q 588 568 588 543 q 565 648 588 621 q 475 685 535 685 q 371 666 415 685 q 291 615 327 647 q 181 448 221 552 q 141 246 141 344 q 177 110 141 149 q 300 71 213 71 q 434 93 386 71 q 519 164 482 115 q 551 109 551 151 q 476 -8 551 33 q 265 -52 398 -52 q 60 11 132 -52 q -10 227 -10 75 q 128 614 -10 455 q 337 754 217 715 q 447 773 398 773 q 533 766 496 773 q 659 670 618 750 q 682 557 682 627 q 661 422 682 487 q 608 304 641 356 q 532 221 575 252 q 446 189 490 189 q 384 221 402 189 q 302 166 348 166 q 213 259 213 166 q 254 448 213 352 q 343 581 295 545 m 328 251 q 375 270 346 251 q 379 299 375 284 l 438 530 q 406 541 429 541 q 362 510 383 541 q 305 320 316 443 q 304 294 304 305 q 328 251 304 251 "},"¾":{"x_min":84.78125,"x_max":1077.703125,"ha":1137,"o":"m 354 -229 l 720 1041 l 820 1041 l 454 -229 l 354 -229 m 833 1 l 880 208 l 685 208 q 714 275 695 238 l 752 352 q 801 518 801 453 q 796 563 801 541 q 858 546 831 563 q 886 493 886 529 q 803 314 886 419 q 768 262 783 288 l 893 262 l 958 548 l 1077 563 l 1008 262 l 1061 262 l 1044 208 l 995 208 l 948 1 l 833 1 m 174 415 q 239 355 174 355 q 316 394 287 355 q 344 480 344 433 q 319 568 344 528 q 240 626 295 609 q 340 686 303 642 q 377 765 377 730 q 326 833 377 833 q 253 773 253 833 q 265 735 253 746 q 284 722 276 724 q 225 695 252 695 q 181 713 198 695 q 164 756 164 730 q 209 839 164 806 q 331 873 254 873 q 444 840 408 873 q 480 767 480 808 q 370 624 480 676 q 447 576 423 609 q 470 505 470 543 q 409 370 470 432 q 263 307 349 307 q 103 364 147 307 q 84 435 84 388 q 108 512 84 482 q 184 543 132 543 q 245 505 236 543 q 176 446 182 498 q 174 415 174 431 "},"i":{"x_min":-10.859375,"x_max":429.3125,"ha":371,"o":"m 343 878 q 310 801 343 832 q 231 769 277 769 q 153 801 185 769 q 122 878 122 833 q 153 957 122 924 q 231 990 185 990 q 310 957 278 990 q 343 878 343 925 m 429 248 q 130 -8 339 -8 q 31 31 75 -8 q -10 158 -10 70 q 0 248 -10 197 l 94 694 l 294 694 l 194 222 q 189 172 189 197 q 245 126 189 126 q 321 161 286 126 q 370 248 356 196 l 429 248 "},"₳":{"x_min":8.140625,"x_max":823.359375,"ha":796,"o":"m 229 463 l 319 883 l 524 910 l 429 459 q 599 569 530 467 q 669 796 669 672 q 575 963 669 920 q 497 978 542 978 q 232 889 327 978 q 137 640 137 800 q 153 555 137 583 q 156 545 156 550 q 17 617 45 545 q 8 680 8 642 q 51 815 8 750 q 164 930 95 880 q 489 1041 322 1041 q 739 963 656 1041 q 823 768 823 884 q 795 635 823 701 q 716 515 768 569 q 422 396 599 396 l 415 396 l 396 308 l 597 308 l 577 238 l 381 238 l 330 0 l 130 0 l 181 238 l 69 238 l 88 308 l 196 308 l 215 394 l 108 394 l 127 463 l 229 463 "},"ќ":{"x_min":-52.90625,"x_max":754.1875,"ha":696,"o":"m 351 437 q 409 442 382 442 q 513 409 484 442 q 541 314 541 375 q 539 281 541 297 l 533 248 q 524 177 524 200 q 580 126 524 126 q 645 155 622 126 q 695 248 668 184 l 754 248 q 501 -8 666 -8 q 375 33 416 -8 q 333 145 333 75 q 341 217 333 180 q 349 278 349 254 q 297 344 349 344 q 248 325 272 344 l 208 293 l 147 0 l -52 0 l 95 694 l 295 694 l 236 419 l 322 508 l 389 581 q 493 679 455 651 q 582 706 532 706 q 655 680 632 706 q 678 614 678 654 q 656 549 678 573 q 591 524 634 524 q 531 548 548 524 q 515 582 515 571 l 515 596 q 444 538 476 572 l 393 481 q 351 437 373 459 m 322 779 l 448 1041 l 594 1041 l 425 779 l 322 779 "},"ё":{"x_min":-18.3125,"x_max":584.625,"ha":533,"o":"m 580 248 q 198 -8 424 -8 q 40 43 99 -8 q -18 212 -18 94 q 62 519 -18 370 q 230 680 124 632 q 344 706 285 706 q 475 670 440 706 q 510 573 510 634 q 414 372 510 455 q 190 280 318 288 q 187 225 187 241 q 212 131 187 153 q 282 108 237 108 q 417 144 362 108 q 533 248 472 179 l 580 248 m 402 583 q 368 633 402 633 q 269 543 317 632 q 201 347 222 455 q 342 421 281 352 q 402 583 402 491 m 559 819 q 507 796 533 796 q 439 819 463 796 q 415 879 415 843 q 439 940 415 915 q 499 965 463 965 q 559 940 534 965 q 584 879 584 915 q 559 819 584 844 m 309 819 q 257 796 284 796 q 189 820 212 796 q 165 879 165 844 q 189 940 165 914 q 249 965 213 965 q 309 940 284 965 q 335 879 335 915 q 309 819 335 844 "},"m":{"x_min":-52.90625,"x_max":1102.796875,"ha":1044,"o":"m 858 -8 q 680 148 680 -8 q 712 330 680 205 q 743 502 743 455 q 693 573 743 573 q 603 494 642 573 q 584 445 592 472 l 490 0 l 290 0 l 392 479 q 396 514 396 495 q 355 575 396 575 q 285 536 314 575 q 241 445 256 498 l 147 0 l -52 0 l 94 694 l 294 694 l 279 622 q 448 701 348 701 q 591 581 571 701 q 784 699 668 699 q 894 663 850 699 q 938 556 938 626 q 915 393 938 485 l 883 257 q 872 185 872 213 q 923 126 872 126 q 994 155 969 126 q 1044 248 1020 185 l 1102 248 q 972 33 1051 95 q 858 -8 918 -8 "},"ﬃ":{"x_min":-290.28125,"x_max":1119.75,"ha":1061,"o":"m 1119 248 q 820 -8 1030 -8 q 722 31 765 -8 q 679 158 679 70 q 690 248 679 197 l 772 638 l 605 638 l 446 -111 q 342 -301 419 -241 q 202 -347 282 -347 q 51 -273 94 -347 q -126 -347 -15 -347 q -240 -304 -190 -347 q -290 -206 -290 -262 q -271 -116 -290 -149 q -211 -54 -252 -84 q -50 10 -170 -25 l 116 804 q 369 1040 166 1040 q 540 967 484 1040 q 750 1040 617 1040 q 988 938 944 1040 q 999 880 999 913 q 965 793 999 818 q 889 768 931 768 q 805 843 805 768 q 818 888 805 866 q 852 910 830 910 l 859 910 q 864 909 862 910 q 787 965 861 965 q 640 808 668 965 l 616 694 l 984 694 l 885 222 q 879 172 879 197 q 935 126 879 126 q 1011 161 976 126 q 1061 248 1046 196 l 1119 248 m 402 638 l 286 638 l 161 50 l 283 70 l 402 638 m 98 -198 q 151 -242 107 -242 q 205 -212 180 -242 q 244 -115 229 -181 l 276 35 l 152 10 l 126 -111 q 98 -198 117 -156 m 494 915 q 442 938 474 938 q 319 808 341 938 l 297 694 l 415 694 l 425 741 q 494 915 444 842 m -51 -34 q -153 -83 -126 -61 q -205 -177 -205 -124 q -172 -219 -205 -204 q -145 -223 -162 -223 q -104 -200 -128 -223 q -67 -115 -81 -177 l -51 -34 "},"ż":{"x_min":0,"x_max":594.796875,"ha":595,"o":"m 328 940 q 388 965 352 965 q 448 940 423 965 q 473 879 473 915 q 448 820 473 844 q 387 796 423 796 q 328 819 352 796 q 304 879 304 843 q 328 940 304 914 m 476 215 q 537 148 537 215 q 490 47 537 94 q 368 0 442 0 l 0 0 l 354 619 l 276 619 q 222 615 244 619 q 200 597 200 612 q 202 593 200 594 q 209 589 204 592 q 215 556 215 585 q 191 510 215 527 q 147 493 168 493 q 95 509 114 493 q 76 550 76 525 q 122 649 76 604 q 237 694 168 694 l 594 694 l 254 107 q 275 105 263 106 l 301 101 q 358 98 333 98 q 425 126 420 98 q 398 155 398 128 q 417 195 398 175 q 476 215 436 215 "},"Е":{"x_min":9.5,"x_max":685,"ha":638,"o":"m 266 579 q 181 749 181 640 q 269 951 181 857 q 486 1044 358 1044 q 628 999 572 1044 q 685 881 685 954 q 654 767 685 808 q 583 726 623 726 q 516 763 543 726 q 559 809 541 773 q 577 886 577 846 q 553 944 577 927 q 499 962 528 962 q 400 902 440 962 q 359 766 359 842 q 435 609 359 661 q 499 580 462 590 q 322 453 394 557 q 251 248 251 349 q 282 149 251 190 q 382 108 312 108 q 527 145 452 108 q 640 250 602 183 l 672 236 q 504 45 617 115 q 265 -25 392 -25 q 73 45 138 -25 q 9 225 9 115 q 80 442 9 335 q 266 579 151 550 "},"Э":{"x_min":-15.59375,"x_max":743.328125,"ha":756,"o":"m -15 164 q 82 291 -15 291 q 161 255 131 291 q 126 205 141 241 q 111 131 111 168 q 132 68 111 93 q 194 42 153 42 q 267 61 235 42 q 328 113 299 80 q 431 289 385 179 q 497 522 476 399 l 202 522 l 225 625 l 510 625 q 512 700 512 657 q 476 863 512 804 q 339 922 439 922 q 164 832 238 922 q 116 769 140 804 l 84 783 q 242 982 137 914 q 425 1041 334 1041 q 573 1023 516 1041 q 668 964 630 1005 q 743 708 743 883 q 630 244 743 455 q 463 50 566 123 q 223 -22 360 -22 q 2 78 55 -22 q -15 164 -15 113 "},"ž":{"x_min":0,"x_max":666.6875,"ha":595,"o":"m 476 215 q 537 148 537 215 q 490 47 537 94 q 368 0 442 0 l 0 0 l 354 619 l 276 619 q 222 615 244 619 q 200 597 200 612 q 202 593 200 594 q 209 589 204 592 q 215 556 215 585 q 191 510 215 527 q 147 493 168 493 q 95 509 114 493 q 76 550 76 525 q 122 649 76 604 q 237 694 168 694 l 594 694 l 254 107 q 275 105 263 106 l 301 101 q 358 98 333 98 q 425 126 420 98 q 398 155 398 128 q 417 195 398 175 q 476 215 436 215 m 372 779 l 343 779 l 259 1041 l 303 1041 l 387 930 l 605 1041 l 666 1041 l 372 779 "},"ю":{"x_min":-52.90625,"x_max":1108.21875,"ha":937,"o":"m 1108 527 q 862 412 1024 439 q 753 108 846 222 q 530 -5 660 -5 q 324 112 370 -5 q 308 210 308 153 q 320 333 308 266 l 216 333 l 147 0 l -52 0 l 94 694 l 294 694 l 236 416 l 344 416 q 562 681 411 613 q 689 706 618 706 q 866 484 866 706 l 866 483 q 889 482 873 482 q 985 505 927 482 q 1096 565 1044 529 l 1108 527 m 747 408 q 710 470 710 417 q 752 541 710 522 q 738 604 750 585 q 695 622 727 622 q 573 484 632 622 q 515 231 515 345 q 527 147 515 165 q 552 124 539 128 q 588 119 566 119 q 636 141 611 119 q 683 202 661 164 q 747 408 731 285 "},"á":{"x_min":-18.3125,"x_max":788.765625,"ha":730,"o":"m 788 248 q 510 -8 700 -8 q 373 119 387 -8 q 161 -8 282 -8 q -2 110 40 -8 q -18 207 -18 153 q -8 317 -18 262 q 20 425 0 371 q 144 623 63 545 q 339 701 225 701 q 425 681 398 701 q 451 630 451 661 l 451 620 l 466 694 l 666 694 l 567 222 q 560 177 560 198 q 617 118 560 118 q 730 248 691 118 l 788 248 m 438 562 q 426 595 438 575 q 376 615 415 615 q 301 573 337 615 q 190 287 212 474 q 187 227 187 259 q 212 141 187 165 q 250 126 227 126 q 325 159 291 126 q 372 248 359 191 l 438 562 m 340 779 l 466 1041 l 612 1041 l 444 779 l 340 779 "},"×":{"x_min":136.328125,"x_max":579.203125,"ha":716,"o":"m 356 270 l 226 140 l 136 229 l 267 360 l 136 493 l 226 581 l 356 450 l 490 583 l 579 493 l 446 360 l 579 229 l 490 139 l 356 270 "},"п":{"x_min":-52.90625,"x_max":759.609375,"ha":701,"o":"m 529 185 q 579 126 529 126 q 651 155 626 126 q 701 248 676 185 l 759 248 q 541 -5 678 14 q 487 -8 519 -8 q 424 5 455 -8 q 337 148 337 42 q 368 330 337 205 q 400 502 400 455 q 349 573 400 573 q 260 494 299 573 q 241 445 248 472 l 147 0 l -52 0 l 94 694 l 294 694 l 279 622 q 441 699 347 699 q 552 663 507 699 q 596 554 596 626 q 573 392 596 482 l 539 257 q 529 185 529 213 "},"K":{"x_min":8.140625,"x_max":922.390625,"ha":835,"o":"m 571 434 q 487 529 571 529 q 441 523 468 529 l 330 0 l 130 0 l 331 944 q 188 828 239 905 q 137 640 137 752 q 153 555 137 583 q 156 545 156 550 q 17 617 45 545 q 8 680 8 642 q 51 815 8 750 q 164 930 95 880 q 495 1041 322 1041 q 551 1039 524 1041 l 461 613 q 766 1022 461 613 l 776 1034 l 922 1034 l 536 590 l 584 591 q 748 501 723 591 q 756 437 756 474 q 722 257 756 381 q 689 96 689 134 q 743 0 689 20 q 605 -23 656 -23 q 497 69 497 -23 q 534 247 497 118 q 571 434 570 376 "},"7":{"x_min":46.125,"x_max":711.453125,"ha":644,"o":"m 316 54 q 195 0 296 0 q 82 37 118 0 q 46 166 46 74 q 81 347 46 259 q 316 714 147 510 l 483 912 q 365 921 422 921 q 78 822 165 921 q 66 904 66 872 q 110 1007 66 973 q 255 1041 154 1041 l 711 1041 l 579 839 l 402 558 q 293 368 305 396 q 248 189 248 265 q 264 116 248 147 q 316 54 279 86 "},"¨":{"x_min":78,"x_max":497.140625,"ha":545,"o":"m 222 819 q 170 796 196 796 q 102 820 126 796 q 78 879 78 844 q 101 940 78 914 q 161 965 126 965 q 222 940 197 965 q 247 879 247 915 q 222 819 247 844 m 472 819 q 420 796 446 796 q 351 819 376 796 q 327 879 327 843 q 351 940 327 915 q 411 965 376 965 q 472 940 446 965 q 497 879 497 915 q 472 819 497 844 "},"Y":{"x_min":8.140625,"x_max":969.859375,"ha":861,"o":"m 385 0 l 478 427 l 344 948 q 192 834 246 912 q 137 640 137 756 q 153 555 137 583 q 156 545 156 550 q 17 617 45 545 q 8 680 8 642 q 51 815 8 750 q 164 930 95 880 q 495 1041 322 1041 q 551 1039 524 1041 l 672 541 l 877 1034 l 969 1034 l 699 427 l 608 0 l 385 0 "},"E":{"x_min":9.5,"x_max":685,"ha":638,"o":"m 266 579 q 181 749 181 640 q 269 951 181 857 q 486 1044 358 1044 q 628 999 572 1044 q 685 881 685 954 q 654 767 685 808 q 583 726 623 726 q 516 763 543 726 q 559 809 541 773 q 577 886 577 846 q 553 944 577 927 q 499 962 528 962 q 400 902 440 962 q 359 766 359 842 q 435 609 359 661 q 499 580 462 590 q 322 453 394 557 q 251 248 251 349 q 282 149 251 190 q 382 108 312 108 q 527 145 452 108 q 640 250 602 183 l 672 236 q 504 45 617 115 q 265 -25 392 -25 q 73 45 138 -25 q 9 225 9 115 q 80 442 9 335 q 266 579 151 550 "},"Ô":{"x_min":22.375,"x_max":910.859375,"ha":914,"o":"m 581 1041 q 910 686 910 1041 q 790 238 910 446 q 562 24 705 88 q 416 -8 489 -8 q 298 6 343 -8 q 149 270 149 56 q 203 575 149 413 q 438 903 288 835 q 523 922 479 922 q 598 910 568 922 q 479 756 538 874 q 364 382 394 588 q 355 265 355 318 q 436 104 355 104 q 437 104 436 104 q 571 202 504 104 q 682 448 638 299 q 726 730 726 597 q 689 921 726 864 q 548 978 653 978 q 265 879 381 978 q 148 620 148 780 q 155 566 148 579 q 162 545 162 553 q 58 572 94 545 q 22 666 22 598 q 68 803 22 734 q 371 1010 166 946 q 581 1041 473 1041 m 740 1126 l 657 1237 l 438 1126 l 377 1126 l 672 1389 l 701 1389 l 784 1126 l 740 1126 "},"‹":{"x_min":27.8125,"x_max":466.625,"ha":499,"o":"m 27 330 l 40 387 l 466 623 l 453 547 l 118 352 l 387 191 l 370 112 l 27 330 "},"Ï":{"x_min":8.140625,"x_max":651.09375,"ha":521,"o":"m 331 943 q 137 640 137 862 q 153 555 137 583 q 156 545 156 550 q 17 617 45 545 q 8 680 8 642 q 51 815 8 750 q 164 930 95 880 q 495 1041 322 1041 q 551 1039 524 1041 l 330 0 l 130 0 l 331 943 m 376 1167 q 324 1143 350 1143 q 255 1167 279 1143 q 231 1226 231 1191 q 255 1287 231 1262 q 315 1312 280 1312 q 376 1287 351 1312 q 401 1227 401 1262 q 376 1167 401 1191 m 626 1167 q 573 1143 600 1143 q 505 1167 530 1143 q 481 1226 481 1190 q 505 1287 481 1262 q 565 1312 530 1312 q 626 1287 600 1312 q 651 1227 651 1262 q 626 1167 651 1191 "},"Є":{"x_min":26.453125,"x_max":743.328125,"ha":690,"o":"m 275 522 q 257 349 257 420 q 264 239 257 279 q 290 171 271 200 q 417 111 329 111 q 694 250 591 111 l 726 236 q 473 2 659 67 q 329 -23 400 -23 q 325 -23 327 -23 q 99 56 171 -21 q 26 309 26 135 q 84 657 26 484 q 282 964 151 862 q 511 1041 382 1041 q 725 940 672 1041 q 743 855 743 905 q 645 727 743 727 q 567 763 596 727 q 611 814 592 777 q 630 888 630 851 q 611 951 630 925 q 550 976 592 976 q 407 876 474 976 q 298 625 340 777 l 563 625 l 541 522 l 275 522 "},"±":{"x_min":42.734375,"x_max":659.90625,"ha":741,"o":"m 450 429 l 412 258 l 255 258 l 293 429 l 115 429 l 148 584 l 326 584 l 364 754 l 520 754 l 483 584 l 659 584 l 628 429 l 450 429 m 42 94 l 67 204 l 577 204 l 554 94 l 42 94 "},"ì":{"x_min":-10.859375,"x_max":429.3125,"ha":371,"o":"m 429 248 q 130 -8 339 -8 q 31 31 75 -8 q -10 158 -10 70 q 0 248 -10 197 l 94 694 l 294 694 l 194 222 q 189 172 189 197 q 245 126 189 126 q 321 161 286 126 q 370 248 356 196 l 429 248 m 173 779 l 91 1041 l 237 1041 l 278 779 l 173 779 "},"|":{"x_min":304.515625,"x_max":433.390625,"ha":739,"o":"m 304 -347 l 304 1043 l 433 1043 l 433 -347 l 304 -347 "},"§":{"x_min":10.859375,"x_max":729.09375,"ha":753,"o":"m 541 184 q 462 -5 541 65 q 240 -75 382 -75 q 22 36 66 -75 q 10 107 10 66 q 48 230 10 182 q 136 278 87 278 q 210 255 185 278 q 254 208 235 232 q 147 147 163 200 q 141 89 141 129 q 167 21 141 48 q 250 -5 193 -5 q 366 128 366 -5 q 286 316 364 236 q 196 400 286 316 q 116 544 116 470 q 158 669 116 619 q 261 743 200 720 q 253 818 253 775 q 280 908 253 861 q 442 1026 330 996 q 555 1042 501 1042 q 658 1021 610 1042 q 729 912 729 991 q 676 805 729 832 q 632 797 659 797 q 585 819 606 797 q 622 860 609 833 q 636 908 636 887 q 616 969 636 948 q 562 990 596 990 q 465 945 502 990 q 427 841 427 900 q 514 691 427 762 q 564 651 538 671 q 665 552 628 604 q 702 418 702 499 q 659 270 702 337 q 541 189 617 204 l 541 184 m 290 674 q 263 628 263 658 q 280 572 263 597 q 323 521 297 546 q 382 469 349 496 q 533 254 507 364 q 559 344 559 287 q 465 512 559 436 l 366 592 q 290 674 321 626 "},"џ":{"x_min":-10.859375,"x_max":759.609375,"ha":701,"o":"m 759 248 q 480 -8 671 -8 q 343 123 356 -8 q 137 -8 261 -8 q 31 31 75 -8 q -10 158 -10 70 q 0 248 -10 197 l 94 694 l 294 694 l 194 222 q 190 183 190 200 q 231 126 190 126 q 343 248 305 126 l 437 694 l 637 694 l 537 222 q 531 173 531 198 q 588 126 531 126 q 701 248 666 126 l 759 248 m 404 -197 q 328 -347 401 -269 l 258 -347 q 276 -306 276 -328 q 266 -269 276 -284 q 242 -240 255 -255 q 209 -155 209 -200 q 283 0 209 -73 l 354 0 q 336 -37 336 -17 q 347 -73 336 -58 l 370 -105 q 404 -197 404 -151 "},"љ":{"x_min":-52.90625,"x_max":979.359375,"ha":1035,"o":"m 661 469 q 806 497 727 497 q 931 448 884 497 q 979 302 979 400 q 897 107 979 203 q 619 -8 792 -8 q 470 39 524 -8 q 415 169 415 86 q 425 248 415 208 l 502 602 q 396 544 432 602 q 335 369 360 486 q 293 188 309 252 q 253 81 277 124 q 99 -8 205 -8 q -14 37 23 -8 q -52 154 -52 84 q -2 251 -52 225 q 39 259 12 259 q 85 239 65 259 q 105 186 105 219 q 88 136 105 152 q 50 123 71 120 q 61 94 50 109 q 104 79 71 79 q 158 101 137 79 q 218 247 196 140 l 238 349 q 419 680 298 640 q 505 694 458 694 l 710 694 l 661 469 m 605 205 q 601 166 601 193 q 661 109 601 109 q 754 173 712 109 q 797 291 797 237 q 722 394 797 394 q 640 369 678 394 l 605 205 "},"й":{"x_min":-10.859375,"x_max":759.609375,"ha":701,"o":"m 759 248 q 480 -8 671 -8 q 343 123 356 -8 q 137 -8 261 -8 q 31 31 75 -8 q -10 158 -10 70 q 0 248 -10 197 l 94 694 l 294 694 l 194 222 q 190 183 190 200 q 231 126 190 126 q 343 248 305 126 l 437 694 l 637 694 l 537 222 q 531 173 531 198 q 588 126 531 126 q 701 248 666 126 l 759 248 m 272 983 q 359 904 359 983 q 326 841 359 863 q 381 836 347 836 q 596 999 533 836 l 654 999 q 453 773 589 808 q 342 762 409 762 q 227 794 275 762 q 180 876 180 826 q 205 954 180 926 q 272 983 230 983 "},"q":{"x_min":-18.3125,"x_max":665.34375,"ha":675,"o":"m 331 67 q 166 -8 260 -8 q -2 110 40 -8 q -18 207 -18 153 q -8 317 -18 262 q 20 425 0 371 q 144 623 63 545 q 339 701 225 701 q 425 681 398 701 q 451 630 451 661 l 451 628 l 465 694 l 665 694 l 454 -297 l 244 -347 l 331 67 m 187 227 q 256 126 187 126 q 317 151 285 126 q 365 225 348 177 l 438 568 q 423 597 435 580 q 375 615 412 615 q 301 573 337 615 q 190 287 212 474 q 187 227 187 259 "},"b":{"x_min":-9.5,"x_max":565.640625,"ha":617,"o":"m 401 698 q 565 461 565 698 q 485 165 565 301 q 315 14 423 59 q 173 -8 258 -8 q 39 38 88 -8 q -9 169 -9 85 q 0 248 -9 206 l 148 944 l 354 972 l 287 659 q 401 698 349 698 m 193 222 q 189 190 189 204 q 262 126 189 126 q 377 241 323 126 q 425 452 425 349 q 383 588 425 555 q 356 600 369 600 q 305 593 330 600 q 269 575 280 587 l 193 222 "},"ﬂ":{"x_min":-290.28125,"x_max":819.296875,"ha":761,"o":"m -59 -34 q -162 -83 -134 -61 q -213 -177 -213 -124 q -180 -219 -213 -204 q -153 -223 -170 -223 q -112 -200 -137 -223 q -76 -115 -88 -177 l -59 -34 m 819 248 q 520 -8 729 -8 q 421 31 465 -8 q 379 158 379 70 q 389 248 379 197 l 534 930 q 421 952 478 952 q 326 843 349 952 l 295 694 l 425 694 l 413 638 l 284 638 l 126 -111 q -126 -347 78 -347 q -240 -304 -190 -347 q -290 -206 -290 -262 q -271 -116 -290 -149 q -211 -54 -252 -84 q -50 10 -170 -25 l 116 804 q 375 1040 165 1040 q 531 1018 465 1040 l 644 980 q 737 944 689 963 l 584 222 q 579 172 579 197 q 636 126 579 126 q 710 160 676 126 q 760 248 745 195 l 819 248 "},"Ж":{"x_min":-63.75,"x_max":1148.90625,"ha":1079,"o":"m 783 412 q 699 507 783 507 q 649 502 673 507 l 543 0 l 343 0 l 450 505 q 433 507 441 507 q 408 507 420 507 q 320 471 356 507 q 273 390 285 435 q 242 236 255 326 l 231 166 q 181 16 215 56 q 76 -23 147 -23 q -63 0 5 -23 q 57 240 29 49 q 86 383 71 339 q 168 518 117 472 q 355 577 227 577 l 359 577 q 362 672 362 621 q 356 775 362 723 q 294 906 346 860 q 208 851 265 851 q 132 902 151 851 q 127 941 127 917 q 166 1015 127 988 q 258 1041 205 1041 q 344 1016 310 1041 q 399 952 378 992 q 446 706 446 863 q 436 572 446 640 q 463 569 450 572 l 555 995 l 763 1039 l 663 569 q 695 572 680 572 q 794 845 727 720 q 941 1013 862 970 q 1030 1041 995 1041 q 1119 1017 1089 1041 q 1148 957 1148 993 q 1122 874 1148 898 q 1058 851 1095 851 q 976 906 999 851 q 817 683 883 852 l 777 577 l 797 577 q 961 488 934 577 q 969 423 969 461 q 935 249 969 372 l 912 164 q 901 91 901 124 q 915 34 901 59 q 955 0 930 9 q 817 -23 868 -23 q 710 69 710 -23 q 735 200 710 114 q 771 331 760 286 q 783 412 782 376 "},"®":{"x_min":47.46875,"x_max":719.59375,"ha":768,"o":"m 145 212 q 47 464 47 316 q 145 715 47 611 q 382 819 242 819 q 620 715 521 819 q 719 465 719 612 q 620 213 719 318 q 382 109 521 109 q 145 212 244 109 m 659 463 q 579 674 659 588 q 384 759 499 759 q 190 673 270 759 q 111 463 111 588 q 190 254 111 339 q 385 168 270 168 q 579 253 499 168 q 659 463 659 339 m 486 263 l 400 437 l 308 437 l 308 266 l 244 266 l 245 670 l 376 670 q 496 640 450 670 q 543 554 543 611 q 520 486 543 515 q 461 446 497 458 l 551 273 l 486 263 m 380 490 q 479 551 479 490 q 412 610 479 599 q 377 613 394 613 l 308 613 l 308 490 l 380 490 "},"Н":{"x_min":16.953125,"x_max":963.75,"ha":924,"o":"m 543 0 l 654 522 l 450 522 l 339 0 l 139 0 l 340 944 q 197 828 248 905 q 145 640 145 752 q 162 555 145 585 q 165 545 165 550 q 26 617 52 545 q 16 680 16 642 q 61 815 16 750 q 329 1011 149 947 q 503 1041 415 1041 q 559 1039 532 1041 l 470 625 l 674 625 l 763 1039 l 963 1039 l 743 0 l 543 0 "},"ф":{"x_min":-19.671875,"x_max":969.859375,"ha":1025,"o":"m 531 144 q 579 112 543 112 q 642 128 615 112 q 691 170 669 143 q 755 308 731 221 q 779 486 779 396 q 710 601 779 601 q 613 533 653 601 l 531 144 m 437 568 q 377 615 429 615 q 278 545 325 615 q 211 400 231 476 q 185 231 185 299 q 212 139 185 160 q 245 124 226 124 q 286 134 264 124 q 364 225 340 159 l 437 568 m 241 -347 l 333 67 q 173 -8 262 -8 q 32 45 84 -8 q -19 215 -19 99 q 67 527 -19 370 q 179 652 109 602 q 337 701 249 701 q 451 625 451 701 l 520 944 l 712 972 l 637 641 q 800 701 705 701 q 969 488 969 701 q 888 142 969 275 q 622 -8 796 -8 q 510 41 539 -8 l 437 -297 l 241 -347 "},"л":{"x_min":-52.90625,"x_max":833.53125,"ha":775,"o":"m 833 248 q 575 -8 746 -8 q 453 34 495 -8 q 411 133 411 76 q 441 327 411 189 l 502 602 q 396 544 432 602 q 335 369 360 486 q 293 188 309 252 q 253 81 277 124 q 99 -8 205 -8 q -14 37 23 -8 q -52 154 -52 84 q -2 251 -52 225 q 39 259 12 259 q 85 239 65 259 q 105 186 105 219 q 88 136 105 152 q 50 123 71 120 q 61 94 50 109 q 104 79 71 79 q 158 101 137 79 q 218 247 196 140 l 238 349 q 419 680 298 640 q 505 694 458 694 l 710 694 l 611 242 q 602 184 602 202 q 658 126 602 126 q 725 158 700 126 q 775 248 750 190 l 833 248 "},"Щ":{"x_min":16.953125,"x_max":1325.25,"ha":1297,"o":"m 406 103 q 519 88 446 103 l 722 1039 l 922 1039 l 711 47 l 794 27 q 878 5 837 16 l 1098 1039 l 1298 1039 l 1069 -37 q 1225 -56 1165 -56 q 1325 -33 1285 -56 q 1276 -183 1315 -132 q 1155 -233 1237 -233 q 900 -172 1072 -233 l 745 -116 q 263 0 436 0 q 137 -8 170 0 l 137 -5 q 139 0 137 -1 l 340 944 q 197 829 248 906 q 145 641 145 753 q 161 554 145 581 q 165 545 164 550 q 27 613 55 545 q 16 673 16 638 q 61 813 16 748 q 329 1011 151 951 q 502 1041 417 1041 q 559 1039 532 1041 l 359 101 l 406 103 "},"L":{"x_min":8.140625,"x_max":921.03125,"ha":526,"o":"m 331 929 q 188 815 239 891 q 137 626 137 739 q 153 541 137 570 q 156 531 156 536 q 17 602 45 531 q 8 666 8 628 q 164 916 8 802 q 495 1028 323 1028 q 551 1024 517 1028 l 337 27 q 457 -18 394 14 l 558 -73 q 804 -151 699 -151 q 921 -128 868 -151 q 871 -287 910 -227 q 776 -347 833 -347 q 564 -252 687 -347 q 405 -130 564 -252 q 156 -31 271 -31 l 141 -31 q 124 -33 133 -31 l 331 929 "}," ":{"x_min":0,"x_max":0,"ha":301},"À":{"x_min":12.203125,"x_max":961.046875,"ha":928,"o":"m 297 47 q 283 -79 283 -26 q 302 -158 283 -131 q 187 -141 220 -158 q 116 -10 116 -105 q 237 393 116 132 q 320 554 275 474 q 213 534 255 550 q 158 482 172 518 q 170 468 164 482 q 176 434 176 454 q 153 399 176 413 q 105 384 130 384 q 36 405 60 384 q 12 463 12 427 q 92 585 12 535 q 295 636 174 636 q 368 632 323 636 q 607 925 480 809 q 851 1041 733 1041 q 961 1022 921 1041 l 743 0 l 543 0 l 649 503 q 463 554 557 545 q 297 47 339 278 m 493 613 q 662 565 590 594 l 743 943 q 493 613 623 878 m 689 1126 l 607 1389 l 752 1389 l 793 1126 l 689 1126 "},"+":{"x_min":73.921875,"x_max":617.859375,"ha":716,"o":"m 408 284 l 370 113 l 213 113 l 251 284 l 73 284 l 107 440 l 284 440 l 322 609 l 479 609 l 441 440 l 617 440 l 585 284 l 408 284 "},"½":{"x_min":96.984375,"x_max":889.828125,"ha":937,"o":"m 185 -229 l 552 1041 l 653 1041 l 286 -229 l 185 -229 m 96 312 l 204 780 l 127 780 l 137 815 q 257 834 210 815 q 341 873 304 853 l 213 312 l 96 312 m 659 480 q 689 417 659 424 q 631 390 659 390 q 587 407 603 390 q 570 451 570 425 q 611 535 570 501 q 737 568 651 568 q 889 448 889 568 q 855 339 889 386 q 771 252 820 293 l 675 177 q 602 105 627 143 l 608 105 q 686 98 647 105 q 764 91 725 91 q 817 101 803 91 q 869 144 847 124 q 858 39 869 61 q 773 -1 838 -1 q 672 12 729 -1 q 591 26 615 26 q 553 22 566 26 q 528 12 539 18 q 510 4 516 6 q 507 43 507 17 q 527 104 507 69 q 576 170 547 138 q 640 234 606 202 q 773 466 773 356 q 742 523 773 508 q 718 528 733 528 q 673 513 687 528 q 659 480 659 498 "},"Ë":{"x_min":9.5,"x_max":750.109375,"ha":638,"o":"m 266 579 q 181 749 181 640 q 269 951 181 857 q 486 1044 358 1044 q 628 999 572 1044 q 685 881 685 954 q 654 767 685 808 q 583 726 623 726 q 516 763 543 726 q 559 809 541 773 q 577 886 577 846 q 553 944 577 927 q 499 962 528 962 q 400 902 440 962 q 359 766 359 842 q 435 609 359 661 q 499 580 462 590 q 322 453 394 557 q 251 248 251 349 q 282 149 251 190 q 382 108 312 108 q 527 145 452 108 q 640 250 602 183 l 672 236 q 504 45 617 115 q 265 -25 392 -25 q 73 45 138 -25 q 9 225 9 115 q 80 442 9 335 q 266 579 151 550 m 475 1167 q 423 1143 449 1143 q 354 1167 378 1143 q 330 1226 330 1191 q 354 1287 330 1262 q 414 1312 379 1312 q 475 1287 450 1312 q 500 1227 500 1262 q 475 1167 500 1191 m 725 1167 q 672 1143 699 1143 q 604 1167 629 1143 q 580 1226 580 1190 q 604 1287 580 1262 q 664 1312 629 1312 q 725 1287 699 1312 q 750 1227 750 1262 q 725 1167 750 1191 "},"'":{"x_min":141.75,"x_max":372.34375,"ha":372,"o":"m 141 779 l 226 1041 l 372 1041 l 245 779 l 141 779 "},"Š":{"x_min":-124.796875,"x_max":821.328125,"ha":791,"o":"m 415 763 q 473 848 458 788 q 478 892 478 866 q 456 948 478 919 q 375 976 434 976 q 282 945 316 976 q 247 862 247 913 q 261 781 247 811 q 345 671 284 726 l 404 619 q 506 507 479 552 q 560 324 560 417 q 440 56 560 151 q 169 -29 333 -29 q -101 100 -32 -29 q -124 206 -124 145 q -62 376 -124 315 q 77 437 0 437 q 188 390 154 437 q 202 345 200 373 q 54 276 95 345 q 39 219 39 250 q 74 121 39 160 q 176 82 109 82 q 288 130 243 82 q 333 252 333 178 q 312 374 333 326 q 259 463 291 421 q 191 542 227 504 q 122 618 154 579 q 48 792 48 708 q 141 970 48 900 q 369 1041 233 1041 q 581 940 537 1041 q 593 863 593 912 q 562 773 593 813 q 486 734 532 734 q 415 763 440 734 m 526 1126 l 497 1126 l 414 1389 l 458 1389 l 541 1277 l 760 1389 l 821 1389 l 526 1126 "},"ĳ":{"x_min":-10.859375,"x_max":763,"ha":704,"o":"m 343 878 q 310 801 343 832 q 231 769 277 769 q 153 801 185 769 q 122 878 122 833 q 153 957 122 924 q 231 990 185 990 q 310 957 278 990 q 343 878 343 925 m 290 134 q 241 28 284 65 q 136 -8 198 -8 q 31 31 75 -8 q -10 158 -10 70 q 0 248 -10 197 l 94 694 l 294 694 l 194 222 q 189 172 189 197 q 202 137 189 148 q 242 126 216 126 q 290 134 268 126 m 495 -111 q 389 -303 469 -244 q 256 -347 331 -347 q 135 -313 181 -347 q 90 -212 90 -280 q 238 -35 90 -99 q 318 -5 278 -18 l 466 694 l 666 694 l 529 50 q 634 114 593 71 q 704 248 674 157 l 763 248 q 583 13 708 70 q 516 -10 549 -2 l 495 -111 m 702 880 q 669 802 702 834 q 591 771 636 771 q 514 803 545 771 q 482 880 482 834 q 513 958 482 925 q 591 991 545 991 q 670 959 637 991 q 702 880 702 926 m 303 -75 q 166 -193 166 -122 q 193 -234 166 -221 q 219 -238 202 -238 q 258 -208 236 -238 q 294 -115 280 -178 l 303 -75 "},"˛":{"x_min":62.390625,"x_max":326.21875,"ha":404,"o":"m 62 -160 q 169 6 62 -75 l 266 6 q 185 -76 212 -12 q 177 -118 177 -96 q 190 -163 177 -140 q 230 -185 202 -185 q 281 -168 257 -185 l 326 -139 q 323 -181 323 -163 l 296 -208 q 178 -267 236 -267 q 90 -234 120 -267 q 62 -160 62 -201 "},"Р":{"x_min":8.140625,"x_max":823.359375,"ha":796,"o":"m 130 0 l 319 883 l 524 910 l 426 446 q 598 563 528 456 q 669 795 669 670 q 575 963 669 920 q 497 978 542 978 q 232 889 327 978 q 137 640 137 800 q 153 555 137 583 q 156 545 156 550 q 17 617 45 545 q 8 680 8 642 q 51 815 8 750 q 164 930 95 880 q 489 1041 322 1041 q 739 963 656 1041 q 823 768 823 884 q 795 635 823 701 q 716 515 768 569 q 422 396 599 396 l 415 396 l 330 0 l 130 0 "},"щ":{"x_min":-10.859375,"x_max":1003.09375,"ha":1087,"o":"m 533 183 q 575 126 533 126 q 686 248 648 126 l 780 694 l 980 694 l 880 222 q 874 172 874 197 q 931 126 874 126 l 1003 126 q 889 -203 978 -119 q 810 -251 850 -242 q 737 -261 771 -261 l 579 -261 q 516 -286 531 -261 q 501 -327 507 -299 l 440 -327 q 520 -122 473 -171 q 583 -84 546 -94 q 674 -75 620 -75 l 783 -75 q 836 -73 812 -75 q 878 -60 859 -71 q 933 48 916 -36 q 841 -6 884 -1 q 809 -8 826 -8 q 727 24 760 -8 q 686 123 693 57 q 480 -8 604 -8 q 343 123 356 -8 q 137 -8 261 -8 q 31 31 75 -8 q -10 158 -10 70 q 0 248 -10 197 l 94 694 l 294 694 l 194 222 q 190 183 190 200 q 231 126 190 126 q 343 248 305 126 l 437 694 l 637 694 l 537 222 q 533 183 533 202 "},"ð":{"x_min":-1.359375,"x_max":805.734375,"ha":747,"o":"m 634 126 q 747 248 709 126 l 805 248 q 526 0 718 0 q 389 120 407 0 q 182 -8 307 -8 q 14 110 57 -8 q -1 207 -1 153 q 8 317 -1 262 q 37 425 18 371 q 155 617 80 545 q 355 701 242 701 q 441 681 415 701 q 467 630 467 661 l 467 622 l 479 673 q 494 779 491 724 l 387 779 l 398 834 l 494 834 q 436 972 486 904 l 498 972 q 585 914 548 943 q 647 834 623 885 l 734 834 l 723 779 l 665 779 q 673 699 673 745 q 658 576 673 653 l 583 222 q 577 172 577 197 q 634 126 577 126 m 455 562 q 425 609 455 592 q 398 615 415 615 q 317 573 353 615 q 207 287 229 472 q 204 227 204 259 q 224 146 204 166 q 266 126 244 126 q 341 158 307 126 q 388 248 375 191 l 455 562 "},"ı":{"x_min":-10.859375,"x_max":429.3125,"ha":371,"o":"m 429 248 q 130 -8 339 -8 q 31 31 75 -8 q -10 158 -10 70 q 0 248 -10 197 l 94 694 l 294 694 l 194 222 q 189 172 189 197 q 245 126 189 126 q 321 161 286 126 q 370 248 356 196 l 429 248 "},"Ć":{"x_min":26.453125,"x_max":743.328125,"ha":690,"o":"m 743 855 q 645 727 743 727 q 567 763 596 727 q 611 814 592 777 q 630 888 630 851 q 611 951 630 925 q 549 976 592 976 q 471 948 507 976 q 402 870 434 919 q 297 621 338 773 q 257 345 257 469 q 293 166 257 221 q 417 111 329 111 q 694 250 591 111 l 726 236 q 473 2 659 67 q 329 -23 400 -23 q 325 -23 327 -23 q 99 56 171 -21 q 26 309 26 135 q 84 657 26 484 q 282 964 151 862 q 511 1041 382 1041 q 725 940 672 1041 q 743 855 743 905 m 467 1126 l 594 1389 l 739 1389 l 571 1126 l 467 1126 "},"Т":{"x_min":8.140625,"x_max":999.015625,"ha":668,"o":"m 609 891 l 417 0 l 218 0 l 415 919 l 398 919 q 212 862 276 919 q 137 638 137 794 q 153 554 137 582 q 156 544 156 548 q 17 615 45 544 q 8 695 8 641 q 33 813 8 748 q 116 929 59 878 q 482 1040 242 1040 q 638 1030 580 1040 q 739 1014 696 1020 q 854 1008 782 1008 q 999 1037 927 1008 q 825 861 992 861 q 609 891 762 861 "},"ä":{"x_min":-18.3125,"x_max":788.765625,"ha":730,"o":"m 788 248 q 510 -8 700 -8 q 373 119 387 -8 q 161 -8 282 -8 q -2 110 40 -8 q -18 207 -18 153 q -8 317 -18 262 q 20 425 0 371 q 144 623 63 545 q 339 701 225 701 q 425 681 398 701 q 451 630 451 661 l 451 620 l 466 694 l 666 694 l 567 222 q 560 177 560 198 q 617 118 560 118 q 730 248 691 118 l 788 248 m 438 562 q 426 595 438 575 q 376 615 415 615 q 301 573 337 615 q 190 287 212 474 q 187 227 187 259 q 212 141 187 165 q 250 126 227 126 q 325 159 291 126 q 372 248 359 191 l 438 562 m 394 819 q 343 796 368 796 q 274 820 298 796 q 250 879 250 844 q 274 940 250 914 q 334 965 298 965 q 394 940 369 965 q 419 879 419 915 q 394 819 419 844 m 644 819 q 592 796 618 796 q 524 819 548 796 q 499 879 499 843 q 524 940 499 915 q 583 965 548 965 q 644 940 619 965 q 669 879 669 915 q 644 819 669 844 "},"¹":{"x_min":30.515625,"x_max":275.359375,"ha":301,"o":"m 30 479 l 137 947 l 61 947 l 70 982 q 190 1001 143 982 q 275 1040 238 1020 l 147 479 l 30 479 "},"£":{"x_min":34.59375,"x_max":592.765625,"ha":646,"o":"m 434 564 q 506 555 462 555 q 583 587 551 555 l 591 585 q 512 491 579 535 q 368 446 445 446 l 345 446 l 267 126 q 315 130 292 129 q 362 131 339 130 q 472 151 420 134 q 592 219 524 168 q 543 59 581 119 q 448 0 505 0 l 38 0 l 158 497 l 134 498 q 42 462 82 498 l 34 465 q 180 588 82 558 l 280 999 l 489 1041 l 377 581 l 434 564 "},"W":{"x_min":8.140625,"x_max":1433.765625,"ha":1336,"o":"m 847 0 l 830 706 l 567 0 l 366 0 l 344 948 q 192 834 246 912 q 137 640 137 756 q 153 555 137 583 q 156 545 156 550 q 17 617 45 545 q 8 680 8 642 q 51 815 8 750 q 164 930 95 880 q 495 1041 322 1041 q 551 1039 524 1041 l 563 184 l 855 1034 l 1032 1034 l 1044 184 l 1336 1034 l 1433 1034 l 1047 0 l 847 0 "},"а":{"x_min":-18.3125,"x_max":788.765625,"ha":730,"o":"m 788 248 q 510 -8 700 -8 q 373 119 387 -8 q 161 -8 282 -8 q -2 110 40 -8 q -18 207 -18 153 q -8 317 -18 262 q 20 425 0 371 q 144 623 63 545 q 339 701 225 701 q 425 681 398 701 q 451 630 451 661 l 451 620 l 466 694 l 666 694 l 567 222 q 560 177 560 198 q 617 118 560 118 q 730 248 691 118 l 788 248 m 438 562 q 426 595 438 575 q 376 615 415 615 q 301 573 337 615 q 190 287 212 474 q 187 227 187 259 q 212 141 187 165 q 250 126 227 126 q 325 159 291 126 q 372 248 359 191 l 438 562 "},"v":{"x_min":-12.203125,"x_max":554.109375,"ha":575,"o":"m 187 172 q 234 126 187 126 q 357 212 299 126 q 466 503 436 328 q 474 590 474 552 q 455 579 471 582 l 440 577 q 430 576 434 576 q 393 599 406 576 q 380 651 380 623 q 401 700 380 678 q 457 722 422 722 q 533 687 512 722 q 554 599 554 652 q 544 479 554 545 q 514 344 535 412 q 379 91 469 191 q 158 -8 289 -8 q 33 31 79 -8 q -12 155 -12 71 q -5 222 -12 189 l 94 694 l 294 694 l 194 222 q 187 172 187 189 "},">":{"x_min":21.03125,"x_max":458.484375,"ha":478,"o":"m 21 140 l 40 219 l 373 352 l 104 519 l 116 596 l 458 387 l 442 312 l 21 140 "},"Ї":{"x_min":16.953125,"x_max":689.078125,"ha":520,"o":"m 139 0 l 340 943 q 197 829 248 905 q 145 640 145 752 q 162 555 145 585 q 165 545 165 550 q 26 617 52 545 q 16 680 16 642 q 61 815 16 750 q 329 1011 149 947 q 503 1041 415 1041 q 559 1039 532 1041 l 339 0 l 139 0 m 663 1167 q 611 1143 638 1143 q 543 1167 568 1143 q 519 1226 519 1190 q 543 1287 519 1262 q 603 1312 568 1312 q 663 1287 638 1312 q 689 1227 689 1262 q 663 1167 689 1191 m 413 1167 q 362 1143 387 1143 q 293 1167 318 1143 q 269 1226 269 1190 q 293 1287 269 1262 q 353 1312 318 1312 q 413 1287 388 1312 q 438 1227 438 1262 q 413 1167 438 1191 "},"û":{"x_min":-10.859375,"x_max":759.609375,"ha":701,"o":"m 759 248 q 480 -8 671 -8 q 343 123 356 -8 q 137 -8 261 -8 q 31 31 75 -8 q -10 158 -10 70 q 0 248 -10 197 l 94 694 l 294 694 l 194 222 q 190 183 190 200 q 231 126 190 126 q 343 248 305 126 l 437 694 l 637 694 l 537 222 q 531 173 531 198 q 588 126 531 126 q 701 248 666 126 l 759 248 m 537 779 l 454 890 l 236 779 l 174 779 l 469 1041 l 498 1041 l 581 779 l 537 779 "},"Ź":{"x_min":15.59375,"x_max":776.5625,"ha":753,"o":"m 287 90 l 421 87 q 510 92 469 87 q 565 118 550 97 q 549 127 558 118 q 540 160 540 136 q 565 221 540 201 q 626 241 590 241 q 678 215 662 241 q 694 162 694 189 q 644 51 694 103 q 516 0 594 0 l 15 0 l 501 966 l 376 969 q 248 938 248 969 q 263 929 255 938 q 271 895 271 919 q 246 834 271 853 q 185 815 221 815 q 134 841 149 815 q 119 895 119 867 q 164 997 119 953 q 290 1041 210 1041 l 766 1041 l 287 90 m 504 1126 l 630 1389 l 776 1389 l 608 1126 l 504 1126 "},"Ð":{"x_min":8.140625,"x_max":895.9375,"ha":921,"o":"m 864 408 q 656 37 798 151 q 506 -18 586 -18 q 341 55 427 -18 l 330 0 l 130 0 l 233 479 l 179 479 l 206 581 l 255 581 l 319 883 l 524 910 l 454 581 l 563 581 l 536 479 l 432 479 l 358 132 q 437 104 396 104 q 549 160 499 104 q 685 499 644 266 q 704 687 704 604 q 696 822 704 771 q 668 907 689 872 q 512 978 625 978 q 240 887 341 978 q 137 640 137 796 q 153 555 137 583 q 156 545 156 550 q 17 617 45 545 q 8 680 8 642 q 51 815 8 750 q 164 930 95 880 q 495 1041 322 1041 q 895 666 895 1041 q 864 408 895 530 "},"Х":{"x_min":8.140625,"x_max":869.484375,"ha":861,"o":"m 545 0 l 472 347 l 270 0 l 185 0 l 446 461 l 344 948 q 192 834 246 912 q 137 640 137 756 q 153 555 137 583 q 156 545 156 550 q 17 617 45 545 q 8 680 8 642 q 51 815 8 750 q 164 930 95 880 q 495 1041 322 1041 q 551 1039 524 1041 l 611 750 l 772 1034 l 869 1034 l 636 630 l 766 0 l 545 0 "},"r":{"x_min":-52.90625,"x_max":540.546875,"ha":522,"o":"m -52 0 l 94 694 l 294 694 l 276 608 q 353 666 311 638 q 443 694 394 694 q 516 662 491 694 q 540 601 540 630 q 513 520 540 551 q 448 489 486 489 q 398 506 411 489 q 383 541 386 523 q 376 570 381 559 q 358 580 372 580 q 307 567 329 580 q 258 527 286 554 l 147 0 l -52 0 "},"ж":{"x_min":-51.546875,"x_max":1283.203125,"ha":1225,"o":"m 1098 576 q 1066 633 1098 633 q 963 498 1013 633 q 916 240 916 364 q 945 129 916 164 q 1021 94 973 94 q 1128 131 1068 94 q 1236 248 1188 168 l 1283 248 q 1143 67 1235 142 q 953 -8 1051 -8 q 801 51 855 -8 q 747 212 747 111 q 758 333 747 281 l 678 333 l 609 0 l 423 0 l 494 333 l 416 333 q 230 21 370 104 q 123 -8 179 -8 q -12 33 27 -8 q -51 139 -51 75 q 0 248 -51 224 q 37 255 14 255 q 80 236 61 255 q 62 142 62 185 q 79 82 62 99 q 118 65 95 65 q 161 93 141 65 q 250 327 224 181 q 263 458 263 396 q 179 604 263 604 q 115 577 139 604 q 71 499 91 550 l 0 499 q 230 706 59 706 q 379 647 326 706 q 433 486 433 587 q 429 416 433 451 l 512 416 l 571 694 l 756 694 l 698 416 l 776 416 q 959 682 834 615 q 1053 706 1004 706 q 1171 670 1138 706 q 1204 580 1204 633 q 1183 502 1204 527 q 1135 478 1162 478 q 1084 494 1107 478 q 1098 576 1098 539 "},"Č":{"x_min":26.453125,"x_max":812.515625,"ha":690,"o":"m 743 855 q 645 727 743 727 q 567 763 596 727 q 611 814 592 777 q 630 888 630 851 q 611 951 630 925 q 549 976 592 976 q 471 948 507 976 q 402 870 434 919 q 297 621 338 773 q 257 345 257 469 q 293 166 257 221 q 417 111 329 111 q 694 250 591 111 l 726 236 q 473 2 659 67 q 329 -23 400 -23 q 325 -23 327 -23 q 99 56 171 -21 q 26 309 26 135 q 84 657 26 484 q 282 964 151 862 q 511 1041 382 1041 q 725 940 672 1041 q 743 855 743 905 m 518 1126 l 489 1126 l 405 1389 l 449 1389 l 533 1277 l 751 1389 l 812 1389 l 518 1126 "},"x":{"x_min":0,"x_max":783.34375,"ha":725,"o":"m 587 628 q 522 705 522 628 q 550 757 522 741 q 607 773 579 773 q 673 735 652 773 q 694 656 694 697 q 682 583 694 614 q 585 439 659 523 l 501 344 l 514 247 q 537 159 522 181 q 567 132 553 138 q 600 126 581 126 q 674 160 640 126 q 725 248 709 195 l 783 248 q 644 39 731 103 q 505 -8 579 -8 q 499 -8 502 -8 q 330 233 368 -8 l 139 0 l 38 0 l 319 316 l 297 472 q 274 564 285 542 q 243 587 263 587 q 146 498 199 587 q 58 248 92 410 l 0 248 q 61 456 33 394 q 109 552 90 518 q 206 661 153 621 q 315 701 260 701 q 397 685 370 701 q 447 637 425 669 q 478 536 469 604 l 490 430 q 611 630 606 560 q 587 628 599 628 "},"è":{"x_min":-18.3125,"x_max":580.5625,"ha":533,"o":"m 580 248 q 198 -8 424 -8 q 40 43 99 -8 q -18 212 -18 94 q 62 519 -18 370 q 230 680 124 632 q 344 706 285 706 q 475 670 440 706 q 510 573 510 634 q 414 372 510 455 q 190 280 318 288 q 187 225 187 241 q 212 131 187 153 q 282 108 237 108 q 417 144 362 108 q 533 248 472 179 l 580 248 m 402 583 q 368 633 402 633 q 269 543 317 632 q 201 347 222 455 q 342 421 281 352 q 402 583 402 491 m 322 779 l 240 1041 l 385 1041 l 426 779 l 322 779 "},"Ø":{"x_min":21.03125,"x_max":877.625,"ha":914,"o":"m 665 963 q 877 641 877 914 q 853 453 877 560 q 649 88 803 227 q 461 -1 570 17 l 440 -98 l 368 -98 l 387 -8 l 384 -8 q 162 132 212 -8 q 144 244 144 183 q 154 372 144 306 q 184 505 164 438 q 306 752 229 657 q 507 864 395 864 q 569 854 539 864 l 581 910 q 505 915 560 915 q 381 892 451 915 q 259 825 311 868 q 143 580 143 730 q 149 531 143 543 q 156 511 156 518 q 65 529 90 511 q 30 568 39 548 q 21 619 21 589 q 65 752 21 687 q 358 945 158 885 q 560 975 457 975 l 577 975 q 594 973 585 975 l 609 1041 l 682 1041 l 665 963 m 568 847 q 493 765 523 817 q 361 413 400 602 q 343 253 343 322 q 409 96 343 110 l 568 847 m 487 122 q 636 355 573 185 q 699 687 699 524 q 689 804 699 756 q 647 880 678 852 l 487 122 "},"Ń":{"x_min":8.140625,"x_max":991.5625,"ha":975,"o":"m 602 0 l 484 726 l 330 0 l 130 0 l 330 943 q 187 828 238 904 q 137 640 137 752 q 153 555 137 583 q 156 545 156 550 q 17 617 45 545 q 8 681 8 642 q 20 763 8 720 q 56 845 33 805 q 198 987 108 932 q 401 1041 287 1041 q 466 1039 434 1041 q 530 1022 499 1037 l 640 286 l 791 1039 l 991 1039 l 771 0 l 602 0 m 689 1126 l 815 1389 l 961 1389 l 792 1126 l 689 1126 "},"с":{"x_min":-18.3125,"x_max":580.5625,"ha":533,"o":"m 343 706 q 510 580 510 706 q 488 502 510 527 q 439 478 466 478 q 387 494 412 478 q 404 576 404 539 q 364 633 404 633 q 280 561 324 633 q 193 308 217 459 q 187 208 187 263 q 282 108 187 108 q 417 144 362 108 q 533 248 472 179 l 580 248 q 198 -8 424 -8 q 40 43 99 -8 q -18 212 -18 94 q 62 520 -18 371 q 229 680 123 632 q 343 706 284 706 "},"÷":{"x_min":71.21875,"x_max":582.59375,"ha":656,"o":"m 236 33 q 204 110 204 65 q 235 189 204 155 q 313 222 267 222 q 392 189 359 222 q 425 110 425 156 q 392 32 425 64 q 313 1 358 1 q 236 33 267 1 m 319 498 q 287 576 287 530 q 319 654 287 621 q 396 687 350 687 q 475 655 442 687 q 508 576 508 622 q 475 498 508 529 q 396 466 442 466 q 319 498 351 466 m 71 286 l 96 395 l 582 395 l 558 286 l 71 286 "},"h":{"x_min":-52.90625,"x_max":759.609375,"ha":701,"o":"m 529 185 q 579 126 529 126 q 651 155 626 126 q 701 248 676 185 l 759 248 q 541 -5 678 14 q 487 -8 519 -8 q 424 5 455 -8 q 337 148 337 42 q 368 330 337 205 q 400 502 400 455 q 349 573 400 573 q 260 494 299 573 q 241 445 248 472 l 147 0 l -52 0 l 148 944 l 354 972 l 279 622 q 441 699 347 699 q 552 663 507 699 q 596 554 596 626 q 573 392 596 482 l 539 257 q 529 185 529 213 "},".":{"x_min":42.734375,"x_max":263.828125,"ha":366,"o":"m 231 182 q 263 103 263 149 q 230 26 263 57 q 152 -5 198 -5 q 74 26 107 -5 q 42 103 42 58 q 74 182 42 149 q 152 215 107 215 q 231 182 198 215 "},"f":{"x_min":-288.921875,"x_max":534.4375,"ha":371,"o":"m 465 833 q 467 874 467 855 q 452 906 467 894 q 420 918 436 918 q 358 892 386 918 q 318 804 330 866 l 294 694 l 396 694 l 385 638 l 283 638 l 123 -111 q -124 -347 75 -347 q -239 -304 -189 -347 q -288 -206 -288 -262 q -269 -116 -288 -149 q -218 -59 -250 -83 q -50 10 -170 -26 l 118 804 q 370 1040 167 1040 q 484 998 435 1040 q 534 890 534 956 q 530 833 534 858 l 465 833 m -59 -34 q -161 -82 -133 -60 q -212 -177 -212 -124 q -179 -219 -212 -204 q -151 -223 -168 -223 q -112 -200 -134 -223 q -78 -115 -90 -176 l -59 -34 "},"“":{"x_min":105.796875,"x_max":601.578125,"ha":707,"o":"m 523 922 q 540 898 523 909 q 601 805 601 864 q 572 742 601 771 q 499 714 542 714 q 434 739 457 714 q 411 812 411 765 q 455 924 411 859 q 579 1039 499 988 q 591 1020 591 1032 l 523 922 m 218 922 q 234 898 218 910 q 295 805 295 864 q 266 742 295 771 q 194 714 236 714 q 105 812 105 714 q 149 923 105 859 q 273 1039 193 987 q 286 1020 286 1032 l 218 922 "},"A":{"x_min":12.203125,"x_max":961.046875,"ha":928,"o":"m 297 47 q 283 -79 283 -26 q 302 -158 283 -131 q 187 -141 220 -158 q 116 -10 116 -105 q 237 393 116 132 q 320 554 275 474 q 213 534 255 550 q 158 482 172 518 q 170 468 164 482 q 176 434 176 454 q 153 399 176 413 q 105 384 130 384 q 36 405 60 384 q 12 463 12 427 q 92 585 12 535 q 295 636 174 636 q 368 632 323 636 q 607 925 480 809 q 851 1041 733 1041 q 961 1022 921 1041 l 743 0 l 543 0 l 649 503 q 463 554 557 545 q 297 47 339 278 m 493 613 q 662 565 590 594 l 743 943 q 493 613 623 878 "},"‘":{"x_min":116.65625,"x_max":307.234375,"ha":424,"o":"m 297 733 q 284 714 297 720 q 160 829 204 765 q 116 940 116 893 q 139 1013 116 988 q 205 1039 162 1039 q 277 1010 248 1039 q 307 947 307 982 q 245 854 307 889 q 229 830 229 843 l 297 733 "},"O":{"x_min":22.375,"x_max":910.859375,"ha":924,"o":"m 581 1041 q 910 686 910 1041 q 790 238 910 446 q 562 24 705 88 q 416 -8 489 -8 q 298 6 343 -8 q 149 270 149 56 q 203 575 149 413 q 438 903 288 835 q 523 922 479 922 q 598 910 568 922 q 479 756 538 874 q 364 382 394 588 q 355 265 355 318 q 436 104 355 104 q 437 104 436 104 q 571 202 504 104 q 682 448 638 299 q 726 730 726 597 q 689 921 726 864 q 548 978 653 978 q 265 879 381 978 q 148 620 148 780 q 155 566 148 579 q 162 545 162 553 q 58 572 94 545 q 22 666 22 598 q 68 803 22 734 q 371 1010 166 946 q 581 1041 473 1041 "},"3":{"x_min":8.140625,"x_max":691.78125,"ha":714,"o":"m 298 868 q 351 758 298 773 q 245 711 299 711 q 153 778 177 711 q 145 838 145 800 q 168 915 145 876 q 229 982 190 954 q 433 1040 310 1040 q 623 981 555 1040 q 691 845 691 922 q 644 697 691 767 q 501 579 597 628 q 634 486 592 548 q 676 349 676 424 q 569 108 676 216 q 290 -6 456 -6 q 207 0 250 -6 q 40 101 98 17 q 8 232 8 149 q 50 372 8 316 q 181 427 92 427 q 284 356 270 427 q 162 206 162 348 q 229 88 162 103 q 280 83 248 83 q 348 102 312 83 q 409 154 384 122 q 461 318 461 221 q 359 535 461 452 q 276 580 324 563 q 450 692 386 612 q 514 851 514 771 q 396 965 514 965 q 327 935 357 965 q 298 868 298 906 "},"9":{"x_min":40.015625,"x_max":674.828125,"ha":679,"o":"m 400 588 q 429 519 429 554 q 374 429 429 466 q 233 392 319 392 q 97 465 147 392 q 47 634 47 539 q 151 924 47 807 q 406 1041 255 1041 q 674 715 674 1041 q 618 342 674 505 q 454 86 562 180 q 204 -6 347 -6 q 84 33 128 -6 q 40 124 40 73 q 160 227 40 227 q 140 179 140 208 q 161 126 140 149 q 205 103 183 103 q 240 104 227 103 q 280 117 252 105 q 330 149 308 128 q 437 326 390 202 q 501 676 484 450 q 503 748 503 729 q 474 909 503 868 q 379 950 444 950 q 260 854 315 950 q 205 648 205 758 q 222 548 205 591 q 283 505 240 505 q 400 588 368 505 "},"l":{"x_min":-10.859375,"x_max":429.3125,"ha":371,"o":"m 429 248 q 130 -8 339 -8 q 31 31 75 -8 q -10 158 -10 70 q 0 248 -10 197 l 148 944 l 354 972 l 194 222 q 189 172 189 197 q 245 126 189 126 q 321 161 286 126 q 370 248 356 196 l 429 248 "},"4":{"x_min":10.859375,"x_max":690.4375,"ha":661,"o":"m 267 0 l 349 381 l 10 381 q 42 463 23 419 l 130 651 q 213 958 213 834 q 204 1041 213 1001 q 345 967 307 1041 q 358 892 358 942 q 336 787 358 843 q 283 680 315 731 q 217 582 252 630 q 155 484 182 534 l 372 484 l 484 1013 l 690 1041 l 571 484 l 659 484 l 632 381 l 548 381 l 467 0 l 267 0 "},"Ъ":{"x_min":16.953125,"x_max":943.40625,"ha":992,"o":"m 750 352 q 617 523 750 523 q 550 508 581 523 l 440 0 l 240 0 l 437 918 l 401 919 q 287 910 343 919 q 203 868 232 900 q 147 717 149 807 q 147 712 147 717 q 200 541 147 619 q 142 537 176 537 q 71 560 107 537 q 16 678 16 597 q 143 929 16 818 q 503 1040 270 1040 q 662 1029 597 1040 l 565 580 q 702 605 637 605 q 884 535 824 605 q 943 344 943 464 q 873 111 943 223 q 781 15 838 54 q 639 -23 725 -23 q 520 31 554 -23 q 503 90 503 58 q 519 160 503 122 q 604 109 558 109 q 676 132 650 109 q 750 352 750 198 "},"Ü":{"x_min":0,"x_max":1057.34375,"ha":999,"o":"m 861 1039 l 1057 1039 l 965 605 q 856 225 912 347 q 678 27 790 79 q 503 -9 598 -9 q 357 5 408 -9 q 274 47 305 19 q 215 208 215 101 q 249 457 215 315 l 375 961 q 194 849 260 930 q 128 641 128 769 q 145 554 128 582 q 148 545 148 550 q 10 613 38 545 q 0 673 0 638 q 44 813 0 747 q 328 1011 137 951 q 524 1041 424 1041 q 591 1034 555 1041 l 449 507 q 404 261 404 331 q 425 159 404 191 q 507 126 446 126 q 594 146 567 126 q 680 281 644 183 q 768 609 717 379 l 861 1039 m 662 1167 q 610 1143 636 1143 q 541 1167 565 1143 q 518 1226 518 1191 q 541 1287 518 1262 q 601 1312 566 1312 q 662 1287 637 1312 q 687 1227 687 1262 q 662 1167 687 1191 m 912 1167 q 859 1143 886 1143 q 792 1167 816 1143 q 767 1226 767 1190 q 792 1287 767 1262 q 851 1312 816 1312 q 912 1287 887 1312 q 937 1227 937 1262 q 912 1167 937 1191 "},"à":{"x_min":-18.3125,"x_max":788.765625,"ha":730,"o":"m 788 248 q 510 -8 700 -8 q 373 119 387 -8 q 161 -8 282 -8 q -2 110 40 -8 q -18 207 -18 153 q -8 317 -18 262 q 20 425 0 371 q 144 623 63 545 q 339 701 225 701 q 425 681 398 701 q 451 630 451 661 l 451 620 l 466 694 l 666 694 l 567 222 q 560 177 560 198 q 617 118 560 118 q 730 248 691 118 l 788 248 m 438 562 q 426 595 438 575 q 376 615 415 615 q 301 573 337 615 q 190 287 212 474 q 187 227 187 259 q 212 141 187 165 q 250 126 227 126 q 325 159 291 126 q 372 248 359 191 l 438 562 m 381 779 l 299 1041 l 445 1041 l 486 779 l 381 779 "},"Ś":{"x_min":-124.796875,"x_max":769.109375,"ha":791,"o":"m 415 763 q 473 848 458 788 q 478 892 478 866 q 456 948 478 919 q 375 976 434 976 q 282 945 316 976 q 247 862 247 913 q 261 781 247 811 q 345 671 284 726 l 404 619 q 506 507 479 552 q 560 324 560 417 q 440 56 560 151 q 169 -29 333 -29 q -101 100 -32 -29 q -124 206 -124 145 q -62 376 -124 315 q 77 437 0 437 q 188 390 154 437 q 202 345 200 373 q 54 276 95 345 q 39 219 39 250 q 74 121 39 160 q 176 82 109 82 q 288 130 243 82 q 333 252 333 178 q 312 374 333 326 q 259 463 291 421 q 191 542 227 504 q 122 618 154 579 q 48 792 48 708 q 141 970 48 900 q 369 1041 233 1041 q 581 940 537 1041 q 593 863 593 912 q 562 773 593 813 q 486 734 532 734 q 415 763 440 734 m 497 1126 l 623 1389 l 769 1389 l 600 1126 l 497 1126 "},"ó":{"x_min":-27.125,"x_max":773.171875,"ha":602,"o":"m 773 527 q 526 412 689 439 q 417 108 510 222 q 195 -5 324 -5 q -10 112 35 -5 q -27 204 -27 153 q -18 306 -27 254 q 8 413 -10 358 q 128 614 49 537 q 353 706 221 706 q 531 484 531 706 l 531 483 q 554 482 538 482 q 650 505 592 482 q 760 565 709 529 l 773 527 m 411 408 q 374 470 374 417 q 417 541 374 522 q 403 604 415 585 q 360 622 392 622 q 238 481 296 622 q 179 231 179 341 q 191 146 179 164 q 217 124 204 128 q 253 119 231 119 q 348 202 301 119 q 411 408 395 286 m 304 779 l 430 1041 l 576 1041 l 408 779 l 304 779 "},"₴":{"x_min":40.015625,"x_max":771.140625,"ha":791,"o":"m 533 891 q 423 976 533 976 q 334 939 369 976 q 298 844 298 901 q 335 763 298 787 q 258 734 295 734 q 177 825 177 734 q 251 979 177 916 q 447 1041 324 1041 q 642 989 570 1041 q 715 851 715 937 q 687 758 715 800 q 616 677 659 716 l 771 677 l 751 608 l 530 608 l 417 518 l 735 518 l 716 448 l 351 448 q 262 216 262 343 q 301 118 262 153 q 403 82 339 82 q 504 118 467 82 q 541 204 541 155 q 440 286 541 286 q 567 380 469 380 q 669 346 632 380 q 706 248 706 311 q 603 46 706 122 q 363 -29 501 -29 q 138 36 226 -29 q 50 223 50 101 q 137 448 50 345 l 40 448 l 59 518 l 208 518 l 323 608 l 75 608 l 94 677 l 411 677 q 533 891 533 780 "}}}
